<?xml version="1.0" encoding="UTF-8" standalone="no"?>
<!DOCTYPE svg PUBLIC "-//W3C//DTD SVG 1.1//EN"
 "http://www.w3.org/Graphics/SVG/1.1/DTD/svg11.dtd">
<!-- Generated by graphviz version 2.43.0 (0)
 -->
<!-- Title: G Pages: 1 -->
<svg width="206pt" height="260pt"
 viewBox="0.00 0.00 206.00 260.00" xmlns="http://www.w3.org/2000/svg" xmlns:xlink="http://www.w3.org/1999/xlink">
<g id="graph0" class="graph" transform="scale(1 1) rotate(0) translate(4 256)">
<title>G</title>
<polygon fill="#ffffff" fill-opacity="0.003922" stroke="transparent" points="-4,4 -4,-256 202,-256 202,4 -4,4"/>
<!-- 1 -->
<g id="node1" class="node">
<title>1</title>
<ellipse fill="#b2dfee" stroke="#b2dfee" cx="99" cy="-234" rx="18" ry="18"/>
<text text-anchor="middle" x="99" y="-230.9" font-family="times bold" font-size="12.00">4</text>
</g>
<!-- 2 -->
<g id="node2" class="node">
<title>2</title>
<ellipse fill="#b2dfee" stroke="#b2dfee" cx="72" cy="-162" rx="18" ry="18"/>
<text text-anchor="middle" x="72" y="-158.9" font-family="times bold" font-size="12.00">3</text>
</g>
<!-- 1&#45;&gt;2 -->
<g id="edge1" class="edge">
<title>1&#45;&gt;2</title>
<path fill="none" stroke="black" d="M92.74,-216.76C89.5,-208.37 85.47,-197.93 81.83,-188.5"/>
<polygon fill="black" stroke="black" points="85.09,-187.22 78.23,-179.15 78.56,-189.74 85.09,-187.22"/>
</g>
<!-- 3 -->
<g id="node3" class="node">
<title>3</title>
<ellipse fill="#b2dfee" stroke="#b2dfee" cx="126" cy="-162" rx="18" ry="18"/>
<text text-anchor="middle" x="126" y="-158.9" font-family="times bold" font-size="12.00">7</text>
</g>
<!-- 1&#45;&gt;3 -->
<g id="edge2" class="edge">
<title>1&#45;&gt;3</title>
<path fill="none" stroke="black" d="M105.26,-216.76C108.5,-208.37 112.53,-197.93 116.17,-188.5"/>
<polygon fill="black" stroke="black" points="119.44,-189.74 119.77,-179.15 112.91,-187.22 119.44,-189.74"/>
</g>
<!-- 4 -->
<g id="node4" class="node">
<title>4</title>
<ellipse fill="#b2dfee" stroke="#b2dfee" cx="18" cy="-90" rx="18" ry="18"/>
<text text-anchor="middle" x="18" y="-86.9" font-family="times bold" font-size="12.00">0</text>
</g>
<!-- 2&#45;&gt;4 -->
<g id="edge3" class="edge">
<title>2&#45;&gt;4</title>
<path fill="none" stroke="black" d="M61.33,-147.17C53.79,-137.39 43.52,-124.08 34.87,-112.87"/>
<polygon fill="black" stroke="black" points="37.53,-110.58 28.65,-104.8 31.98,-114.86 37.53,-110.58"/>
</g>
<!-- 5 -->
<g id="node5" class="node">
<title>5</title>
<ellipse fill="#b2dfee" stroke="#b2dfee" cx="72" cy="-90" rx="18" ry="18"/>
<text text-anchor="middle" x="72" y="-86.9" font-family="times bold" font-size="12.00">2</text>
</g>
<!-- 2&#45;&gt;5 -->
<g id="edge4" class="edge">
<title>2&#45;&gt;5</title>
<path fill="none" stroke="black" d="M72,-143.7C72,-135.98 72,-126.71 72,-118.11"/>
<polygon fill="black" stroke="black" points="75.5,-118.1 72,-108.1 68.5,-118.1 75.5,-118.1"/>
</g>
<!-- 6 -->
<g id="node6" class="node">
<title>6</title>
<ellipse fill="#b2dfee" stroke="#b2dfee" cx="126" cy="-90" rx="18" ry="18"/>
<text text-anchor="middle" x="126" y="-86.9" font-family="times bold" font-size="12.00">5</text>
</g>
<!-- 3&#45;&gt;6 -->
<g id="edge5" class="edge">
<title>3&#45;&gt;6</title>
<path fill="none" stroke="black" d="M126,-143.7C126,-135.98 126,-126.71 126,-118.11"/>
<polygon fill="black" stroke="black" points="129.5,-118.1 126,-108.1 122.5,-118.1 129.5,-118.1"/>
</g>
<!-- 7 -->
<!-- 3&#45;&gt;7 -->
<g id="edge6" class="edge">
<title>3&#45;&gt;7</title>
<path fill="none" stroke="black" d="M136.67,-147.17C144.21,-137.39 154.48,-124.08 163.13,-112.87"/>
<polygon fill="black" stroke="black" points="166.02,-114.86 169.35,-104.8 160.47,-110.58 166.02,-114.86"/>
</g>
<!-- 8 -->
<!-- 6&#45;&gt;8 -->
<g id="edge7" class="edge">
<title>6&#45;&gt;8</title>
<path fill="none" stroke="black" d="M119.74,-72.76C116.5,-64.37 112.47,-53.93 108.83,-44.5"/>
<polygon fill="black" stroke="black" points="112.09,-43.22 105.23,-35.15 105.56,-45.74 112.09,-43.22"/>
</g>
<!-- 9 -->
<g id="node9" class="node">
<title>9</title>
<ellipse fill="#b2dfee" stroke="#b2dfee" cx="153" cy="-18" rx="18" ry="18"/>
<text text-anchor="middle" x="153" y="-14.9" font-family="times bold" font-size="12.00">6</text>
</g>
<!-- 6&#45;&gt;9 -->
<g id="edge8" class="edge">
<title>6&#45;&gt;9</title>
<path fill="none" stroke="black" d="M132.26,-72.76C135.5,-64.37 139.53,-53.93 143.17,-44.5"/>
<polygon fill="black" stroke="black" points="146.44,-45.74 146.77,-35.15 139.91,-43.22 146.44,-45.74"/>
</g>
</g>
</svg>
