<?xml version="1.0" encoding="UTF-8" standalone="no"?>
<!DOCTYPE svg PUBLIC "-//W3C//DTD SVG 1.1//EN"
 "http://www.w3.org/Graphics/SVG/1.1/DTD/svg11.dtd">
<!-- Generated by graphviz version 2.43.0 (0)
 -->
<!-- Title: G Pages: 1 -->
<svg width="233pt" height="332pt"
 viewBox="0.00 0.00 233.00 332.00" xmlns="http://www.w3.org/2000/svg" xmlns:xlink="http://www.w3.org/1999/xlink">
<g id="graph0" class="graph" transform="scale(1 1) rotate(0) translate(4 328)">
<title>G</title>
<polygon fill="#ffffff" fill-opacity="0.003922" stroke="transparent" points="-4,4 -4,-328 229,-328 229,4 -4,4"/>
<!-- 1 -->
<g id="node1" class="node">
<title>1</title>
<ellipse fill="#b2dfee" stroke="#b2dfee" cx="126" cy="-306" rx="18" ry="18"/>
<text text-anchor="middle" x="126" y="-302.9" font-family="times bold" font-size="12.00">4</text>
</g>
<!-- 2 -->
<g id="node2" class="node">
<title>2</title>
<ellipse fill="#b2dfee" stroke="#b2dfee" cx="99" cy="-234" rx="18" ry="18"/>
<text text-anchor="middle" x="99" y="-230.9" font-family="times bold" font-size="12.00">2</text>
</g>
<!-- 1&#45;&gt;2 -->
<g id="edge1" class="edge">
<title>1&#45;&gt;2</title>
<path fill="none" stroke="black" d="M119.74,-288.76C116.5,-280.37 112.47,-269.93 108.83,-260.5"/>
<polygon fill="black" stroke="black" points="112.09,-259.22 105.23,-251.15 105.56,-261.74 112.09,-259.22"/>
</g>
<!-- 3 -->
<g id="node3" class="node">
<title>3</title>
<ellipse fill="#b2dfee" stroke="#b2dfee" cx="153" cy="-234" rx="18" ry="18"/>
<text text-anchor="middle" x="153" y="-230.9" font-family="times bold" font-size="12.00">10</text>
</g>
<!-- 1&#45;&gt;3 -->
<g id="edge2" class="edge">
<title>1&#45;&gt;3</title>
<path fill="none" stroke="black" d="M132.26,-288.76C135.5,-280.37 139.53,-269.93 143.17,-260.5"/>
<polygon fill="black" stroke="black" points="146.44,-261.74 146.77,-251.15 139.91,-259.22 146.44,-261.74"/>
</g>
<!-- 4 -->
<g id="node4" class="node">
<title>4</title>
<ellipse fill="#b2dfee" stroke="#b2dfee" cx="45" cy="-162" rx="18" ry="18"/>
<text text-anchor="middle" x="45" y="-158.9" font-family="times bold" font-size="12.00">0</text>
</g>
<!-- 2&#45;&gt;4 -->
<g id="edge3" class="edge">
<title>2&#45;&gt;4</title>
<path fill="none" stroke="black" d="M88.33,-219.17C80.79,-209.39 70.52,-196.08 61.87,-184.87"/>
<polygon fill="black" stroke="black" points="64.53,-182.58 55.65,-176.8 58.98,-186.86 64.53,-182.58"/>
</g>
<!-- 5 -->
<!-- 2&#45;&gt;5 -->
<g id="edge4" class="edge">
<title>2&#45;&gt;5</title>
<path fill="none" stroke="black" d="M99,-215.7C99,-207.98 99,-198.71 99,-190.11"/>
<polygon fill="black" stroke="black" points="102.5,-190.1 99,-180.1 95.5,-190.1 102.5,-190.1"/>
</g>
<!-- 6 -->
<g id="node6" class="node">
<title>6</title>
<ellipse fill="#b2dfee" stroke="#b2dfee" cx="153" cy="-162" rx="18" ry="18"/>
<text text-anchor="middle" x="153" y="-158.9" font-family="times bold" font-size="12.00">8</text>
</g>
<!-- 3&#45;&gt;6 -->
<g id="edge5" class="edge">
<title>3&#45;&gt;6</title>
<path fill="none" stroke="black" d="M153,-215.7C153,-207.98 153,-198.71 153,-190.11"/>
<polygon fill="black" stroke="black" points="156.5,-190.1 153,-180.1 149.5,-190.1 156.5,-190.1"/>
</g>
<!-- 7 -->
<!-- 3&#45;&gt;7 -->
<g id="edge6" class="edge">
<title>3&#45;&gt;7</title>
<path fill="none" stroke="black" d="M163.67,-219.17C171.21,-209.39 181.48,-196.08 190.13,-184.87"/>
<polygon fill="black" stroke="black" points="193.02,-186.86 196.35,-176.8 187.47,-182.58 193.02,-186.86"/>
</g>
<!-- 8 -->
<!-- 4&#45;&gt;8 -->
<g id="edge7" class="edge">
<title>4&#45;&gt;8</title>
<path fill="none" stroke="black" d="M38.74,-144.76C35.5,-136.37 31.47,-125.93 27.83,-116.5"/>
<polygon fill="black" stroke="black" points="31.09,-115.22 24.23,-107.15 24.56,-117.74 31.09,-115.22"/>
</g>
<!-- 9 -->
<g id="node9" class="node">
<title>9</title>
<ellipse fill="#b2dfee" stroke="#b2dfee" cx="72" cy="-90" rx="18" ry="18"/>
<text text-anchor="middle" x="72" y="-86.9" font-family="times bold" font-size="12.00">1</text>
</g>
<!-- 4&#45;&gt;9 -->
<g id="edge8" class="edge">
<title>4&#45;&gt;9</title>
<path fill="none" stroke="black" d="M51.26,-144.76C54.5,-136.37 58.53,-125.93 62.17,-116.5"/>
<polygon fill="black" stroke="black" points="65.44,-117.74 65.77,-107.15 58.91,-115.22 65.44,-117.74"/>
</g>
<!-- 10 -->
<g id="node10" class="node">
<title>10</title>
<ellipse fill="#b2dfee" stroke="#b2dfee" cx="139" cy="-90" rx="18" ry="18"/>
<text text-anchor="middle" x="139" y="-86.9" font-family="times bold" font-size="12.00">6</text>
</g>
<!-- 6&#45;&gt;10 -->
<g id="edge9" class="edge">
<title>6&#45;&gt;10</title>
<path fill="none" stroke="black" d="M149.61,-144.05C148.03,-136.14 146.11,-126.54 144.34,-117.69"/>
<polygon fill="black" stroke="black" points="147.75,-116.91 142.36,-107.79 140.89,-118.28 147.75,-116.91"/>
</g>
<!-- 11 -->
<g id="node11" class="node">
<title>11</title>
<ellipse fill="#b2dfee" stroke="#b2dfee" cx="193" cy="-90" rx="18" ry="18"/>
<text text-anchor="middle" x="193" y="-86.9" font-family="times bold" font-size="12.00">9</text>
</g>
<!-- 6&#45;&gt;11 -->
<g id="edge10" class="edge">
<title>6&#45;&gt;11</title>
<path fill="none" stroke="black" d="M161.68,-145.81C166.82,-136.82 173.44,-125.23 179.27,-115.03"/>
<polygon fill="black" stroke="black" points="182.41,-116.58 184.34,-106.16 176.34,-113.11 182.41,-116.58"/>
</g>
<!-- 12 -->
<g id="node12" class="node">
<title>12</title>
<ellipse fill="#b2dfee" stroke="#b2dfee" cx="112" cy="-18" rx="18" ry="18"/>
<text text-anchor="middle" x="112" y="-14.9" font-family="times bold" font-size="12.00">5</text>
</g>
<!-- 10&#45;&gt;12 -->
<g id="edge11" class="edge">
<title>10&#45;&gt;12</title>
<path fill="none" stroke="black" d="M132.74,-72.76C129.5,-64.37 125.47,-53.93 121.83,-44.5"/>
<polygon fill="black" stroke="black" points="125.09,-43.22 118.23,-35.15 118.56,-45.74 125.09,-43.22"/>
</g>
<!-- 13 -->
<g id="node13" class="node">
<title>13</title>
<ellipse fill="#b2dfee" stroke="#b2dfee" cx="166" cy="-18" rx="18" ry="18"/>
<text text-anchor="middle" x="166" y="-14.9" font-family="times bold" font-size="12.00">7</text>
</g>
<!-- 10&#45;&gt;13 -->
<g id="edge12" class="edge">
<title>10&#45;&gt;13</title>
<path fill="none" stroke="black" d="M145.26,-72.76C148.5,-64.37 152.53,-53.93 156.17,-44.5"/>
<polygon fill="black" stroke="black" points="159.44,-45.74 159.77,-35.15 152.91,-43.22 159.44,-45.74"/>
</g>
</g>
</svg>
