<?xml version="1.0" encoding="UTF-8" standalone="no"?>
<!DOCTYPE svg PUBLIC "-//W3C//DTD SVG 1.1//EN"
 "http://www.w3.org/Graphics/SVG/1.1/DTD/svg11.dtd">
<!-- Generated by graphviz version 2.43.0 (0)
 -->
<!-- Title: G Pages: 1 -->
<svg width="118pt" height="228pt"
 viewBox="0.00 0.00 117.60 227.60" xmlns="http://www.w3.org/2000/svg" xmlns:xlink="http://www.w3.org/1999/xlink">
<g id="graph0" class="graph" transform="scale(1 1) rotate(0) translate(4 223.6)">
<title>G</title>
<polygon fill="#ffffff" fill-opacity="0.003922" stroke="transparent" points="-4,4 -4,-223.6 113.6,-223.6 113.6,4 -4,4"/>
<!-- 1 -->
<g id="node1" class="node">
<title>1</title>
<ellipse fill="#b2dfee" stroke="#b2dfee" cx="62.8" cy="-201.6" rx="18" ry="18"/>
<text text-anchor="middle" x="62.8" y="-198.5" font-family="times bold" font-size="12.00">A</text>
</g>
<!-- 2 -->
<g id="node3" class="node">
<title>2</title>
<ellipse fill="#b2dfee" stroke="#b2dfee" cx="35.8" cy="-129.6" rx="18" ry="18"/>
<text text-anchor="middle" x="35.8" y="-126.5" font-family="times bold" font-size="12.00">B</text>
</g>
<!-- 1&#45;&gt;2 -->
<g id="edge1" class="edge">
<title>1&#45;&gt;2</title>
<path fill="none" stroke="black" d="M56.54,-184.36C53.3,-175.97 49.27,-165.53 45.63,-156.1"/>
<polygon fill="black" stroke="black" points="48.89,-154.82 42.03,-146.75 42.36,-157.34 48.89,-154.82"/>
</g>
<!-- 3 -->
<g id="node4" class="node">
<title>3</title>
<ellipse fill="#b2dfee" stroke="#b2dfee" cx="89.8" cy="-129.6" rx="18" ry="18"/>
<text text-anchor="middle" x="89.8" y="-126.5" font-family="times bold" font-size="12.00">D</text>
</g>
<!-- 1&#45;&gt;3 -->
<g id="edge2" class="edge">
<title>1&#45;&gt;3</title>
<path fill="none" stroke="black" d="M69.06,-184.36C72.3,-175.97 76.33,-165.53 79.97,-156.1"/>
<polygon fill="black" stroke="black" points="83.24,-157.34 83.57,-146.75 76.71,-154.82 83.24,-157.34"/>
</g>
<!-- 5 -->
<g id="node2" class="node">
<title>5</title>
<ellipse fill="black" stroke="black" cx="1.8" cy="-57.6" rx="1.8" ry="1.8"/>
</g>
<!-- 2&#45;&gt;5 -->
<g id="edge4" class="edge">
<title>2&#45;&gt;5</title>
<path fill="none" stroke="black" d="M28.25,-113.06C21.66,-99.49 12.28,-80.18 6.64,-68.57"/>
<polygon fill="black" stroke="black" points="9.73,-66.92 2.21,-59.45 3.44,-69.98 9.73,-66.92"/>
</g>
<!-- 4 -->
<g id="node5" class="node">
<title>4</title>
<ellipse fill="#b2dfee" stroke="#b2dfee" cx="39.8" cy="-57.6" rx="18" ry="18"/>
<text text-anchor="middle" x="39.8" y="-54.5" font-family="times bold" font-size="12.00">C</text>
</g>
<!-- 2&#45;&gt;4 -->
<g id="edge3" class="edge">
<title>2&#45;&gt;4</title>
<path fill="none" stroke="black" d="M36.79,-111.3C37.23,-103.58 37.76,-94.31 38.25,-85.71"/>
<polygon fill="black" stroke="black" points="41.75,-85.89 38.82,-75.7 34.76,-85.49 41.75,-85.89"/>
</g>
<!-- 6 -->
<g id="node6" class="node">
<title>6</title>
<ellipse fill="black" stroke="black" cx="85.8" cy="-57.6" rx="1.8" ry="1.8"/>
</g>
<!-- 3&#45;&gt;6 -->
<g id="edge5" class="edge">
<title>3&#45;&gt;6</title>
<path fill="none" stroke="black" d="M88.81,-111.3C88.06,-98.23 87.06,-80.71 86.42,-69.53"/>
<polygon fill="black" stroke="black" points="89.91,-69.19 85.85,-59.41 82.92,-69.59 89.91,-69.19"/>
</g>
<!-- 7 -->
<g id="node7" class="node">
<title>7</title>
<ellipse fill="black" stroke="black" cx="107.8" cy="-57.6" rx="1.8" ry="1.8"/>
</g>
<!-- 3&#45;&gt;7 -->
<g id="edge6" class="edge">
<title>3&#45;&gt;7</title>
<path fill="none" stroke="black" d="M94.07,-112.01C97.46,-98.82 102.1,-80.75 105.03,-69.38"/>
<polygon fill="black" stroke="black" points="108.49,-69.98 107.59,-59.43 101.71,-68.24 108.49,-69.98"/>
</g>
<!-- 8 -->
<g id="node8" class="node">
<title>8</title>
<ellipse fill="black" stroke="black" cx="28.8" cy="-1.8" rx="1.8" ry="1.8"/>
</g>
<!-- 4&#45;&gt;8 -->
<g id="edge7" class="edge">
<title>4&#45;&gt;8</title>
<path fill="none" stroke="black" d="M36.38,-39.87C34.64,-31.34 32.57,-21.21 31.03,-13.7"/>
<polygon fill="black" stroke="black" points="34.43,-12.84 28.99,-3.75 27.57,-14.24 34.43,-12.84"/>
</g>
<!-- 9 -->
<g id="node9" class="node">
<title>9</title>
<ellipse fill="black" stroke="black" cx="50.8" cy="-1.8" rx="1.8" ry="1.8"/>
</g>
<!-- 4&#45;&gt;9 -->
<g id="edge8" class="edge">
<title>4&#45;&gt;9</title>
<path fill="none" stroke="black" d="M43.22,-39.87C44.96,-31.34 47.03,-21.21 48.57,-13.7"/>
<polygon fill="black" stroke="black" points="52.03,-14.24 50.61,-3.75 45.17,-12.84 52.03,-14.24"/>
</g>
</g>
</svg>
