<?xml version="1.0" encoding="UTF-8" standalone="no"?>
<!DOCTYPE svg PUBLIC "-//W3C//DTD SVG 1.1//EN"
 "http://www.w3.org/Graphics/SVG/1.1/DTD/svg11.dtd">
<!-- Generated by graphviz version 2.43.0 (0)
 -->
<!-- Title: G Pages: 1 -->
<svg width="52pt" height="162pt"
 viewBox="0.00 0.00 51.60 161.60" xmlns="http://www.w3.org/2000/svg" xmlns:xlink="http://www.w3.org/1999/xlink">
<g id="graph0" class="graph" transform="scale(1 1) rotate(0) translate(4 157.6)">
<title>G</title>
<polygon fill="#ffffff" fill-opacity="0.003922" stroke="transparent" points="-4,4 -4,-157.6 47.6,-157.6 47.6,4 -4,4"/>
<!-- 1 -->
<g id="node1" class="node">
<title>1</title>
<ellipse fill="#b2dfee" stroke="#b2dfee" cx="27.8" cy="-146.6" rx="7" ry="7"/>
</g>
<!-- 2 -->
<g id="node2" class="node">
<title>2</title>
<ellipse fill="#b2dfee" stroke="#b2dfee" cx="14.8" cy="-96.6" rx="7" ry="7"/>
</g>
<!-- 1&#45;&gt;2 -->
<g id="edge1" class="edge">
<title>1&#45;&gt;2</title>
<path fill="none" stroke="black" d="M26.21,-139.71C24.43,-133.16 21.49,-122.31 19.04,-113.26"/>
<polygon fill="black" stroke="black" points="22.4,-112.27 16.41,-103.53 15.64,-114.1 22.4,-112.27"/>
</g>
<!-- 7 -->
<g id="node7" class="node">
<title>7</title>
<ellipse fill="black" stroke="black" cx="41.8" cy="-96.6" rx="1.8" ry="1.8"/>
</g>
<!-- 1&#45;&gt;7 -->
<g id="edge2" class="edge">
<title>1&#45;&gt;7</title>
<path fill="none" stroke="black" d="M29.52,-139.71C31.77,-132 35.75,-118.33 38.57,-108.66"/>
<polygon fill="black" stroke="black" points="41.99,-109.46 41.43,-98.88 35.27,-107.5 41.99,-109.46"/>
</g>
<!-- 4 -->
<g id="node3" class="node">
<title>4</title>
<ellipse fill="black" stroke="black" cx="1.8" cy="-46.6" rx="1.8" ry="1.8"/>
</g>
<!-- 2&#45;&gt;4 -->
<g id="edge3" class="edge">
<title>2&#45;&gt;4</title>
<path fill="none" stroke="black" d="M13.21,-89.71C11.12,-82 7.41,-68.33 4.79,-58.66"/>
<polygon fill="black" stroke="black" points="8.14,-57.62 2.15,-48.88 1.38,-59.45 8.14,-57.62"/>
</g>
<!-- 3 -->
<g id="node4" class="node">
<title>3</title>
<ellipse fill="#b2dfee" stroke="#b2dfee" cx="28.8" cy="-46.6" rx="7" ry="7"/>
</g>
<!-- 2&#45;&gt;3 -->
<g id="edge4" class="edge">
<title>2&#45;&gt;3</title>
<path fill="none" stroke="black" d="M16.52,-89.71C18.43,-83.16 21.59,-72.31 24.23,-63.26"/>
<polygon fill="black" stroke="black" points="27.63,-64.11 27.07,-53.53 20.91,-62.15 27.63,-64.11"/>
</g>
<!-- 5 -->
<g id="node5" class="node">
<title>5</title>
<ellipse fill="black" stroke="black" cx="17.8" cy="-1.8" rx="1.8" ry="1.8"/>
</g>
<!-- 3&#45;&gt;5 -->
<g id="edge5" class="edge">
<title>3&#45;&gt;5</title>
<path fill="none" stroke="black" d="M27.27,-39.65C25.56,-32.98 22.74,-22.01 20.62,-13.78"/>
<polygon fill="black" stroke="black" points="23.96,-12.71 18.08,-3.9 17.18,-14.46 23.96,-12.71"/>
</g>
<!-- 6 -->
<g id="node6" class="node">
<title>6</title>
<ellipse fill="black" stroke="black" cx="39.8" cy="-1.8" rx="1.8" ry="1.8"/>
</g>
<!-- 3&#45;&gt;6 -->
<g id="edge6" class="edge">
<title>3&#45;&gt;6</title>
<path fill="none" stroke="black" d="M30.33,-39.65C32.04,-32.98 34.86,-22.01 36.98,-13.78"/>
<polygon fill="black" stroke="black" points="40.42,-14.46 39.52,-3.9 33.64,-12.71 40.42,-14.46"/>
</g>
</g>
</svg>
