<?xml version="1.0" encoding="UTF-8" standalone="no"?>
<!DOCTYPE svg PUBLIC "-//W3C//DTD SVG 1.1//EN"
 "http://www.w3.org/Graphics/SVG/1.1/DTD/svg11.dtd">
<!-- Generated by graphviz version 2.43.0 (0)
 -->
<!-- Title: G Pages: 1 -->
<svg width="83pt" height="112pt"
 viewBox="0.00 0.00 82.60 111.60" xmlns="http://www.w3.org/2000/svg" xmlns:xlink="http://www.w3.org/1999/xlink">
<g id="graph0" class="graph" transform="scale(1 1) rotate(0) translate(4 107.6)">
<title>G</title>
<polygon fill="#ffffff" fill-opacity="0.003922" stroke="transparent" points="-4,4 -4,-107.6 78.6,-107.6 78.6,4 -4,4"/>
<!-- 1 -->
<g id="node1" class="node">
<title>1</title>
<ellipse fill="#b2dfee" stroke="#b2dfee" cx="36.8" cy="-96.6" rx="7" ry="7"/>
</g>
<!-- 2 -->
<g id="node2" class="node">
<title>2</title>
<ellipse fill="#b2dfee" stroke="#b2dfee" cx="20.8" cy="-46.6" rx="7" ry="7"/>
</g>
<!-- 1&#45;&gt;2 -->
<g id="edge1" class="edge">
<title>1&#45;&gt;2</title>
<path fill="none" stroke="black" d="M34.84,-89.71C32.65,-83.16 29.04,-72.31 26.02,-63.26"/>
<polygon fill="black" stroke="black" points="29.26,-61.91 22.78,-53.53 22.62,-64.13 29.26,-61.91"/>
</g>
<!-- 3 -->
<g id="node3" class="node">
<title>3</title>
<ellipse fill="#b2dfee" stroke="#b2dfee" cx="52.8" cy="-46.6" rx="7" ry="7"/>
</g>
<!-- 1&#45;&gt;3 -->
<g id="edge2" class="edge">
<title>1&#45;&gt;3</title>
<path fill="none" stroke="black" d="M38.76,-89.71C40.95,-83.16 44.56,-72.31 47.58,-63.26"/>
<polygon fill="black" stroke="black" points="50.98,-64.13 50.82,-53.53 44.34,-61.91 50.98,-64.13"/>
</g>
<!-- 4 -->
<g id="node4" class="node">
<title>4</title>
<ellipse fill="black" stroke="black" cx="1.8" cy="-1.8" rx="1.8" ry="1.8"/>
</g>
<!-- 2&#45;&gt;4 -->
<g id="edge3" class="edge">
<title>2&#45;&gt;4</title>
<path fill="none" stroke="black" d="M18.32,-40C15.29,-33.18 10.11,-21.52 6.36,-13.07"/>
<polygon fill="black" stroke="black" points="9.55,-11.64 2.3,-3.92 3.16,-14.48 9.55,-11.64"/>
</g>
<!-- 5 -->
<g id="node5" class="node">
<title>5</title>
<ellipse fill="black" stroke="black" cx="23.8" cy="-1.8" rx="1.8" ry="1.8"/>
</g>
<!-- 2&#45;&gt;5 -->
<g id="edge4" class="edge">
<title>2&#45;&gt;5</title>
<path fill="none" stroke="black" d="M21.24,-39.28C21.71,-32.61 22.46,-21.96 23.02,-13.88"/>
<polygon fill="black" stroke="black" points="26.52,-14.1 23.72,-3.88 19.53,-13.61 26.52,-14.1"/>
</g>
<!-- 6 -->
<g id="node6" class="node">
<title>6</title>
<ellipse fill="black" stroke="black" cx="50.8" cy="-1.8" rx="1.8" ry="1.8"/>
</g>
<!-- 3&#45;&gt;6 -->
<g id="edge5" class="edge">
<title>3&#45;&gt;6</title>
<path fill="none" stroke="black" d="M52.5,-39.28C52.19,-32.61 51.7,-21.96 51.32,-13.88"/>
<polygon fill="black" stroke="black" points="54.81,-13.71 50.85,-3.88 47.82,-14.03 54.81,-13.71"/>
</g>
<!-- 7 -->
<g id="node7" class="node">
<title>7</title>
<ellipse fill="black" stroke="black" cx="72.8" cy="-1.8" rx="1.8" ry="1.8"/>
</g>
<!-- 3&#45;&gt;7 -->
<g id="edge6" class="edge">
<title>3&#45;&gt;7</title>
<path fill="none" stroke="black" d="M55.41,-40C58.6,-33.18 64.05,-21.52 68,-13.07"/>
<polygon fill="black" stroke="black" points="71.21,-14.46 72.28,-3.92 64.87,-11.5 71.21,-14.46"/>
</g>
</g>
</svg>
