<?xml version="1.0" encoding="UTF-8" standalone="no"?>
<!DOCTYPE svg PUBLIC "-//W3C//DTD SVG 1.1//EN"
 "http://www.w3.org/Graphics/SVG/1.1/DTD/svg11.dtd">
<!-- Generated by graphviz version 2.43.0 (0)
 -->
<!-- Title: G Pages: 1 -->
<svg width="77pt" height="212pt"
 viewBox="0.00 0.00 76.60 211.60" xmlns="http://www.w3.org/2000/svg" xmlns:xlink="http://www.w3.org/1999/xlink">
<g id="graph0" class="graph" transform="scale(1 1) rotate(0) translate(4 207.6)">
<title>G</title>
<polygon fill="#ffffff" fill-opacity="0.003922" stroke="transparent" points="-4,4 -4,-207.6 72.6,-207.6 72.6,4 -4,4"/>
<!-- 5 -->
<g id="node1" class="node">
<title>5</title>
<ellipse fill="black" stroke="black" cx="1.8" cy="-146.6" rx="1.8" ry="1.8"/>
</g>
<!-- 1 -->
<g id="node2" class="node">
<title>1</title>
<ellipse fill="#b2dfee" stroke="#b2dfee" cx="14.8" cy="-196.6" rx="7" ry="7"/>
</g>
<!-- 1&#45;&gt;5 -->
<g id="edge2" class="edge">
<title>1&#45;&gt;5</title>
<path fill="none" stroke="black" d="M13.21,-189.71C11.12,-182 7.41,-168.33 4.79,-158.66"/>
<polygon fill="black" stroke="black" points="8.14,-157.62 2.15,-148.88 1.38,-159.45 8.14,-157.62"/>
</g>
<!-- 2 -->
<g id="node4" class="node">
<title>2</title>
<ellipse fill="#b2dfee" stroke="#b2dfee" cx="28.8" cy="-146.6" rx="7" ry="7"/>
</g>
<!-- 1&#45;&gt;2 -->
<g id="edge1" class="edge">
<title>1&#45;&gt;2</title>
<path fill="none" stroke="black" d="M16.52,-189.71C18.43,-183.16 21.59,-172.31 24.23,-163.26"/>
<polygon fill="black" stroke="black" points="27.63,-164.11 27.07,-153.53 20.91,-162.15 27.63,-164.11"/>
</g>
<!-- 6 -->
<g id="node3" class="node">
<title>6</title>
<ellipse fill="black" stroke="black" cx="15.8" cy="-96.6" rx="1.8" ry="1.8"/>
</g>
<!-- 2&#45;&gt;6 -->
<g id="edge3" class="edge">
<title>2&#45;&gt;6</title>
<path fill="none" stroke="black" d="M27.21,-139.71C25.12,-132 21.41,-118.33 18.79,-108.66"/>
<polygon fill="black" stroke="black" points="22.14,-107.62 16.15,-98.88 15.38,-109.45 22.14,-107.62"/>
</g>
<!-- 3 -->
<g id="node6" class="node">
<title>3</title>
<ellipse fill="#b2dfee" stroke="#b2dfee" cx="42.8" cy="-96.6" rx="7" ry="7"/>
</g>
<!-- 2&#45;&gt;3 -->
<g id="edge4" class="edge">
<title>2&#45;&gt;3</title>
<path fill="none" stroke="black" d="M30.52,-139.71C32.43,-133.16 35.59,-122.31 38.23,-113.26"/>
<polygon fill="black" stroke="black" points="41.63,-114.11 41.07,-103.53 34.91,-112.15 41.63,-114.11"/>
</g>
<!-- 7 -->
<g id="node5" class="node">
<title>7</title>
<ellipse fill="black" stroke="black" cx="28.8" cy="-46.6" rx="1.8" ry="1.8"/>
</g>
<!-- 3&#45;&gt;7 -->
<g id="edge6" class="edge">
<title>3&#45;&gt;7</title>
<path fill="none" stroke="black" d="M41.08,-89.71C38.83,-82 34.85,-68.33 32.03,-58.66"/>
<polygon fill="black" stroke="black" points="35.33,-57.5 29.17,-48.88 28.61,-59.46 35.33,-57.5"/>
</g>
<!-- 4 -->
<g id="node7" class="node">
<title>4</title>
<ellipse fill="#b2dfee" stroke="#b2dfee" cx="55.8" cy="-46.6" rx="7" ry="7"/>
</g>
<!-- 3&#45;&gt;4 -->
<g id="edge5" class="edge">
<title>3&#45;&gt;4</title>
<path fill="none" stroke="black" d="M44.39,-89.71C46.17,-83.16 49.11,-72.31 51.56,-63.26"/>
<polygon fill="black" stroke="black" points="54.96,-64.1 54.19,-53.53 48.2,-62.27 54.96,-64.1"/>
</g>
<!-- 8 -->
<g id="node8" class="node">
<title>8</title>
<ellipse fill="black" stroke="black" cx="44.8" cy="-1.8" rx="1.8" ry="1.8"/>
</g>
<!-- 4&#45;&gt;8 -->
<g id="edge7" class="edge">
<title>4&#45;&gt;8</title>
<path fill="none" stroke="black" d="M54.27,-39.65C52.56,-32.98 49.74,-22.01 47.62,-13.78"/>
<polygon fill="black" stroke="black" points="50.96,-12.71 45.08,-3.9 44.18,-14.46 50.96,-12.71"/>
</g>
<!-- 9 -->
<g id="node9" class="node">
<title>9</title>
<ellipse fill="black" stroke="black" cx="66.8" cy="-1.8" rx="1.8" ry="1.8"/>
</g>
<!-- 4&#45;&gt;9 -->
<g id="edge8" class="edge">
<title>4&#45;&gt;9</title>
<path fill="none" stroke="black" d="M57.33,-39.65C59.04,-32.98 61.86,-22.01 63.98,-13.78"/>
<polygon fill="black" stroke="black" points="67.42,-14.46 66.52,-3.9 60.64,-12.71 67.42,-14.46"/>
</g>
</g>
</svg>
