<?xml version="1.0" encoding="UTF-8" standalone="no"?>
<!DOCTYPE svg PUBLIC "-//W3C//DTD SVG 1.1//EN"
 "http://www.w3.org/Graphics/SVG/1.1/DTD/svg11.dtd">
<!-- Generated by graphviz version 2.43.0 (0)
 -->
<!-- Title: G Pages: 1 -->
<svg width="63pt" height="162pt"
 viewBox="0.00 0.00 62.60 161.60" xmlns="http://www.w3.org/2000/svg" xmlns:xlink="http://www.w3.org/1999/xlink">
<g id="graph0" class="graph" transform="scale(1 1) rotate(0) translate(4 157.6)">
<title>G</title>
<polygon fill="#ffffff" fill-opacity="0.003922" stroke="transparent" points="-4,4 -4,-157.6 58.6,-157.6 58.6,4 -4,4"/>
<!-- 1 -->
<g id="node1" class="node">
<title>1</title>
<ellipse fill="#b2dfee" stroke="#b2dfee" cx="38.8" cy="-146.6" rx="7" ry="7"/>
</g>
<!-- 2 -->
<g id="node2" class="node">
<title>2</title>
<ellipse fill="#b2dfee" stroke="#b2dfee" cx="25.8" cy="-96.6" rx="7" ry="7"/>
</g>
<!-- 1&#45;&gt;2 -->
<g id="edge1" class="edge">
<title>1&#45;&gt;2</title>
<path fill="none" stroke="black" d="M37.21,-139.71C35.43,-133.16 32.49,-122.31 30.04,-113.26"/>
<polygon fill="black" stroke="black" points="33.4,-112.27 27.41,-103.53 26.64,-114.1 33.4,-112.27"/>
</g>
<!-- 7 -->
<g id="node7" class="node">
<title>7</title>
<ellipse fill="black" stroke="black" cx="52.8" cy="-96.6" rx="1.8" ry="1.8"/>
</g>
<!-- 1&#45;&gt;7 -->
<g id="edge2" class="edge">
<title>1&#45;&gt;7</title>
<path fill="none" stroke="black" d="M40.52,-139.71C42.77,-132 46.75,-118.33 49.57,-108.66"/>
<polygon fill="black" stroke="black" points="52.99,-109.46 52.43,-98.88 46.27,-107.5 52.99,-109.46"/>
</g>
<!-- 3 -->
<g id="node3" class="node">
<title>3</title>
<ellipse fill="#b2dfee" stroke="#b2dfee" cx="12.8" cy="-46.6" rx="7" ry="7"/>
</g>
<!-- 2&#45;&gt;3 -->
<g id="edge3" class="edge">
<title>2&#45;&gt;3</title>
<path fill="none" stroke="black" d="M24.21,-89.71C22.43,-83.16 19.49,-72.31 17.04,-63.26"/>
<polygon fill="black" stroke="black" points="20.4,-62.27 14.41,-53.53 13.64,-64.1 20.4,-62.27"/>
</g>
<!-- 6 -->
<g id="node6" class="node">
<title>6</title>
<ellipse fill="black" stroke="black" cx="39.8" cy="-46.6" rx="1.8" ry="1.8"/>
</g>
<!-- 2&#45;&gt;6 -->
<g id="edge4" class="edge">
<title>2&#45;&gt;6</title>
<path fill="none" stroke="black" d="M27.52,-89.71C29.77,-82 33.75,-68.33 36.57,-58.66"/>
<polygon fill="black" stroke="black" points="39.99,-59.46 39.43,-48.88 33.27,-57.5 39.99,-59.46"/>
</g>
<!-- 4 -->
<g id="node4" class="node">
<title>4</title>
<ellipse fill="black" stroke="black" cx="1.8" cy="-1.8" rx="1.8" ry="1.8"/>
</g>
<!-- 3&#45;&gt;4 -->
<g id="edge5" class="edge">
<title>3&#45;&gt;4</title>
<path fill="none" stroke="black" d="M11.27,-39.65C9.56,-32.98 6.74,-22.01 4.62,-13.78"/>
<polygon fill="black" stroke="black" points="7.96,-12.71 2.08,-3.9 1.18,-14.46 7.96,-12.71"/>
</g>
<!-- 5 -->
<g id="node5" class="node">
<title>5</title>
<ellipse fill="black" stroke="black" cx="23.8" cy="-1.8" rx="1.8" ry="1.8"/>
</g>
<!-- 3&#45;&gt;5 -->
<g id="edge6" class="edge">
<title>3&#45;&gt;5</title>
<path fill="none" stroke="black" d="M14.33,-39.65C16.04,-32.98 18.86,-22.01 20.98,-13.78"/>
<polygon fill="black" stroke="black" points="24.42,-14.46 23.52,-3.9 17.64,-12.71 24.42,-14.46"/>
</g>
</g>
</svg>
