<?xml version="1.0" encoding="UTF-8" standalone="no"?>
<!DOCTYPE svg PUBLIC "-//W3C//DTD SVG 1.1//EN"
 "http://www.w3.org/Graphics/SVG/1.1/DTD/svg11.dtd">
<!-- Generated by graphviz version 2.43.0 (0)
 -->
<!-- Title: G Pages: 1 -->
<svg width="166pt" height="162pt"
 viewBox="0.00 0.00 165.60 161.60" xmlns="http://www.w3.org/2000/svg" xmlns:xlink="http://www.w3.org/1999/xlink">
<g id="graph0" class="graph" transform="scale(1 1) rotate(0) translate(4 157.6)">
<title>G</title>
<polygon fill="#ffffff" fill-opacity="0.003922" stroke="transparent" points="-4,4 -4,-157.6 161.6,-157.6 161.6,4 -4,4"/>
<!-- 1 -->
<g id="node1" class="node">
<title>1</title>
<ellipse fill="#b2dfee" stroke="#b2dfee" cx="73.8" cy="-146.6" rx="7" ry="7"/>
</g>
<!-- 2 -->
<g id="node2" class="node">
<title>2</title>
<ellipse fill="#b2dfee" stroke="#b2dfee" cx="56.8" cy="-96.6" rx="7" ry="7"/>
</g>
<!-- 1&#45;&gt;2 -->
<g id="edge1" class="edge">
<title>1&#45;&gt;2</title>
<path fill="none" stroke="black" d="M71.72,-139.71C69.37,-133.09 65.47,-122.07 62.24,-112.97"/>
<polygon fill="black" stroke="black" points="65.54,-111.79 58.9,-103.53 58.94,-114.13 65.54,-111.79"/>
</g>
<!-- 3 -->
<g id="node3" class="node">
<title>3</title>
<ellipse fill="#b2dfee" stroke="#b2dfee" cx="95.8" cy="-96.6" rx="7" ry="7"/>
</g>
<!-- 1&#45;&gt;3 -->
<g id="edge2" class="edge">
<title>1&#45;&gt;3</title>
<path fill="none" stroke="black" d="M76.5,-139.71C79.6,-132.95 84.8,-121.59 89.03,-112.37"/>
<polygon fill="black" stroke="black" points="92.23,-113.78 93.22,-103.24 85.87,-110.87 92.23,-113.78"/>
</g>
<!-- 4 -->
<g id="node4" class="node">
<title>4</title>
<ellipse fill="#b2dfee" stroke="#b2dfee" cx="23.8" cy="-46.6" rx="7" ry="7"/>
</g>
<!-- 2&#45;&gt;4 -->
<g id="edge3" class="edge">
<title>2&#45;&gt;4</title>
<path fill="none" stroke="black" d="M53.27,-90.46C48.53,-83.57 39.94,-71.07 33.25,-61.34"/>
<polygon fill="black" stroke="black" points="35.96,-59.1 27.41,-52.85 30.19,-63.07 35.96,-59.1"/>
</g>
<!-- 5 -->
<g id="node5" class="node">
<title>5</title>
<ellipse fill="#b2dfee" stroke="#b2dfee" cx="56.8" cy="-46.6" rx="7" ry="7"/>
</g>
<!-- 2&#45;&gt;5 -->
<g id="edge4" class="edge">
<title>2&#45;&gt;5</title>
<path fill="none" stroke="black" d="M56.8,-89.32C56.8,-82.89 56.8,-72.62 56.8,-63.88"/>
<polygon fill="black" stroke="black" points="60.3,-63.72 56.8,-53.72 53.3,-63.72 60.3,-63.72"/>
</g>
<!-- 6 -->
<g id="node6" class="node">
<title>6</title>
<ellipse fill="#b2dfee" stroke="#b2dfee" cx="95.8" cy="-46.6" rx="7" ry="7"/>
</g>
<!-- 3&#45;&gt;6 -->
<g id="edge5" class="edge">
<title>3&#45;&gt;6</title>
<path fill="none" stroke="black" d="M95.8,-89.32C95.8,-82.89 95.8,-72.62 95.8,-63.88"/>
<polygon fill="black" stroke="black" points="99.3,-63.72 95.8,-53.72 92.3,-63.72 99.3,-63.72"/>
</g>
<!-- 7 -->
<g id="node7" class="node">
<title>7</title>
<ellipse fill="#b2dfee" stroke="#b2dfee" cx="133.8" cy="-46.6" rx="7" ry="7"/>
</g>
<!-- 3&#45;&gt;7 -->
<g id="edge6" class="edge">
<title>3&#45;&gt;7</title>
<path fill="none" stroke="black" d="M99.87,-90.46C105.5,-83.35 115.85,-70.28 123.64,-60.43"/>
<polygon fill="black" stroke="black" points="126.41,-62.57 129.88,-52.56 120.93,-58.22 126.41,-62.57"/>
</g>
<!-- 8 -->
<g id="node8" class="node">
<title>8</title>
<ellipse fill="black" stroke="black" cx="1.8" cy="-1.8" rx="1.8" ry="1.8"/>
</g>
<!-- 4&#45;&gt;8 -->
<g id="edge7" class="edge">
<title>4&#45;&gt;8</title>
<path fill="none" stroke="black" d="M20.92,-40C17.42,-33.18 11.42,-21.52 7.08,-13.07"/>
<polygon fill="black" stroke="black" points="10.06,-11.22 2.38,-3.92 3.84,-14.42 10.06,-11.22"/>
</g>
<!-- 9 -->
<g id="node9" class="node">
<title>9</title>
<ellipse fill="black" stroke="black" cx="23.8" cy="-1.8" rx="1.8" ry="1.8"/>
</g>
<!-- 4&#45;&gt;9 -->
<g id="edge8" class="edge">
<title>4&#45;&gt;9</title>
<path fill="none" stroke="black" d="M23.8,-39.28C23.8,-32.69 23.8,-22.21 23.8,-14.18"/>
<polygon fill="black" stroke="black" points="27.3,-13.88 23.8,-3.88 20.3,-13.88 27.3,-13.88"/>
</g>
<!-- 10 -->
<g id="node10" class="node">
<title>10</title>
<ellipse fill="black" stroke="black" cx="45.8" cy="-1.8" rx="1.8" ry="1.8"/>
</g>
<!-- 5&#45;&gt;10 -->
<g id="edge9" class="edge">
<title>5&#45;&gt;10</title>
<path fill="none" stroke="black" d="M55.27,-39.65C53.56,-32.98 50.74,-22.01 48.62,-13.78"/>
<polygon fill="black" stroke="black" points="51.96,-12.71 46.08,-3.9 45.18,-14.46 51.96,-12.71"/>
</g>
<!-- 11 -->
<g id="node11" class="node">
<title>11</title>
<ellipse fill="black" stroke="black" cx="67.8" cy="-1.8" rx="1.8" ry="1.8"/>
</g>
<!-- 5&#45;&gt;11 -->
<g id="edge10" class="edge">
<title>5&#45;&gt;11</title>
<path fill="none" stroke="black" d="M58.33,-39.65C60.04,-32.98 62.86,-22.01 64.98,-13.78"/>
<polygon fill="black" stroke="black" points="68.42,-14.46 67.52,-3.9 61.64,-12.71 68.42,-14.46"/>
</g>
<!-- 12 -->
<g id="node12" class="node">
<title>12</title>
<ellipse fill="black" stroke="black" cx="89.8" cy="-1.8" rx="1.8" ry="1.8"/>
</g>
<!-- 6&#45;&gt;12 -->
<g id="edge11" class="edge">
<title>6&#45;&gt;12</title>
<path fill="none" stroke="black" d="M94.97,-39.65C94.04,-33.06 92.53,-22.28 91.38,-14.07"/>
<polygon fill="black" stroke="black" points="94.81,-13.32 89.95,-3.9 87.88,-14.29 94.81,-13.32"/>
</g>
<!-- 13 -->
<g id="node13" class="node">
<title>13</title>
<ellipse fill="black" stroke="black" cx="111.8" cy="-1.8" rx="1.8" ry="1.8"/>
</g>
<!-- 6&#45;&gt;13 -->
<g id="edge12" class="edge">
<title>6&#45;&gt;13</title>
<path fill="none" stroke="black" d="M98.02,-39.65C100.55,-32.9 104.72,-21.75 107.81,-13.48"/>
<polygon fill="black" stroke="black" points="111.17,-14.49 111.39,-3.9 104.61,-12.04 111.17,-14.49"/>
</g>
<!-- 14 -->
<g id="node14" class="node">
<title>14</title>
<ellipse fill="black" stroke="black" cx="133.8" cy="-1.8" rx="1.8" ry="1.8"/>
</g>
<!-- 7&#45;&gt;14 -->
<g id="edge13" class="edge">
<title>7&#45;&gt;14</title>
<path fill="none" stroke="black" d="M133.8,-39.28C133.8,-32.69 133.8,-22.21 133.8,-14.18"/>
<polygon fill="black" stroke="black" points="137.3,-13.88 133.8,-3.88 130.3,-13.88 137.3,-13.88"/>
</g>
<!-- 15 -->
<g id="node15" class="node">
<title>15</title>
<ellipse fill="black" stroke="black" cx="155.8" cy="-1.8" rx="1.8" ry="1.8"/>
</g>
<!-- 7&#45;&gt;15 -->
<g id="edge14" class="edge">
<title>7&#45;&gt;15</title>
<path fill="none" stroke="black" d="M136.68,-40C140.18,-33.18 146.18,-21.52 150.52,-13.07"/>
<polygon fill="black" stroke="black" points="153.76,-14.42 155.22,-3.92 147.54,-11.22 153.76,-14.42"/>
</g>
</g>
</svg>
