<?xml version="1.0" encoding="UTF-8" standalone="no"?>
<!DOCTYPE svg PUBLIC "-//W3C//DTD SVG 1.1//EN"
 "http://www.w3.org/Graphics/SVG/1.1/DTD/svg11.dtd">
<!-- Generated by graphviz version 2.43.0 (0)
 -->
<!-- Title: G Pages: 1 -->
<svg width="69pt" height="228pt"
 viewBox="0.00 0.00 68.60 227.60" xmlns="http://www.w3.org/2000/svg" xmlns:xlink="http://www.w3.org/1999/xlink">
<g id="graph0" class="graph" transform="scale(1 1) rotate(0) translate(4 223.6)">
<title>G</title>
<polygon fill="#ffffff" fill-opacity="0.003922" stroke="transparent" points="-4,4 -4,-223.6 64.6,-223.6 64.6,4 -4,4"/>
<!-- 1 -->
<g id="node1" class="node">
<title>1</title>
<ellipse fill="#b2dfee" stroke="#b2dfee" cx="20.8" cy="-201.6" rx="18" ry="18"/>
<text text-anchor="middle" x="20.8" y="-198.5" font-family="times bold" font-size="12.00">1</text>
</g>
<!-- 4 -->
<g id="node2" class="node">
<title>4</title>
<ellipse fill="black" stroke="black" cx="1.8" cy="-129.6" rx="1.8" ry="1.8"/>
</g>
<!-- 1&#45;&gt;4 -->
<g id="edge1" class="edge">
<title>1&#45;&gt;4</title>
<path fill="none" stroke="black" d="M16.3,-184.01C12.72,-170.82 7.81,-152.75 4.73,-141.38"/>
<polygon fill="black" stroke="black" points="8.02,-140.16 2.02,-131.43 1.27,-141.99 8.02,-140.16"/>
</g>
<!-- 3 -->
<g id="node4" class="node">
<title>3</title>
<ellipse fill="#b2dfee" stroke="#b2dfee" cx="39.8" cy="-129.6" rx="18" ry="18"/>
<text text-anchor="middle" x="39.8" y="-126.5" font-family="times bold" font-size="12.00">3</text>
</g>
<!-- 1&#45;&gt;3 -->
<g id="edge2" class="edge">
<title>1&#45;&gt;3</title>
<path fill="none" stroke="black" d="M25.3,-184.01C27.5,-175.9 30.2,-165.95 32.68,-156.85"/>
<polygon fill="black" stroke="black" points="36.09,-157.64 35.33,-147.07 29.33,-155.8 36.09,-157.64"/>
</g>
<!-- 2 -->
<g id="node3" class="node">
<title>2</title>
<ellipse fill="#b2dfee" stroke="#b2dfee" cx="20.8" cy="-57.6" rx="18" ry="18"/>
<text text-anchor="middle" x="20.8" y="-54.5" font-family="times bold" font-size="12.00">2</text>
</g>
<!-- 6 -->
<g id="node6" class="node">
<title>6</title>
<ellipse fill="black" stroke="black" cx="9.8" cy="-1.8" rx="1.8" ry="1.8"/>
</g>
<!-- 2&#45;&gt;6 -->
<g id="edge5" class="edge">
<title>2&#45;&gt;6</title>
<path fill="none" stroke="black" d="M17.38,-39.87C15.64,-31.34 13.57,-21.21 12.03,-13.7"/>
<polygon fill="black" stroke="black" points="15.43,-12.84 9.99,-3.75 8.57,-14.24 15.43,-12.84"/>
</g>
<!-- 7 -->
<g id="node7" class="node">
<title>7</title>
<ellipse fill="black" stroke="black" cx="31.8" cy="-1.8" rx="1.8" ry="1.8"/>
</g>
<!-- 2&#45;&gt;7 -->
<g id="edge6" class="edge">
<title>2&#45;&gt;7</title>
<path fill="none" stroke="black" d="M24.22,-39.87C25.96,-31.34 28.03,-21.21 29.57,-13.7"/>
<polygon fill="black" stroke="black" points="33.03,-14.24 31.61,-3.75 26.17,-12.84 33.03,-14.24"/>
</g>
<!-- 3&#45;&gt;2 -->
<g id="edge3" class="edge">
<title>3&#45;&gt;2</title>
<path fill="none" stroke="black" d="M35.3,-112.01C33.1,-103.9 30.4,-93.95 27.92,-84.85"/>
<polygon fill="black" stroke="black" points="31.27,-83.8 25.27,-75.07 24.51,-85.64 31.27,-83.8"/>
</g>
<!-- 5 -->
<g id="node5" class="node">
<title>5</title>
<ellipse fill="black" stroke="black" cx="58.8" cy="-57.6" rx="1.8" ry="1.8"/>
</g>
<!-- 3&#45;&gt;5 -->
<g id="edge4" class="edge">
<title>3&#45;&gt;5</title>
<path fill="none" stroke="black" d="M44.3,-112.01C47.88,-98.82 52.79,-80.75 55.87,-69.38"/>
<polygon fill="black" stroke="black" points="59.33,-69.99 58.58,-59.43 52.58,-68.16 59.33,-69.99"/>
</g>
</g>
</svg>
