<?xml version="1.0" encoding="UTF-8" standalone="no"?>
<!DOCTYPE svg PUBLIC "-//W3C//DTD SVG 1.1//EN"
 "http://www.w3.org/Graphics/SVG/1.1/DTD/svg11.dtd">
<!-- Generated by graphviz version 2.43.0 (0)
 -->
<!-- Title: G Pages: 1 -->
<svg width="52pt" height="162pt"
 viewBox="0.00 0.00 51.60 161.60" xmlns="http://www.w3.org/2000/svg" xmlns:xlink="http://www.w3.org/1999/xlink">
<g id="graph0" class="graph" transform="scale(1 1) rotate(0) translate(4 157.6)">
<title>G</title>
<polygon fill="#ffffff" fill-opacity="0.003922" stroke="transparent" points="-4,4 -4,-157.6 47.6,-157.6 47.6,4 -4,4"/>
<!-- 1 -->
<g id="node1" class="node">
<title>1</title>
<ellipse fill="#b2dfee" stroke="#b2dfee" cx="14.8" cy="-146.6" rx="7" ry="7"/>
</g>
<!-- 4 -->
<g id="node2" class="node">
<title>4</title>
<ellipse fill="black" stroke="black" cx="1.8" cy="-96.6" rx="1.8" ry="1.8"/>
</g>
<!-- 1&#45;&gt;4 -->
<g id="edge1" class="edge">
<title>1&#45;&gt;4</title>
<path fill="none" stroke="black" d="M13.21,-139.71C11.12,-132 7.41,-118.33 4.79,-108.66"/>
<polygon fill="black" stroke="black" points="8.14,-107.62 2.15,-98.88 1.38,-109.45 8.14,-107.62"/>
</g>
<!-- 2 -->
<g id="node3" class="node">
<title>2</title>
<ellipse fill="#b2dfee" stroke="#b2dfee" cx="28.8" cy="-96.6" rx="7" ry="7"/>
</g>
<!-- 1&#45;&gt;2 -->
<g id="edge2" class="edge">
<title>1&#45;&gt;2</title>
<path fill="none" stroke="black" d="M16.52,-139.71C18.43,-133.16 21.59,-122.31 24.23,-113.26"/>
<polygon fill="black" stroke="black" points="27.63,-114.11 27.07,-103.53 20.91,-112.15 27.63,-114.11"/>
</g>
<!-- 3 -->
<g id="node4" class="node">
<title>3</title>
<ellipse fill="#b2dfee" stroke="#b2dfee" cx="14.8" cy="-46.6" rx="7" ry="7"/>
</g>
<!-- 2&#45;&gt;3 -->
<g id="edge3" class="edge">
<title>2&#45;&gt;3</title>
<path fill="none" stroke="black" d="M27.08,-89.71C25.17,-83.16 22.01,-72.31 19.37,-63.26"/>
<polygon fill="black" stroke="black" points="22.69,-62.15 16.53,-53.53 15.97,-64.11 22.69,-62.15"/>
</g>
<!-- 5 -->
<g id="node5" class="node">
<title>5</title>
<ellipse fill="black" stroke="black" cx="41.8" cy="-46.6" rx="1.8" ry="1.8"/>
</g>
<!-- 2&#45;&gt;5 -->
<g id="edge4" class="edge">
<title>2&#45;&gt;5</title>
<path fill="none" stroke="black" d="M30.39,-89.71C32.48,-82 36.19,-68.33 38.81,-58.66"/>
<polygon fill="black" stroke="black" points="42.22,-59.45 41.45,-48.88 35.46,-57.62 42.22,-59.45"/>
</g>
<!-- 6 -->
<g id="node6" class="node">
<title>6</title>
<ellipse fill="black" stroke="black" cx="3.8" cy="-1.8" rx="1.8" ry="1.8"/>
</g>
<!-- 3&#45;&gt;6 -->
<g id="edge5" class="edge">
<title>3&#45;&gt;6</title>
<path fill="none" stroke="black" d="M13.27,-39.65C11.56,-32.98 8.74,-22.01 6.62,-13.78"/>
<polygon fill="black" stroke="black" points="9.96,-12.71 4.08,-3.9 3.18,-14.46 9.96,-12.71"/>
</g>
<!-- 7 -->
<g id="node7" class="node">
<title>7</title>
<ellipse fill="black" stroke="black" cx="25.8" cy="-1.8" rx="1.8" ry="1.8"/>
</g>
<!-- 3&#45;&gt;7 -->
<g id="edge6" class="edge">
<title>3&#45;&gt;7</title>
<path fill="none" stroke="black" d="M16.33,-39.65C18.04,-32.98 20.86,-22.01 22.98,-13.78"/>
<polygon fill="black" stroke="black" points="26.42,-14.46 25.52,-3.9 19.64,-12.71 26.42,-14.46"/>
</g>
</g>
</svg>
