<?xml version="1.0" encoding="UTF-8" standalone="no"?>
<!DOCTYPE svg PUBLIC "-//W3C//DTD SVG 1.1//EN"
 "http://www.w3.org/Graphics/SVG/1.1/DTD/svg11.dtd">
<!-- Generated by graphviz version 2.43.0 (0)
 -->
<!-- Title: G Pages: 1 -->
<svg width="63pt" height="162pt"
 viewBox="0.00 0.00 62.60 161.60" xmlns="http://www.w3.org/2000/svg" xmlns:xlink="http://www.w3.org/1999/xlink">
<g id="graph0" class="graph" transform="scale(1 1) rotate(0) translate(4 157.6)">
<title>G</title>
<polygon fill="#ffffff" fill-opacity="0.003922" stroke="transparent" points="-4,4 -4,-157.6 58.6,-157.6 58.6,4 -4,4"/>
<!-- 1 -->
<g id="node1" class="node">
<title>1</title>
<ellipse fill="#b2dfee" stroke="#b2dfee" cx="14.8" cy="-146.6" rx="7" ry="7"/>
</g>
<!-- 4 -->
<g id="node2" class="node">
<title>4</title>
<ellipse fill="black" stroke="black" cx="1.8" cy="-96.6" rx="1.8" ry="1.8"/>
</g>
<!-- 1&#45;&gt;4 -->
<g id="edge1" class="edge">
<title>1&#45;&gt;4</title>
<path fill="none" stroke="black" d="M13.21,-139.71C11.12,-132 7.41,-118.33 4.79,-108.66"/>
<polygon fill="black" stroke="black" points="8.14,-107.62 2.15,-98.88 1.38,-109.45 8.14,-107.62"/>
</g>
<!-- 2 -->
<g id="node3" class="node">
<title>2</title>
<ellipse fill="#b2dfee" stroke="#b2dfee" cx="28.8" cy="-96.6" rx="7" ry="7"/>
</g>
<!-- 1&#45;&gt;2 -->
<g id="edge2" class="edge">
<title>1&#45;&gt;2</title>
<path fill="none" stroke="black" d="M16.52,-139.71C18.43,-133.16 21.59,-122.31 24.23,-113.26"/>
<polygon fill="black" stroke="black" points="27.63,-114.11 27.07,-103.53 20.91,-112.15 27.63,-114.11"/>
</g>
<!-- 5 -->
<g id="node4" class="node">
<title>5</title>
<ellipse fill="black" stroke="black" cx="14.8" cy="-46.6" rx="1.8" ry="1.8"/>
</g>
<!-- 2&#45;&gt;5 -->
<g id="edge3" class="edge">
<title>2&#45;&gt;5</title>
<path fill="none" stroke="black" d="M27.08,-89.71C24.83,-82 20.85,-68.33 18.03,-58.66"/>
<polygon fill="black" stroke="black" points="21.33,-57.5 15.17,-48.88 14.61,-59.46 21.33,-57.5"/>
</g>
<!-- 3 -->
<g id="node5" class="node">
<title>3</title>
<ellipse fill="#b2dfee" stroke="#b2dfee" cx="41.8" cy="-46.6" rx="7" ry="7"/>
</g>
<!-- 2&#45;&gt;3 -->
<g id="edge4" class="edge">
<title>2&#45;&gt;3</title>
<path fill="none" stroke="black" d="M30.39,-89.71C32.17,-83.16 35.11,-72.31 37.56,-63.26"/>
<polygon fill="black" stroke="black" points="40.96,-64.1 40.19,-53.53 34.2,-62.27 40.96,-64.1"/>
</g>
<!-- 6 -->
<g id="node6" class="node">
<title>6</title>
<ellipse fill="black" stroke="black" cx="30.8" cy="-1.8" rx="1.8" ry="1.8"/>
</g>
<!-- 3&#45;&gt;6 -->
<g id="edge5" class="edge">
<title>3&#45;&gt;6</title>
<path fill="none" stroke="black" d="M40.27,-39.65C38.56,-32.98 35.74,-22.01 33.62,-13.78"/>
<polygon fill="black" stroke="black" points="36.96,-12.71 31.08,-3.9 30.18,-14.46 36.96,-12.71"/>
</g>
<!-- 7 -->
<g id="node7" class="node">
<title>7</title>
<ellipse fill="black" stroke="black" cx="52.8" cy="-1.8" rx="1.8" ry="1.8"/>
</g>
<!-- 3&#45;&gt;7 -->
<g id="edge6" class="edge">
<title>3&#45;&gt;7</title>
<path fill="none" stroke="black" d="M43.33,-39.65C45.04,-32.98 47.86,-22.01 49.98,-13.78"/>
<polygon fill="black" stroke="black" points="53.42,-14.46 52.52,-3.9 46.64,-12.71 53.42,-14.46"/>
</g>
</g>
</svg>
