<?xml version="1.0" encoding="UTF-8" standalone="no"?>
<!DOCTYPE svg PUBLIC "-//W3C//DTD SVG 1.1//EN"
 "http://www.w3.org/Graphics/SVG/1.1/DTD/svg11.dtd">
<!-- Generated by graphviz version 2.43.0 (0)
 -->
<!-- Title: G Pages: 1 -->
<svg width="90pt" height="162pt"
 viewBox="0.00 0.00 89.60 161.60" xmlns="http://www.w3.org/2000/svg" xmlns:xlink="http://www.w3.org/1999/xlink">
<g id="graph0" class="graph" transform="scale(1 1) rotate(0) translate(4 157.6)">
<title>G</title>
<polygon fill="#ffffff" fill-opacity="0.003922" stroke="transparent" points="-4,4 -4,-157.6 85.6,-157.6 85.6,4 -4,4"/>
<!-- 1 -->
<g id="node1" class="node">
<title>1</title>
<ellipse fill="#b2dfee" stroke="#b2dfee" cx="42.8" cy="-146.6" rx="7" ry="7"/>
</g>
<!-- 2 -->
<g id="node3" class="node">
<title>2</title>
<ellipse fill="#b2dfee" stroke="#b2dfee" cx="26.8" cy="-96.6" rx="7" ry="7"/>
</g>
<!-- 1&#45;&gt;2 -->
<g id="edge1" class="edge">
<title>1&#45;&gt;2</title>
<path fill="none" stroke="black" d="M40.84,-139.71C38.65,-133.16 35.04,-122.31 32.02,-113.26"/>
<polygon fill="black" stroke="black" points="35.26,-111.91 28.78,-103.53 28.62,-114.13 35.26,-111.91"/>
</g>
<!-- 3 -->
<g id="node4" class="node">
<title>3</title>
<ellipse fill="#b2dfee" stroke="#b2dfee" cx="58.8" cy="-96.6" rx="7" ry="7"/>
</g>
<!-- 1&#45;&gt;3 -->
<g id="edge2" class="edge">
<title>1&#45;&gt;3</title>
<path fill="none" stroke="black" d="M44.76,-139.71C46.95,-133.16 50.56,-122.31 53.58,-113.26"/>
<polygon fill="black" stroke="black" points="56.98,-114.13 56.82,-103.53 50.34,-111.91 56.98,-114.13"/>
</g>
<!-- 5 -->
<g id="node2" class="node">
<title>5</title>
<ellipse fill="black" stroke="black" cx="1.8" cy="-46.6" rx="1.8" ry="1.8"/>
</g>
<!-- 2&#45;&gt;5 -->
<g id="edge4" class="edge">
<title>2&#45;&gt;5</title>
<path fill="none" stroke="black" d="M23.93,-90.09C19.85,-82.25 12.28,-67.72 7.14,-57.86"/>
<polygon fill="black" stroke="black" points="10.21,-56.16 2.48,-48.91 4,-59.39 10.21,-56.16"/>
</g>
<!-- 4 -->
<g id="node5" class="node">
<title>4</title>
<ellipse fill="#b2dfee" stroke="#b2dfee" cx="28.8" cy="-46.6" rx="7" ry="7"/>
</g>
<!-- 2&#45;&gt;4 -->
<g id="edge3" class="edge">
<title>2&#45;&gt;4</title>
<path fill="none" stroke="black" d="M27.06,-89.32C27.33,-82.89 27.76,-72.62 28.12,-63.88"/>
<polygon fill="black" stroke="black" points="31.63,-63.86 28.54,-53.72 24.63,-63.57 31.63,-63.86"/>
</g>
<!-- 8 -->
<g id="node8" class="node">
<title>8</title>
<ellipse fill="black" stroke="black" cx="57.8" cy="-46.6" rx="1.8" ry="1.8"/>
</g>
<!-- 3&#45;&gt;8 -->
<g id="edge7" class="edge">
<title>3&#45;&gt;8</title>
<path fill="none" stroke="black" d="M58.67,-89.32C58.51,-81.68 58.24,-68.6 58.04,-59.12"/>
<polygon fill="black" stroke="black" points="61.53,-58.78 57.83,-48.86 54.54,-58.93 61.53,-58.78"/>
</g>
<!-- 9 -->
<g id="node9" class="node">
<title>9</title>
<ellipse fill="black" stroke="black" cx="79.8" cy="-46.6" rx="1.8" ry="1.8"/>
</g>
<!-- 3&#45;&gt;9 -->
<g id="edge8" class="edge">
<title>3&#45;&gt;9</title>
<path fill="none" stroke="black" d="M61.38,-89.71C64.79,-81.92 70.87,-68.02 75.11,-58.33"/>
<polygon fill="black" stroke="black" points="78.44,-59.45 79.24,-48.88 72.02,-56.64 78.44,-59.45"/>
</g>
<!-- 6 -->
<g id="node6" class="node">
<title>6</title>
<ellipse fill="black" stroke="black" cx="17.8" cy="-1.8" rx="1.8" ry="1.8"/>
</g>
<!-- 4&#45;&gt;6 -->
<g id="edge5" class="edge">
<title>4&#45;&gt;6</title>
<path fill="none" stroke="black" d="M27.27,-39.65C25.56,-32.98 22.74,-22.01 20.62,-13.78"/>
<polygon fill="black" stroke="black" points="23.96,-12.71 18.08,-3.9 17.18,-14.46 23.96,-12.71"/>
</g>
<!-- 7 -->
<g id="node7" class="node">
<title>7</title>
<ellipse fill="black" stroke="black" cx="39.8" cy="-1.8" rx="1.8" ry="1.8"/>
</g>
<!-- 4&#45;&gt;7 -->
<g id="edge6" class="edge">
<title>4&#45;&gt;7</title>
<path fill="none" stroke="black" d="M30.33,-39.65C32.04,-32.98 34.86,-22.01 36.98,-13.78"/>
<polygon fill="black" stroke="black" points="40.42,-14.46 39.52,-3.9 33.64,-12.71 40.42,-14.46"/>
</g>
</g>
</svg>
