<?xml version="1.0" encoding="UTF-8" standalone="no"?>
<!DOCTYPE svg PUBLIC "-//W3C//DTD SVG 1.1//EN"
 "http://www.w3.org/Graphics/SVG/1.1/DTD/svg11.dtd">
<!-- Generated by graphviz version 2.43.0 (0)
 -->
<!-- Title: G Pages: 1 -->
<svg width="303pt" height="339pt"
 viewBox="0.00 0.00 302.94 338.68" xmlns="http://www.w3.org/2000/svg" xmlns:xlink="http://www.w3.org/1999/xlink">
<g id="graph0" class="graph" transform="scale(1 1) rotate(0) translate(4 334.68)">
<title>G</title>
<polygon fill="#ffffff" fill-opacity="0.003922" stroke="transparent" points="-4,4 -4,-334.68 298.94,-334.68 298.94,4 -4,4"/>
<!-- 1 -->
<g id="node1" class="node">
<title>1</title>
<ellipse fill="#b2dfee" stroke="dodgerblue" cx="123.68" cy="-312.29" rx="18.27" ry="18.27"/>
<text text-anchor="middle" x="123.68" y="-309.19" font-family="times bold" font-size="12.00">A</text>
</g>
<!-- 2 -->
<g id="node2" class="node">
<title>2</title>
<ellipse fill="#b2dfee" stroke="dodgerblue" cx="69.68" cy="-239.52" rx="17.86" ry="17.86"/>
<text text-anchor="middle" x="69.68" y="-236.42" font-family="times bold" font-size="12.00">B</text>
</g>
<!-- 1&#45;&gt;2 -->
<g id="edge1" class="edge">
<title>1&#45;&gt;2</title>
<path fill="none" stroke="black" d="M113.01,-297.31C105.37,-287.29 94.93,-273.62 86.21,-262.19"/>
<polygon fill="black" stroke="black" points="88.81,-259.82 79.96,-253.99 83.24,-264.07 88.81,-259.82"/>
</g>
<!-- 3 -->
<g id="node3" class="node">
<title>3</title>
<ellipse fill="#b2dfee" stroke="dodgerblue" cx="123.68" cy="-239.52" rx="18.27" ry="18.27"/>
<text text-anchor="middle" x="123.68" y="-236.42" font-family="times bold" font-size="12.00">C</text>
</g>
<!-- 1&#45;&gt;3 -->
<g id="edge2" class="edge">
<title>1&#45;&gt;3</title>
<path fill="none" stroke="black" d="M123.68,-293.8C123.68,-286.12 123.68,-276.91 123.68,-268.32"/>
<polygon fill="black" stroke="black" points="127.18,-268.31 123.68,-258.31 120.18,-268.31 127.18,-268.31"/>
</g>
<!-- 4 -->
<g id="node4" class="node">
<title>4</title>
<ellipse fill="#b2dfee" stroke="dodgerblue" cx="203.68" cy="-239.52" rx="18.27" ry="18.27"/>
<text text-anchor="middle" x="203.68" y="-236.42" font-family="times bold" font-size="12.00">D</text>
</g>
<!-- 1&#45;&gt;4 -->
<g id="edge3" class="edge">
<title>1&#45;&gt;4</title>
<path fill="none" stroke="black" d="M137.25,-299.29C149.62,-288.34 168.1,-272 182.43,-259.32"/>
<polygon fill="black" stroke="black" points="185.14,-261.6 190.31,-252.35 180.5,-256.35 185.14,-261.6"/>
</g>
<!-- 5 -->
<g id="node5" class="node">
<title>5</title>
<ellipse fill="#b2dfee" stroke="dodgerblue" cx="17.68" cy="-166.75" rx="17.86" ry="17.86"/>
<text text-anchor="middle" x="17.68" y="-163.65" font-family="times bold" font-size="12.00">E</text>
</g>
<!-- 2&#45;&gt;5 -->
<g id="edge4" class="edge">
<title>2&#45;&gt;5</title>
<path fill="none" stroke="black" d="M59.65,-224.88C52.31,-214.89 42.2,-201.13 33.75,-189.62"/>
<polygon fill="black" stroke="black" points="36.41,-187.34 27.67,-181.36 30.77,-191.49 36.41,-187.34"/>
</g>
<!-- 6 -->
<g id="node6" class="node">
<title>6</title>
<ellipse fill="#b2dfee" stroke="dodgerblue" cx="70.68" cy="-166.75" rx="16.94" ry="16.94"/>
<text text-anchor="middle" x="70.68" y="-163.65" font-family="times bold" font-size="12.00">F</text>
</g>
<!-- 2&#45;&gt;6 -->
<g id="edge5" class="edge">
<title>2&#45;&gt;6</title>
<path fill="none" stroke="black" d="M69.91,-221.75C70.03,-213.52 70.17,-203.42 70.3,-194.19"/>
<polygon fill="black" stroke="black" points="73.81,-193.96 70.45,-183.92 66.81,-193.87 73.81,-193.96"/>
</g>
<!-- 7 -->
<g id="node7" class="node">
<title>7</title>
<ellipse fill="#b2dfee" stroke="dodgerblue" cx="123.68" cy="-166.75" rx="18.27" ry="18.27"/>
<text text-anchor="middle" x="123.68" y="-163.65" font-family="times bold" font-size="12.00">G</text>
</g>
<!-- 3&#45;&gt;7 -->
<g id="edge6" class="edge">
<title>3&#45;&gt;7</title>
<path fill="none" stroke="black" d="M123.68,-221.03C123.68,-213.35 123.68,-204.14 123.68,-195.55"/>
<polygon fill="black" stroke="black" points="127.18,-195.54 123.68,-185.54 120.18,-195.54 127.18,-195.54"/>
</g>
<!-- 8 -->
<g id="node8" class="node">
<title>8</title>
<ellipse fill="#b2dfee" stroke="dodgerblue" cx="178.68" cy="-166.75" rx="18.27" ry="18.27"/>
<text text-anchor="middle" x="178.68" y="-163.65" font-family="times bold" font-size="12.00">H</text>
</g>
<!-- 4&#45;&gt;8 -->
<g id="edge7" class="edge">
<title>4&#45;&gt;8</title>
<path fill="none" stroke="black" d="M197.75,-221.75C194.83,-213.47 191.23,-203.28 187.95,-193.99"/>
<polygon fill="black" stroke="black" points="191.19,-192.67 184.56,-184.4 184.59,-195 191.19,-192.67"/>
</g>
<!-- 9 -->
<g id="node9" class="node">
<title>9</title>
<ellipse fill="#b2dfee" stroke="dodgerblue" cx="229.68" cy="-166.75" rx="14.7" ry="14.7"/>
<text text-anchor="middle" x="229.68" y="-163.65" font-family="times bold" font-size="12.00">I</text>
</g>
<!-- 4&#45;&gt;9 -->
<g id="edge8" class="edge">
<title>4&#45;&gt;9</title>
<path fill="none" stroke="black" d="M209.71,-222.11C213.13,-212.8 217.46,-201 221.22,-190.78"/>
<polygon fill="black" stroke="black" points="224.56,-191.82 224.73,-181.23 217.99,-189.41 224.56,-191.82"/>
</g>
<!-- 10 -->
<g id="node10" class="node">
<title>10</title>
<ellipse fill="#b2dfee" stroke="dodgerblue" cx="278.68" cy="-166.75" rx="16.03" ry="16.03"/>
<text text-anchor="middle" x="278.68" y="-163.65" font-family="times bold" font-size="12.00">J</text>
</g>
<!-- 4&#45;&gt;10 -->
<g id="edge9" class="edge">
<title>4&#45;&gt;10</title>
<path fill="none" stroke="black" d="M216.74,-226.19C228.67,-214.94 246.44,-198.17 259.89,-185.48"/>
<polygon fill="black" stroke="black" points="262.36,-187.96 267.24,-178.55 257.56,-182.87 262.36,-187.96"/>
</g>
<!-- 11 -->
<g id="node11" class="node">
<title>11</title>
<ellipse fill="#b2dfee" stroke="dodgerblue" cx="202.68" cy="-93.98" rx="18.27" ry="18.27"/>
<text text-anchor="middle" x="202.68" y="-90.88" font-family="times bold" font-size="12.00">K</text>
</g>
<!-- 9&#45;&gt;11 -->
<g id="edge10" class="edge">
<title>9&#45;&gt;11</title>
<path fill="none" stroke="black" d="M224.6,-152.44C221.21,-143.55 216.63,-131.57 212.54,-120.84"/>
<polygon fill="black" stroke="black" points="215.8,-119.57 208.97,-111.47 209.26,-122.06 215.8,-119.57"/>
</g>
<!-- 12 -->
<g id="node12" class="node">
<title>12</title>
<ellipse fill="#b2dfee" stroke="dodgerblue" cx="256.68" cy="-93.98" rx="17.86" ry="17.86"/>
<text text-anchor="middle" x="256.68" y="-90.88" font-family="times bold" font-size="12.00">L</text>
</g>
<!-- 9&#45;&gt;12 -->
<g id="edge11" class="edge">
<title>9&#45;&gt;12</title>
<path fill="none" stroke="black" d="M234.76,-152.44C238.22,-143.37 242.91,-131.07 247.07,-120.18"/>
<polygon fill="black" stroke="black" points="250.38,-121.3 250.68,-110.71 243.84,-118.8 250.38,-121.3"/>
</g>
<!-- 13 -->
<g id="node13" class="node">
<title>13</title>
<ellipse fill="#b2dfee" stroke="dodgerblue" cx="256.68" cy="-19.8" rx="19.6" ry="19.6"/>
<text text-anchor="middle" x="256.68" y="-16.7" font-family="times bold" font-size="12.00">M</text>
</g>
<!-- 12&#45;&gt;13 -->
<g id="edge12" class="edge">
<title>12&#45;&gt;13</title>
<path fill="none" stroke="black" d="M256.68,-76.24C256.68,-68.4 256.68,-58.82 256.68,-49.85"/>
<polygon fill="black" stroke="black" points="260.18,-49.74 256.68,-39.74 253.18,-49.74 260.18,-49.74"/>
</g>
</g>
</svg>
