<?xml version="1.0" encoding="UTF-8" standalone="no"?>
<!DOCTYPE svg PUBLIC "-//W3C//DTD SVG 1.1//EN"
 "http://www.w3.org/Graphics/SVG/1.1/DTD/svg11.dtd">
<!-- Generated by graphviz version 2.43.0 (0)
 -->
<!-- Title: %3 Pages: 1 -->
<svg width="641pt" height="349pt"
 viewBox="0.00 0.00 640.84 349.22" xmlns="http://www.w3.org/2000/svg" xmlns:xlink="http://www.w3.org/1999/xlink">
<g id="graph0" class="graph" transform="scale(1 1) rotate(0) translate(4 345.22)">
<title>%3</title>
<polygon fill="white" stroke="transparent" points="-4,4 -4,-345.22 636.84,-345.22 636.84,4 -4,4"/>
<!-- 1 -->
<g id="node1" class="node">
<title>1</title>
<ellipse fill="lightcoral" stroke="lightcoral" cx="393.92" cy="-327.79" rx="21.84" ry="13.37"/>
<text text-anchor="middle" x="393.92" y="-325.29" font-family="times bold" font-size="10.00">f(6)</text>
</g>
<!-- 2 -->
<g id="node2" class="node">
<title>2</title>
<ellipse fill="lightcoral" stroke="lightcoral" cx="331.92" cy="-264.92" rx="21.84" ry="13.37"/>
<text text-anchor="middle" x="331.92" y="-262.42" font-family="times bold" font-size="10.00">f(5)</text>
</g>
<!-- 1&#45;&gt;2 -->
<g id="edge1" class="edge">
<title>1&#45;&gt;2</title>
<path fill="none" stroke="black" d="M382.84,-315.9C373.75,-306.99 360.72,-294.19 350.11,-283.78"/>
<polygon fill="black" stroke="black" points="352.5,-281.21 342.91,-276.7 347.59,-286.21 352.5,-281.21"/>
</g>
<!-- 3 -->
<g id="node17" class="node">
<title>3</title>
<ellipse fill="lightcoral" stroke="lightcoral" cx="455.92" cy="-264.92" rx="21.84" ry="13.37"/>
<text text-anchor="middle" x="455.92" y="-262.42" font-family="times bold" font-size="10.00">f(4)</text>
</g>
<!-- 1&#45;&gt;3 -->
<g id="edge16" class="edge">
<title>1&#45;&gt;3</title>
<path fill="none" stroke="black" d="M405,-315.9C414.09,-306.99 427.12,-294.19 437.73,-283.78"/>
<polygon fill="black" stroke="black" points="440.25,-286.21 444.93,-276.7 435.34,-281.21 440.25,-286.21"/>
</g>
<!-- 4 -->
<g id="node3" class="node">
<title>4</title>
<ellipse fill="lightcoral" stroke="lightcoral" cx="207.92" cy="-202.05" rx="21.84" ry="13.37"/>
<text text-anchor="middle" x="207.92" y="-199.55" font-family="times bold" font-size="10.00">f(4)</text>
</g>
<!-- 2&#45;&gt;4 -->
<g id="edge2" class="edge">
<title>2&#45;&gt;4</title>
<path fill="none" stroke="black" d="M315.45,-255.83C294.52,-245.55 258.14,-227.7 233.56,-215.63"/>
<polygon fill="black" stroke="black" points="234.97,-212.43 224.45,-211.16 231.89,-218.71 234.97,-212.43"/>
</g>
<!-- 5 -->
<g id="node12" class="node">
<title>5</title>
<ellipse fill="lightcoral" stroke="lightcoral" cx="331.92" cy="-202.05" rx="21.84" ry="13.37"/>
<text text-anchor="middle" x="331.92" y="-199.55" font-family="times bold" font-size="10.00">f(3)</text>
</g>
<!-- 2&#45;&gt;5 -->
<g id="edge11" class="edge">
<title>2&#45;&gt;5</title>
<path fill="none" stroke="black" d="M331.92,-251.3C331.92,-243.96 331.92,-234.47 331.92,-225.86"/>
<polygon fill="black" stroke="black" points="335.42,-225.64 331.92,-215.64 328.42,-225.64 335.42,-225.64"/>
</g>
<!-- 8 -->
<g id="node4" class="node">
<title>8</title>
<ellipse fill="lightcoral" stroke="lightcoral" cx="114.92" cy="-139.18" rx="21.84" ry="13.37"/>
<text text-anchor="middle" x="114.92" y="-136.68" font-family="times bold" font-size="10.00">f(3)</text>
</g>
<!-- 4&#45;&gt;8 -->
<g id="edge3" class="edge">
<title>4&#45;&gt;8</title>
<path fill="none" stroke="black" d="M193.39,-191.53C178.51,-181.8 155.17,-166.52 137.81,-155.16"/>
<polygon fill="black" stroke="black" points="139.63,-152.17 129.35,-149.62 135.8,-158.02 139.63,-152.17"/>
</g>
<!-- 9 -->
<g id="node9" class="node">
<title>9</title>
<ellipse fill="lightcoral" stroke="lightcoral" cx="207.92" cy="-139.18" rx="21.84" ry="13.37"/>
<text text-anchor="middle" x="207.92" y="-136.68" font-family="times bold" font-size="10.00">f(2)</text>
</g>
<!-- 4&#45;&gt;9 -->
<g id="edge8" class="edge">
<title>4&#45;&gt;9</title>
<path fill="none" stroke="black" d="M207.92,-188.43C207.92,-181.09 207.92,-171.6 207.92,-162.99"/>
<polygon fill="black" stroke="black" points="211.42,-162.77 207.92,-152.77 204.42,-162.77 211.42,-162.77"/>
</g>
<!-- 16 -->
<g id="node5" class="node">
<title>16</title>
<ellipse fill="lightcoral" stroke="lightcoral" cx="52.92" cy="-76.31" rx="21.84" ry="13.37"/>
<text text-anchor="middle" x="52.92" y="-73.81" font-family="times bold" font-size="10.00">f(2)</text>
</g>
<!-- 8&#45;&gt;16 -->
<g id="edge4" class="edge">
<title>8&#45;&gt;16</title>
<path fill="none" stroke="black" d="M103.84,-127.29C94.75,-118.38 81.72,-105.58 71.11,-95.17"/>
<polygon fill="black" stroke="black" points="73.5,-92.6 63.91,-88.09 68.59,-97.6 73.5,-92.6"/>
</g>
<!-- 17 -->
<g id="node8" class="node">
<title>17</title>
<ellipse fill="lightcoral" stroke="lightcoral" cx="114.92" cy="-76.31" rx="21.84" ry="13.37"/>
<text text-anchor="middle" x="114.92" y="-73.81" font-family="times bold" font-size="10.00">f(1)</text>
</g>
<!-- 8&#45;&gt;17 -->
<g id="edge7" class="edge">
<title>8&#45;&gt;17</title>
<path fill="none" stroke="black" d="M114.92,-125.56C114.92,-118.22 114.92,-108.73 114.92,-100.12"/>
<polygon fill="black" stroke="black" points="118.42,-99.9 114.92,-89.9 111.42,-99.9 118.42,-99.9"/>
</g>
<!-- 24 -->
<g id="node6" class="node">
<title>24</title>
<ellipse fill="lightcoral" stroke="lightcoral" cx="21.92" cy="-13.44" rx="21.84" ry="13.37"/>
<text text-anchor="middle" x="21.92" y="-10.94" font-family="times bold" font-size="10.00">f(1)</text>
</g>
<!-- 16&#45;&gt;24 -->
<g id="edge5" class="edge">
<title>16&#45;&gt;24</title>
<path fill="none" stroke="black" d="M46.8,-63.28C42.76,-55.36 37.37,-44.77 32.64,-35.48"/>
<polygon fill="black" stroke="black" points="35.69,-33.76 28.03,-26.44 29.45,-36.94 35.69,-33.76"/>
</g>
<!-- 25 -->
<g id="node7" class="node">
<title>25</title>
<ellipse fill="lightcoral" stroke="lightcoral" cx="83.92" cy="-13.44" rx="21.84" ry="13.37"/>
<text text-anchor="middle" x="83.92" y="-10.94" font-family="times bold" font-size="10.00">f(0)</text>
</g>
<!-- 16&#45;&gt;25 -->
<g id="edge6" class="edge">
<title>16&#45;&gt;25</title>
<path fill="none" stroke="black" d="M59.04,-63.28C63.08,-55.36 68.47,-44.77 73.2,-35.48"/>
<polygon fill="black" stroke="black" points="76.39,-36.94 77.81,-26.44 70.15,-33.76 76.39,-36.94"/>
</g>
<!-- 18 -->
<g id="node10" class="node">
<title>18</title>
<ellipse fill="lightcoral" stroke="lightcoral" cx="176.92" cy="-76.31" rx="21.84" ry="13.37"/>
<text text-anchor="middle" x="176.92" y="-73.81" font-family="times bold" font-size="10.00">f(1)</text>
</g>
<!-- 9&#45;&gt;18 -->
<g id="edge9" class="edge">
<title>9&#45;&gt;18</title>
<path fill="none" stroke="black" d="M201.8,-126.15C197.76,-118.23 192.37,-107.64 187.64,-98.35"/>
<polygon fill="black" stroke="black" points="190.69,-96.63 183.03,-89.31 184.45,-99.81 190.69,-96.63"/>
</g>
<!-- 19 -->
<g id="node11" class="node">
<title>19</title>
<ellipse fill="lightcoral" stroke="lightcoral" cx="238.92" cy="-76.31" rx="21.84" ry="13.37"/>
<text text-anchor="middle" x="238.92" y="-73.81" font-family="times bold" font-size="10.00">f(0)</text>
</g>
<!-- 9&#45;&gt;19 -->
<g id="edge10" class="edge">
<title>9&#45;&gt;19</title>
<path fill="none" stroke="black" d="M214.04,-126.15C218.08,-118.23 223.47,-107.64 228.2,-98.35"/>
<polygon fill="black" stroke="black" points="231.39,-99.81 232.81,-89.31 225.15,-96.63 231.39,-99.81"/>
</g>
<!-- 10 -->
<g id="node13" class="node">
<title>10</title>
<ellipse fill="lightcoral" stroke="lightcoral" cx="300.92" cy="-139.18" rx="21.84" ry="13.37"/>
<text text-anchor="middle" x="300.92" y="-136.68" font-family="times bold" font-size="10.00">f(2)</text>
</g>
<!-- 5&#45;&gt;10 -->
<g id="edge12" class="edge">
<title>5&#45;&gt;10</title>
<path fill="none" stroke="black" d="M325.8,-189.02C321.76,-181.1 316.37,-170.51 311.64,-161.22"/>
<polygon fill="black" stroke="black" points="314.69,-159.5 307.03,-152.18 308.45,-162.68 314.69,-159.5"/>
</g>
<!-- 11 -->
<g id="node16" class="node">
<title>11</title>
<ellipse fill="lightcoral" stroke="lightcoral" cx="362.92" cy="-139.18" rx="21.84" ry="13.37"/>
<text text-anchor="middle" x="362.92" y="-136.68" font-family="times bold" font-size="10.00">f(1)</text>
</g>
<!-- 5&#45;&gt;11 -->
<g id="edge15" class="edge">
<title>5&#45;&gt;11</title>
<path fill="none" stroke="black" d="M338.04,-189.02C342.08,-181.1 347.47,-170.51 352.2,-161.22"/>
<polygon fill="black" stroke="black" points="355.39,-162.68 356.81,-152.18 349.15,-159.5 355.39,-162.68"/>
</g>
<!-- 20 -->
<g id="node14" class="node">
<title>20</title>
<ellipse fill="lightcoral" stroke="lightcoral" cx="300.92" cy="-76.31" rx="21.84" ry="13.37"/>
<text text-anchor="middle" x="300.92" y="-73.81" font-family="times bold" font-size="10.00">f(1)</text>
</g>
<!-- 10&#45;&gt;20 -->
<g id="edge13" class="edge">
<title>10&#45;&gt;20</title>
<path fill="none" stroke="black" d="M300.92,-125.56C300.92,-118.22 300.92,-108.73 300.92,-100.12"/>
<polygon fill="black" stroke="black" points="304.42,-99.9 300.92,-89.9 297.42,-99.9 304.42,-99.9"/>
</g>
<!-- 21 -->
<g id="node15" class="node">
<title>21</title>
<ellipse fill="lightcoral" stroke="lightcoral" cx="362.92" cy="-76.31" rx="21.84" ry="13.37"/>
<text text-anchor="middle" x="362.92" y="-73.81" font-family="times bold" font-size="10.00">f(0)</text>
</g>
<!-- 10&#45;&gt;21 -->
<g id="edge14" class="edge">
<title>10&#45;&gt;21</title>
<path fill="none" stroke="black" d="M312,-127.29C321.09,-118.38 334.12,-105.58 344.73,-95.17"/>
<polygon fill="black" stroke="black" points="347.25,-97.6 351.93,-88.09 342.34,-92.6 347.25,-97.6"/>
</g>
<!-- 6 -->
<g id="node18" class="node">
<title>6</title>
<ellipse fill="lightcoral" stroke="lightcoral" cx="455.92" cy="-202.05" rx="21.84" ry="13.37"/>
<text text-anchor="middle" x="455.92" y="-199.55" font-family="times bold" font-size="10.00">f(3)</text>
</g>
<!-- 3&#45;&gt;6 -->
<g id="edge17" class="edge">
<title>3&#45;&gt;6</title>
<path fill="none" stroke="black" d="M455.92,-251.3C455.92,-243.96 455.92,-234.47 455.92,-225.86"/>
<polygon fill="black" stroke="black" points="459.42,-225.64 455.92,-215.64 452.42,-225.64 459.42,-225.64"/>
</g>
<!-- 7 -->
<g id="node23" class="node">
<title>7</title>
<ellipse fill="lightcoral" stroke="lightcoral" cx="548.92" cy="-202.05" rx="21.84" ry="13.37"/>
<text text-anchor="middle" x="548.92" y="-199.55" font-family="times bold" font-size="10.00">f(2)</text>
</g>
<!-- 3&#45;&gt;7 -->
<g id="edge22" class="edge">
<title>3&#45;&gt;7</title>
<path fill="none" stroke="black" d="M470.45,-254.4C485.33,-244.67 508.67,-229.39 526.03,-218.03"/>
<polygon fill="black" stroke="black" points="528.04,-220.89 534.49,-212.49 524.21,-215.04 528.04,-220.89"/>
</g>
<!-- 12 -->
<g id="node19" class="node">
<title>12</title>
<ellipse fill="lightcoral" stroke="lightcoral" cx="424.92" cy="-139.18" rx="21.84" ry="13.37"/>
<text text-anchor="middle" x="424.92" y="-136.68" font-family="times bold" font-size="10.00">f(2)</text>
</g>
<!-- 6&#45;&gt;12 -->
<g id="edge18" class="edge">
<title>6&#45;&gt;12</title>
<path fill="none" stroke="black" d="M449.8,-189.02C445.76,-181.1 440.37,-170.51 435.64,-161.22"/>
<polygon fill="black" stroke="black" points="438.69,-159.5 431.03,-152.18 432.45,-162.68 438.69,-159.5"/>
</g>
<!-- 13 -->
<g id="node22" class="node">
<title>13</title>
<ellipse fill="lightcoral" stroke="lightcoral" cx="486.92" cy="-139.18" rx="21.84" ry="13.37"/>
<text text-anchor="middle" x="486.92" y="-136.68" font-family="times bold" font-size="10.00">f(1)</text>
</g>
<!-- 6&#45;&gt;13 -->
<g id="edge21" class="edge">
<title>6&#45;&gt;13</title>
<path fill="none" stroke="black" d="M462.04,-189.02C466.08,-181.1 471.47,-170.51 476.2,-161.22"/>
<polygon fill="black" stroke="black" points="479.39,-162.68 480.81,-152.18 473.15,-159.5 479.39,-162.68"/>
</g>
<!-- 22 -->
<g id="node20" class="node">
<title>22</title>
<ellipse fill="lightcoral" stroke="lightcoral" cx="424.92" cy="-76.31" rx="21.84" ry="13.37"/>
<text text-anchor="middle" x="424.92" y="-73.81" font-family="times bold" font-size="10.00">f(1)</text>
</g>
<!-- 12&#45;&gt;22 -->
<g id="edge19" class="edge">
<title>12&#45;&gt;22</title>
<path fill="none" stroke="black" d="M424.92,-125.56C424.92,-118.22 424.92,-108.73 424.92,-100.12"/>
<polygon fill="black" stroke="black" points="428.42,-99.9 424.92,-89.9 421.42,-99.9 428.42,-99.9"/>
</g>
<!-- 23 -->
<g id="node21" class="node">
<title>23</title>
<ellipse fill="lightcoral" stroke="lightcoral" cx="486.92" cy="-76.31" rx="21.84" ry="13.37"/>
<text text-anchor="middle" x="486.92" y="-73.81" font-family="times bold" font-size="10.00">f(0)</text>
</g>
<!-- 12&#45;&gt;23 -->
<g id="edge20" class="edge">
<title>12&#45;&gt;23</title>
<path fill="none" stroke="black" d="M436,-127.29C445.09,-118.38 458.12,-105.58 468.73,-95.17"/>
<polygon fill="black" stroke="black" points="471.25,-97.6 475.93,-88.09 466.34,-92.6 471.25,-97.6"/>
</g>
<!-- 14 -->
<g id="node24" class="node">
<title>14</title>
<ellipse fill="lightcoral" stroke="lightcoral" cx="548.92" cy="-139.18" rx="21.84" ry="13.37"/>
<text text-anchor="middle" x="548.92" y="-136.68" font-family="times bold" font-size="10.00">f(1)</text>
</g>
<!-- 7&#45;&gt;14 -->
<g id="edge23" class="edge">
<title>7&#45;&gt;14</title>
<path fill="none" stroke="black" d="M548.92,-188.43C548.92,-181.09 548.92,-171.6 548.92,-162.99"/>
<polygon fill="black" stroke="black" points="552.42,-162.77 548.92,-152.77 545.42,-162.77 552.42,-162.77"/>
</g>
<!-- 15 -->
<g id="node25" class="node">
<title>15</title>
<ellipse fill="lightcoral" stroke="lightcoral" cx="610.92" cy="-139.18" rx="21.84" ry="13.37"/>
<text text-anchor="middle" x="610.92" y="-136.68" font-family="times bold" font-size="10.00">f(0)</text>
</g>
<!-- 7&#45;&gt;15 -->
<g id="edge24" class="edge">
<title>7&#45;&gt;15</title>
<path fill="none" stroke="black" d="M560,-190.16C569.09,-181.25 582.12,-168.45 592.73,-158.04"/>
<polygon fill="black" stroke="black" points="595.25,-160.47 599.93,-150.96 590.34,-155.47 595.25,-160.47"/>
</g>
</g>
</svg>
