<?xml version="1.0" encoding="UTF-8" standalone="no"?>
<!DOCTYPE svg PUBLIC "-//W3C//DTD SVG 1.1//EN"
 "http://www.w3.org/Graphics/SVG/1.1/DTD/svg11.dtd">
<!-- Generated by graphviz version 2.43.0 (0)
 -->
<!-- Title: %3 Pages: 1 -->
<svg width="294pt" height="308pt"
 viewBox="0.00 0.00 294.00 308.35" xmlns="http://www.w3.org/2000/svg" xmlns:xlink="http://www.w3.org/1999/xlink">
<g id="graph0" class="graph" transform="scale(1 1) rotate(0) translate(4 304.35)">
<title>%3</title>
<polygon fill="white" stroke="transparent" points="-4,4 -4,-304.35 290,-304.35 290,4 -4,4"/>
<!-- A -->
<g id="node1" class="node">
<title>A</title>
<ellipse fill="#b2dfee" stroke="#b2dfee" cx="163" cy="-283.38" rx="16.94" ry="16.94"/>
<text text-anchor="middle" x="163" y="-280.88" font-family="times bold" font-size="10.00">A</text>
</g>
<!-- B -->
<g id="node2" class="node">
<title>B</title>
<ellipse fill="#b2dfee" stroke="#b2dfee" cx="120" cy="-214.15" rx="16.03" ry="16.03"/>
<text text-anchor="middle" x="120" y="-211.65" font-family="times bold" font-size="10.00">B</text>
</g>
<!-- A&#45;&gt;B -->
<g id="edge1" class="edge">
<title>A&#45;&gt;B</title>
<path fill="none" stroke="black" d="M154.3,-268.77C148.45,-259.63 140.62,-247.39 133.92,-236.91"/>
<polygon fill="black" stroke="black" points="136.73,-234.81 128.4,-228.27 130.84,-238.58 136.73,-234.81"/>
</g>
<!-- E -->
<g id="node11" class="node">
<title>E</title>
<ellipse fill="#b2dfee" stroke="#b2dfee" cx="189" cy="-214.15" rx="16.03" ry="16.03"/>
<text text-anchor="middle" x="189" y="-211.65" font-family="times bold" font-size="10.00">E</text>
</g>
<!-- A&#45;&gt;E -->
<g id="edge10" class="edge">
<title>A&#45;&gt;E</title>
<path fill="none" stroke="black" d="M168.9,-267.12C172.07,-258.93 176.05,-248.64 179.63,-239.37"/>
<polygon fill="black" stroke="black" points="182.96,-240.47 183.3,-229.88 176.43,-237.94 182.96,-240.47"/>
</g>
<!-- C -->
<g id="node3" class="node">
<title>C</title>
<ellipse fill="#b2dfee" stroke="#b2dfee" cx="51" cy="-144.91" rx="16.94" ry="16.94"/>
<text text-anchor="middle" x="51" y="-142.41" font-family="times bold" font-size="10.00">C</text>
</g>
<!-- B&#45;&gt;C -->
<g id="edge2" class="edge">
<title>B&#45;&gt;C</title>
<path fill="none" stroke="black" d="M108.61,-202.04C98.21,-191.91 82.63,-176.73 70.29,-164.71"/>
<polygon fill="black" stroke="black" points="72.71,-162.18 63.11,-157.71 67.83,-167.2 72.71,-162.18"/>
</g>
<!-- D -->
<g id="node6" class="node">
<title>D</title>
<ellipse fill="#b2dfee" stroke="#b2dfee" cx="120" cy="-144.91" rx="16.94" ry="16.94"/>
<text text-anchor="middle" x="120" y="-142.41" font-family="times bold" font-size="10.00">D</text>
</g>
<!-- B&#45;&gt;D -->
<g id="edge5" class="edge">
<title>B&#45;&gt;D</title>
<path fill="none" stroke="black" d="M120,-197.55C120,-189.94 120,-180.58 120,-171.93"/>
<polygon fill="black" stroke="black" points="123.5,-171.89 120,-161.89 116.5,-171.89 123.5,-171.89"/>
</g>
<!-- CFG -->
<!-- C&#45;&gt;CFG -->
<g id="edge3" class="edge">
<title>C&#45;&gt;CFG</title>
<path fill="none" stroke="black" d="M42.71,-129.83C36.55,-119.37 28.11,-105.02 21.48,-93.77"/>
<polygon fill="black" stroke="black" points="24.32,-91.69 16.23,-84.85 18.28,-95.24 24.32,-91.69"/>
</g>
<!-- CFD -->
<!-- C&#45;&gt;CFD -->
<g id="edge4" class="edge">
<title>C&#45;&gt;CFD</title>
<path fill="none" stroke="black" d="M51,-127.81C51,-118.46 51,-106.58 51,-96.56"/>
<polygon fill="black" stroke="black" points="54.5,-96.26 51,-86.26 47.5,-96.26 54.5,-96.26"/>
</g>
<!-- G -->
<g id="node7" class="node">
<title>G</title>
<ellipse fill="#b2dfee" stroke="#b2dfee" cx="97" cy="-74.97" rx="16.94" ry="16.94"/>
<text text-anchor="middle" x="97" y="-72.47" font-family="times bold" font-size="10.00">G</text>
</g>
<!-- D&#45;&gt;G -->
<g id="edge6" class="edge">
<title>D&#45;&gt;G</title>
<path fill="none" stroke="black" d="M114.78,-128.49C112.02,-120.33 108.55,-110.1 105.42,-100.84"/>
<polygon fill="black" stroke="black" points="108.72,-99.68 102.2,-91.33 102.09,-101.92 108.72,-99.68"/>
</g>
<!-- DFD -->
<!-- D&#45;&gt;DFD -->
<g id="edge7" class="edge">
<title>D&#45;&gt;DFD</title>
<path fill="none" stroke="black" d="M125.22,-128.49C128.56,-118.63 132.92,-105.75 136.49,-95.22"/>
<polygon fill="black" stroke="black" points="139.83,-96.25 139.72,-85.66 133.2,-94.01 139.83,-96.25"/>
</g>
<!-- GFG -->
<!-- G&#45;&gt;GFG -->
<g id="edge8" class="edge">
<title>G&#45;&gt;GFG</title>
<path fill="none" stroke="black" d="M89.11,-59.6C84.28,-50.79 78.05,-39.43 72.89,-30.02"/>
<polygon fill="black" stroke="black" points="75.88,-28.19 68,-21.11 69.74,-31.56 75.88,-28.19"/>
</g>
<!-- GFD -->
<!-- G&#45;&gt;GFD -->
<g id="edge9" class="edge">
<title>G&#45;&gt;GFD</title>
<path fill="none" stroke="black" d="M98.55,-58.01C99.31,-50.13 100.24,-40.54 101.05,-32.16"/>
<polygon fill="black" stroke="black" points="104.54,-32.37 102.02,-22.08 97.58,-31.7 104.54,-32.37"/>
</g>
<!-- F -->
<g id="node12" class="node">
<title>F</title>
<ellipse fill="#b2dfee" stroke="#b2dfee" cx="189" cy="-144.91" rx="16.03" ry="16.03"/>
<text text-anchor="middle" x="189" y="-142.41" font-family="times bold" font-size="10.00">F</text>
</g>
<!-- E&#45;&gt;F -->
<g id="edge11" class="edge">
<title>E&#45;&gt;F</title>
<path fill="none" stroke="black" d="M189,-197.55C189,-189.83 189,-180.31 189,-171.55"/>
<polygon fill="black" stroke="black" points="192.5,-171.42 189,-161.42 185.5,-171.42 192.5,-171.42"/>
</g>
<!-- EFD -->
<!-- E&#45;&gt;EFD -->
<g id="edge12" class="edge">
<title>E&#45;&gt;EFD</title>
<path fill="none" stroke="black" d="M197.68,-200.18C204.77,-189.58 214.86,-174.51 222.6,-162.94"/>
<polygon fill="black" stroke="black" points="225.56,-164.82 228.21,-154.56 219.74,-160.93 225.56,-164.82"/>
</g>
<!-- H -->
<g id="node14" class="node">
<title>H</title>
<ellipse fill="#b2dfee" stroke="#b2dfee" cx="189" cy="-74.97" rx="16.94" ry="16.94"/>
<text text-anchor="middle" x="189" y="-72.47" font-family="times bold" font-size="10.00">H</text>
</g>
<!-- F&#45;&gt;H -->
<g id="edge13" class="edge">
<title>F&#45;&gt;H</title>
<path fill="none" stroke="black" d="M189,-128.49C189,-120.81 189,-111.3 189,-102.5"/>
<polygon fill="black" stroke="black" points="192.5,-102.27 189,-92.27 185.5,-102.27 192.5,-102.27"/>
</g>
<!-- I -->
<g id="node17" class="node">
<title>I</title>
<ellipse fill="#b2dfee" stroke="#b2dfee" cx="238" cy="-74.97" rx="14.29" ry="14.29"/>
<text text-anchor="middle" x="238" y="-72.47" font-family="times bold" font-size="10.00">I</text>
</g>
<!-- F&#45;&gt;I -->
<g id="edge16" class="edge">
<title>F&#45;&gt;I</title>
<path fill="none" stroke="black" d="M198.22,-131.13C205.55,-120.96 215.93,-106.57 224.24,-95.04"/>
<polygon fill="black" stroke="black" points="227.11,-97.06 230.12,-86.9 221.43,-92.96 227.11,-97.06"/>
</g>
<!-- HFG -->
<!-- H&#45;&gt;HFG -->
<g id="edge14" class="edge">
<title>H&#45;&gt;HFG</title>
<path fill="none" stroke="black" d="M180.57,-60.22C175.06,-51.23 167.81,-39.41 161.87,-29.72"/>
<polygon fill="black" stroke="black" points="164.69,-27.62 156.47,-20.93 158.72,-31.28 164.69,-27.62"/>
</g>
<!-- HFD -->
<!-- H&#45;&gt;HFD -->
<g id="edge15" class="edge">
<title>H&#45;&gt;HFD</title>
<path fill="none" stroke="black" d="M189.53,-57.69C189.77,-50 190.07,-40.73 190.34,-32.56"/>
<polygon fill="black" stroke="black" points="193.84,-32.45 190.67,-22.35 186.85,-32.23 193.84,-32.45"/>
</g>
<!-- IFG -->
<!-- I&#45;&gt;IFG -->
<g id="edge17" class="edge">
<title>I&#45;&gt;IFG</title>
<path fill="none" stroke="black" d="M237.36,-60.83C236.96,-52.55 236.44,-41.71 235.98,-32.34"/>
<polygon fill="black" stroke="black" points="239.48,-32.08 235.5,-22.26 232.48,-32.42 239.48,-32.08"/>
</g>
<!-- IFD -->
<!-- I&#45;&gt;IFD -->
<g id="edge18" class="edge">
<title>I&#45;&gt;IFD</title>
<path fill="none" stroke="black" d="M244.96,-62.31C250.47,-53.08 258.26,-40.03 264.53,-29.54"/>
<polygon fill="black" stroke="black" points="267.62,-31.18 269.75,-20.8 261.61,-27.59 267.62,-31.18"/>
</g>
</g>
</svg>
