<?xml version="1.0" encoding="UTF-8" standalone="no"?>
<!DOCTYPE svg PUBLIC "-//W3C//DTD SVG 1.1//EN"
 "http://www.w3.org/Graphics/SVG/1.1/DTD/svg11.dtd">
<!-- Generated by graphviz version 2.43.0 (0)
 -->
<!-- Title: %3 Pages: 1 -->
<svg width="321pt" height="281pt"
 viewBox="0.00 0.00 321.00 281.48" xmlns="http://www.w3.org/2000/svg" xmlns:xlink="http://www.w3.org/1999/xlink">
<g id="graph0" class="graph" transform="scale(1 1) rotate(0) translate(4 277.48)">
<title>%3</title>
<polygon fill="white" stroke="transparent" points="-4,4 -4,-277.48 317,-277.48 317,4 -4,4"/>
<!-- A -->
<g id="node1" class="node">
<title>A</title>
<ellipse fill="#b2dfee" stroke="#b2dfee" cx="171" cy="-260.05" rx="22.76" ry="13.37"/>
<text text-anchor="middle" x="171" y="-257.55" font-family="times bold" font-size="10.00">A:1</text>
</g>
<!-- B -->
<g id="node2" class="node">
<title>B</title>
<ellipse fill="#b2dfee" stroke="#b2dfee" cx="129" cy="-197.18" rx="26.33" ry="13.37"/>
<text text-anchor="middle" x="129" y="-194.68" font-family="times bold" font-size="10.00">B:10</text>
</g>
<!-- A&#45;&gt;B -->
<g id="edge1" class="edge">
<title>A&#45;&gt;B</title>
<path fill="none" stroke="black" d="M162.9,-247.31C157.28,-239.16 149.65,-228.1 143.04,-218.53"/>
<polygon fill="black" stroke="black" points="145.92,-216.54 137.36,-210.29 140.16,-220.51 145.92,-216.54"/>
</g>
<!-- E -->
<g id="node11" class="node">
<title>E</title>
<ellipse fill="#b2dfee" stroke="#b2dfee" cx="207" cy="-197.18" rx="26.33" ry="13.37"/>
<text text-anchor="middle" x="207" y="-194.68" font-family="times bold" font-size="10.00">E:11</text>
</g>
<!-- A&#45;&gt;E -->
<g id="edge10" class="edge">
<title>A&#45;&gt;E</title>
<path fill="none" stroke="black" d="M178.11,-247.02C182.85,-239.02 189.19,-228.29 194.72,-218.93"/>
<polygon fill="black" stroke="black" points="197.82,-220.57 199.9,-210.18 191.8,-217 197.82,-220.57"/>
</g>
<!-- C -->
<g id="node3" class="node">
<title>C</title>
<ellipse fill="#b2dfee" stroke="#b2dfee" cx="51" cy="-134.31" rx="30.31" ry="13.37"/>
<text text-anchor="middle" x="51" y="-131.81" font-family="times bold" font-size="10.00">C:100</text>
</g>
<!-- B&#45;&gt;C -->
<g id="edge2" class="edge">
<title>B&#45;&gt;C</title>
<path fill="none" stroke="black" d="M115.41,-185.57C103.77,-176.49 86.79,-163.23 73.18,-152.61"/>
<polygon fill="black" stroke="black" points="75.26,-149.8 65.22,-146.4 70.95,-155.31 75.26,-149.8"/>
</g>
<!-- D -->
<g id="node6" class="node">
<title>D</title>
<ellipse fill="#b2dfee" stroke="#b2dfee" cx="129" cy="-134.31" rx="22.76" ry="13.37"/>
<text text-anchor="middle" x="129" y="-131.81" font-family="times bold" font-size="10.00">D:?</text>
</g>
<!-- B&#45;&gt;D -->
<g id="edge5" class="edge">
<title>B&#45;&gt;D</title>
<path fill="none" stroke="black" d="M129,-183.56C129,-176.22 129,-166.73 129,-158.12"/>
<polygon fill="black" stroke="black" points="132.5,-157.9 129,-147.9 125.5,-157.9 132.5,-157.9"/>
</g>
<!-- CFG -->
<!-- C&#45;&gt;CFG -->
<g id="edge3" class="edge">
<title>C&#45;&gt;CFG</title>
<path fill="none" stroke="black" d="M43.1,-121.28C37.17,-112.26 28.97,-99.79 22.35,-89.7"/>
<polygon fill="black" stroke="black" points="25.23,-87.71 16.81,-81.28 19.38,-91.56 25.23,-87.71"/>
</g>
<!-- CFD -->
<!-- C&#45;&gt;CFD -->
<g id="edge4" class="edge">
<title>C&#45;&gt;CFD</title>
<path fill="none" stroke="black" d="M51,-120.69C51,-112.67 51,-102.1 51,-92.9"/>
<polygon fill="black" stroke="black" points="54.5,-92.61 51,-82.61 47.5,-92.61 54.5,-92.61"/>
</g>
<!-- G -->
<g id="node7" class="node">
<title>G</title>
<ellipse fill="#b2dfee" stroke="#b2dfee" cx="103" cy="-71.44" rx="23.17" ry="13.37"/>
<text text-anchor="middle" x="103" y="-68.94" font-family="times bold" font-size="10.00">G:?</text>
</g>
<!-- D&#45;&gt;G -->
<g id="edge6" class="edge">
<title>D&#45;&gt;G</title>
<path fill="none" stroke="black" d="M123.74,-120.99C120.43,-113.23 116.06,-103.01 112.19,-93.94"/>
<polygon fill="black" stroke="black" points="115.4,-92.56 108.25,-84.73 108.96,-95.31 115.4,-92.56"/>
</g>
<!-- DFD -->
<!-- D&#45;&gt;DFD -->
<g id="edge7" class="edge">
<title>D&#45;&gt;DFD</title>
<path fill="none" stroke="black" d="M134.26,-120.99C137.92,-112.43 142.86,-100.86 147,-91.16"/>
<polygon fill="black" stroke="black" points="150.23,-92.51 150.94,-81.94 143.79,-89.76 150.23,-92.51"/>
</g>
<!-- GFG -->
<!-- G&#45;&gt;GFG -->
<g id="edge8" class="edge">
<title>G&#45;&gt;GFG</title>
<path fill="none" stroke="black" d="M98.12,-58.04C95.05,-50.24 91.03,-40.01 87.55,-31.18"/>
<polygon fill="black" stroke="black" points="90.73,-29.7 83.81,-21.67 84.21,-32.26 90.73,-29.7"/>
</g>
<!-- GFD -->
<!-- G&#45;&gt;GFD -->
<g id="edge9" class="edge">
<title>G&#45;&gt;GFD</title>
<path fill="none" stroke="black" d="M106.61,-58.04C108.85,-50.33 111.79,-40.23 114.34,-31.46"/>
<polygon fill="black" stroke="black" points="117.75,-32.25 117.19,-21.67 111.03,-30.3 117.75,-32.25"/>
</g>
<!-- F -->
<g id="node12" class="node">
<title>F</title>
<ellipse fill="#b2dfee" stroke="#b2dfee" cx="207" cy="-134.31" rx="28.98" ry="13.37"/>
<text text-anchor="middle" x="207" y="-131.81" font-family="times bold" font-size="10.00">F:110</text>
</g>
<!-- E&#45;&gt;F -->
<g id="edge11" class="edge">
<title>E&#45;&gt;F</title>
<path fill="none" stroke="black" d="M207,-183.56C207,-176.22 207,-166.73 207,-158.12"/>
<polygon fill="black" stroke="black" points="210.5,-157.9 207,-147.9 203.5,-157.9 210.5,-157.9"/>
</g>
<!-- EFD -->
<!-- E&#45;&gt;EFD -->
<g id="edge12" class="edge">
<title>E&#45;&gt;EFD</title>
<path fill="none" stroke="black" d="M217.91,-184.73C227.22,-174.96 240.67,-160.84 250.81,-150.19"/>
<polygon fill="black" stroke="black" points="253.44,-152.51 257.8,-142.86 248.37,-147.68 253.44,-152.51"/>
</g>
<!-- H -->
<g id="node14" class="node">
<title>H</title>
<ellipse fill="#b2dfee" stroke="#b2dfee" cx="207" cy="-71.44" rx="22.76" ry="13.37"/>
<text text-anchor="middle" x="207" y="-68.94" font-family="times bold" font-size="10.00">H:?</text>
</g>
<!-- F&#45;&gt;H -->
<g id="edge13" class="edge">
<title>F&#45;&gt;H</title>
<path fill="none" stroke="black" d="M207,-120.69C207,-113.35 207,-103.86 207,-95.25"/>
<polygon fill="black" stroke="black" points="210.5,-95.03 207,-85.03 203.5,-95.03 210.5,-95.03"/>
</g>
<!-- I -->
<g id="node17" class="node">
<title>I</title>
<ellipse fill="#b2dfee" stroke="#b2dfee" cx="268" cy="-71.44" rx="20.51" ry="13.37"/>
<text text-anchor="middle" x="268" y="-68.94" font-family="times bold" font-size="10.00">I:?</text>
</g>
<!-- F&#45;&gt;I -->
<g id="edge16" class="edge">
<title>F&#45;&gt;I</title>
<path fill="none" stroke="black" d="M218.47,-121.86C227.38,-112.96 239.9,-100.47 250.12,-90.27"/>
<polygon fill="black" stroke="black" points="252.79,-92.56 257.39,-83.02 247.84,-87.6 252.79,-92.56"/>
</g>
<!-- HFG -->
<!-- H&#45;&gt;HFG -->
<g id="edge14" class="edge">
<title>H&#45;&gt;HFG</title>
<path fill="none" stroke="black" d="M199.92,-58.61C194.88,-50.21 188.04,-38.78 182.39,-29.35"/>
<polygon fill="black" stroke="black" points="185.39,-27.54 177.25,-20.76 179.39,-31.14 185.39,-27.54"/>
</g>
<!-- HFD -->
<!-- H&#45;&gt;HFD -->
<g id="edge15" class="edge">
<title>H&#45;&gt;HFD</title>
<path fill="none" stroke="black" d="M208.08,-57.76C208.72,-50.38 209.53,-40.91 210.25,-32.5"/>
<polygon fill="black" stroke="black" points="213.75,-32.58 211.12,-22.32 206.78,-31.98 213.75,-32.58"/>
</g>
<!-- IFG -->
<!-- I&#45;&gt;IFG -->
<g id="edge17" class="edge">
<title>I&#45;&gt;IFG</title>
<path fill="none" stroke="black" d="M266.7,-57.76C265.94,-50.38 264.97,-40.91 264.1,-32.5"/>
<polygon fill="black" stroke="black" points="267.56,-31.91 263.06,-22.32 260.6,-32.62 267.56,-31.91"/>
</g>
<!-- IFD -->
<!-- I&#45;&gt;IFD -->
<g id="edge18" class="edge">
<title>I&#45;&gt;IFD</title>
<path fill="none" stroke="black" d="M274.88,-58.61C279.72,-50.29 286.28,-39.02 291.73,-29.64"/>
<polygon fill="black" stroke="black" points="294.9,-31.17 296.9,-20.76 288.85,-27.65 294.9,-31.17"/>
</g>
</g>
</svg>
