<?xml version="1.0" encoding="UTF-8" standalone="no"?>
<!DOCTYPE svg PUBLIC "-//W3C//DTD SVG 1.1//EN"
 "http://www.w3.org/Graphics/SVG/1.1/DTD/svg11.dtd">
<!-- Generated by graphviz version 2.43.0 (0)
 -->
<!-- Title: %3 Pages: 1 -->
<svg width="630pt" height="281pt"
 viewBox="0.00 0.00 630.00 281.48" xmlns="http://www.w3.org/2000/svg" xmlns:xlink="http://www.w3.org/1999/xlink">
<g id="graph0" class="graph" transform="scale(1 1) rotate(0) translate(4 277.48)">
<title>%3</title>
<polygon fill="white" stroke="transparent" points="-4,4 -4,-277.48 626,-277.48 626,4 -4,4"/>
<!-- A -->
<g id="node1" class="node">
<title>A</title>
<ellipse fill="#b2dfee" stroke="#b2dfee" cx="304" cy="-260.05" rx="16.94" ry="13.37"/>
<text text-anchor="middle" x="304" y="-257.55" font-family="times bold" font-size="10.00">A</text>
</g>
<!-- B -->
<g id="node2" class="node">
<title>B</title>
<ellipse fill="#b2dfee" stroke="#b2dfee" cx="231" cy="-197.18" rx="16.03" ry="13.37"/>
<text text-anchor="middle" x="231" y="-194.68" font-family="times bold" font-size="10.00">B</text>
</g>
<!-- A&#45;&gt;B -->
<g id="edge1" class="edge">
<title>A&#45;&gt;B</title>
<path fill="none" stroke="black" d="M292.91,-249.8C281.55,-240.33 263.67,-225.41 250.03,-214.05"/>
<polygon fill="black" stroke="black" points="252.11,-211.22 242.19,-207.51 247.63,-216.6 252.11,-211.22"/>
</g>
<!-- C -->
<g id="node17" class="node">
<title>C</title>
<ellipse fill="#b2dfee" stroke="#b2dfee" cx="390" cy="-197.18" rx="16.94" ry="13.37"/>
<text text-anchor="middle" x="390" y="-194.68" font-family="times bold" font-size="10.00">C</text>
</g>
<!-- A&#45;&gt;C -->
<g id="edge16" class="edge">
<title>A&#45;&gt;C</title>
<path fill="none" stroke="black" d="M316.32,-250.32C330.19,-240.51 352.96,-224.39 369.51,-212.68"/>
<polygon fill="black" stroke="black" points="371.84,-215.32 377.98,-206.68 367.79,-209.6 371.84,-215.32"/>
</g>
<!-- D -->
<g id="node3" class="node">
<title>D</title>
<ellipse fill="#b2dfee" stroke="#b2dfee" cx="116" cy="-134.31" rx="16.94" ry="13.37"/>
<text text-anchor="middle" x="116" y="-131.81" font-family="times bold" font-size="10.00">D</text>
</g>
<!-- B&#45;&gt;D -->
<g id="edge2" class="edge">
<title>B&#45;&gt;D</title>
<path fill="none" stroke="black" d="M217.81,-189.19C198.52,-178.98 162.35,-159.84 138.72,-147.33"/>
<polygon fill="black" stroke="black" points="140.23,-144.17 129.75,-142.58 136.95,-150.35 140.23,-144.17"/>
</g>
<!-- E -->
<g id="node10" class="node">
<title>E</title>
<ellipse fill="#b2dfee" stroke="#b2dfee" cx="231" cy="-134.31" rx="16.03" ry="13.37"/>
<text text-anchor="middle" x="231" y="-131.81" font-family="times bold" font-size="10.00">E</text>
</g>
<!-- B&#45;&gt;E -->
<g id="edge9" class="edge">
<title>B&#45;&gt;E</title>
<path fill="none" stroke="black" d="M231,-183.56C231,-176.22 231,-166.73 231,-158.12"/>
<polygon fill="black" stroke="black" points="234.5,-157.9 231,-147.9 227.5,-157.9 234.5,-157.9"/>
</g>
<!-- H -->
<g id="node4" class="node">
<title>H</title>
<ellipse fill="#b2dfee" stroke="#b2dfee" cx="51" cy="-71.44" rx="16.94" ry="13.37"/>
<text text-anchor="middle" x="51" y="-68.94" font-family="times bold" font-size="10.00">H</text>
</g>
<!-- D&#45;&gt;H -->
<g id="edge3" class="edge">
<title>D&#45;&gt;H</title>
<path fill="none" stroke="black" d="M105.56,-123.53C95.76,-114.35 80.9,-100.43 69.16,-89.44"/>
<polygon fill="black" stroke="black" points="71.32,-86.67 61.63,-82.39 66.54,-91.78 71.32,-86.67"/>
</g>
<!-- I -->
<g id="node7" class="node">
<title>I</title>
<ellipse fill="#b2dfee" stroke="#b2dfee" cx="116" cy="-71.44" rx="14.29" ry="13.37"/>
<text text-anchor="middle" x="116" y="-68.94" font-family="times bold" font-size="10.00">I</text>
</g>
<!-- D&#45;&gt;I -->
<g id="edge6" class="edge">
<title>D&#45;&gt;I</title>
<path fill="none" stroke="black" d="M116,-120.69C116,-113.35 116,-103.86 116,-95.25"/>
<polygon fill="black" stroke="black" points="119.5,-95.03 116,-85.03 112.5,-95.03 119.5,-95.03"/>
</g>
<!-- HFG -->
<!-- H&#45;&gt;HFG -->
<g id="edge4" class="edge">
<title>H&#45;&gt;HFG</title>
<path fill="none" stroke="black" d="M43.29,-59.17C37.44,-50.62 29.3,-38.73 22.66,-29.03"/>
<polygon fill="black" stroke="black" points="25.41,-26.85 16.87,-20.58 19.63,-30.8 25.41,-26.85"/>
</g>
<!-- HFD -->
<!-- H&#45;&gt;HFD -->
<g id="edge5" class="edge">
<title>H&#45;&gt;HFD</title>
<path fill="none" stroke="black" d="M51,-57.76C51,-50.38 51,-40.91 51,-32.5"/>
<polygon fill="black" stroke="black" points="54.5,-32.32 51,-22.32 47.5,-32.32 54.5,-32.32"/>
</g>
<!-- IFG -->
<!-- I&#45;&gt;IFG -->
<g id="edge7" class="edge">
<title>I&#45;&gt;IFG</title>
<path fill="none" stroke="black" d="M110.94,-58.61C107.54,-50.66 102.99,-40.02 99.09,-30.9"/>
<polygon fill="black" stroke="black" points="102.21,-29.31 95.06,-21.49 95.78,-32.06 102.21,-29.31"/>
</g>
<!-- IFD -->
<!-- I&#45;&gt;IFD -->
<g id="edge8" class="edge">
<title>I&#45;&gt;IFD</title>
<path fill="none" stroke="black" d="M119.11,-58.33C121.08,-50.63 123.69,-40.48 125.96,-31.64"/>
<polygon fill="black" stroke="black" points="129.4,-32.33 128.49,-21.77 122.62,-30.59 129.4,-32.33"/>
</g>
<!-- J -->
<g id="node11" class="node">
<title>J</title>
<ellipse fill="#b2dfee" stroke="#b2dfee" cx="206" cy="-71.44" rx="15.61" ry="13.37"/>
<text text-anchor="middle" x="206" y="-68.94" font-family="times bold" font-size="10.00">J</text>
</g>
<!-- E&#45;&gt;J -->
<g id="edge10" class="edge">
<title>E&#45;&gt;J</title>
<path fill="none" stroke="black" d="M226.06,-121.28C222.84,-113.44 218.55,-103 214.77,-93.78"/>
<polygon fill="black" stroke="black" points="217.97,-92.36 210.93,-84.44 211.49,-95.02 217.97,-92.36"/>
</g>
<!-- K -->
<g id="node14" class="node">
<title>K</title>
<ellipse fill="#b2dfee" stroke="#b2dfee" cx="257" cy="-71.44" rx="16.94" ry="13.37"/>
<text text-anchor="middle" x="257" y="-68.94" font-family="times bold" font-size="10.00">K</text>
</g>
<!-- E&#45;&gt;K -->
<g id="edge13" class="edge">
<title>E&#45;&gt;K</title>
<path fill="none" stroke="black" d="M236.14,-121.28C239.48,-113.44 243.95,-103 247.88,-93.78"/>
<polygon fill="black" stroke="black" points="251.16,-95.01 251.87,-84.44 244.73,-92.26 251.16,-95.01"/>
</g>
<!-- JFG -->
<!-- J&#45;&gt;JFG -->
<g id="edge11" class="edge">
<title>J&#45;&gt;JFG</title>
<path fill="none" stroke="black" d="M199.25,-59.17C194.25,-50.81 187.32,-39.25 181.58,-29.67"/>
<polygon fill="black" stroke="black" points="184.49,-27.72 176.35,-20.94 178.49,-31.32 184.49,-27.72"/>
</g>
<!-- JFD -->
<!-- J&#45;&gt;JFD -->
<g id="edge12" class="edge">
<title>J&#45;&gt;JFD</title>
<path fill="none" stroke="black" d="M207.08,-57.76C207.72,-50.38 208.53,-40.91 209.25,-32.5"/>
<polygon fill="black" stroke="black" points="212.75,-32.58 210.12,-22.32 205.78,-31.98 212.75,-32.58"/>
</g>
<!-- KFG -->
<!-- K&#45;&gt;KFG -->
<g id="edge14" class="edge">
<title>K&#45;&gt;KFG</title>
<path fill="none" stroke="black" d="M255.7,-57.76C254.94,-50.38 253.97,-40.91 253.1,-32.5"/>
<polygon fill="black" stroke="black" points="256.56,-31.91 252.06,-22.32 249.6,-32.62 256.56,-31.91"/>
</g>
<!-- KFD -->
<!-- K&#45;&gt;KFD -->
<g id="edge15" class="edge">
<title>K&#45;&gt;KFD</title>
<path fill="none" stroke="black" d="M263.72,-58.89C268.59,-50.51 275.28,-39.02 280.81,-29.51"/>
<polygon fill="black" stroke="black" points="283.85,-31.25 285.85,-20.85 277.8,-27.73 283.85,-31.25"/>
</g>
<!-- F -->
<g id="node18" class="node">
<title>F</title>
<ellipse fill="#b2dfee" stroke="#b2dfee" cx="390" cy="-134.31" rx="16.03" ry="13.37"/>
<text text-anchor="middle" x="390" y="-131.81" font-family="times bold" font-size="10.00">F</text>
</g>
<!-- C&#45;&gt;F -->
<g id="edge17" class="edge">
<title>C&#45;&gt;F</title>
<path fill="none" stroke="black" d="M390,-183.56C390,-176.22 390,-166.73 390,-158.12"/>
<polygon fill="black" stroke="black" points="393.5,-157.9 390,-147.9 386.5,-157.9 393.5,-157.9"/>
</g>
<!-- G -->
<g id="node25" class="node">
<title>G</title>
<ellipse fill="#b2dfee" stroke="#b2dfee" cx="505" cy="-134.31" rx="16.94" ry="13.37"/>
<text text-anchor="middle" x="505" y="-131.81" font-family="times bold" font-size="10.00">G</text>
</g>
<!-- C&#45;&gt;G -->
<g id="edge24" class="edge">
<title>C&#45;&gt;G</title>
<path fill="none" stroke="black" d="M403.64,-188.95C423.1,-178.66 459.04,-159.63 482.47,-147.23"/>
<polygon fill="black" stroke="black" points="484.17,-150.29 491.37,-142.52 480.9,-144.1 484.17,-150.29"/>
</g>
<!-- L -->
<g id="node19" class="node">
<title>L</title>
<ellipse fill="#b2dfee" stroke="#b2dfee" cx="364" cy="-71.44" rx="16.03" ry="13.37"/>
<text text-anchor="middle" x="364" y="-68.94" font-family="times bold" font-size="10.00">L</text>
</g>
<!-- F&#45;&gt;L -->
<g id="edge18" class="edge">
<title>F&#45;&gt;L</title>
<path fill="none" stroke="black" d="M384.86,-121.28C381.52,-113.44 377.05,-103 373.12,-93.78"/>
<polygon fill="black" stroke="black" points="376.27,-92.26 369.13,-84.44 369.84,-95.01 376.27,-92.26"/>
</g>
<!-- M -->
<g id="node22" class="node">
<title>M</title>
<ellipse fill="#b2dfee" stroke="#b2dfee" cx="417" cy="-71.44" rx="18.27" ry="13.37"/>
<text text-anchor="middle" x="417" y="-68.94" font-family="times bold" font-size="10.00">M</text>
</g>
<!-- F&#45;&gt;M -->
<g id="edge21" class="edge">
<title>F&#45;&gt;M</title>
<path fill="none" stroke="black" d="M395.21,-121.57C398.67,-113.75 403.33,-103.26 407.45,-93.97"/>
<polygon fill="black" stroke="black" points="410.77,-95.11 411.63,-84.55 404.37,-92.27 410.77,-95.11"/>
</g>
<!-- LFG -->
<!-- L&#45;&gt;LFG -->
<g id="edge19" class="edge">
<title>L&#45;&gt;LFG</title>
<path fill="none" stroke="black" d="M357.48,-58.89C352.8,-50.6 346.39,-39.26 341.06,-29.81"/>
<polygon fill="black" stroke="black" points="343.96,-27.84 336,-20.85 337.87,-31.28 343.96,-27.84"/>
</g>
<!-- LFD -->
<!-- L&#45;&gt;LFD -->
<g id="edge20" class="edge">
<title>L&#45;&gt;LFD</title>
<path fill="none" stroke="black" d="M365.48,-58.04C366.39,-50.5 367.56,-40.7 368.59,-32.08"/>
<polygon fill="black" stroke="black" points="372.08,-32.39 369.8,-22.05 365.13,-31.56 372.08,-32.39"/>
</g>
<!-- MFG -->
<!-- M&#45;&gt;MFG -->
<g id="edge22" class="edge">
<title>M&#45;&gt;MFG</title>
<path fill="none" stroke="black" d="M415.7,-57.76C414.94,-50.38 413.97,-40.91 413.1,-32.5"/>
<polygon fill="black" stroke="black" points="416.56,-31.91 412.06,-22.32 409.6,-32.62 416.56,-31.91"/>
</g>
<!-- MFD -->
<!-- M&#45;&gt;MFD -->
<g id="edge23" class="edge">
<title>M&#45;&gt;MFD</title>
<path fill="none" stroke="black" d="M423.72,-58.89C428.59,-50.51 435.28,-39.02 440.81,-29.51"/>
<polygon fill="black" stroke="black" points="443.85,-31.25 445.85,-20.85 437.8,-27.73 443.85,-31.25"/>
</g>
<!-- N -->
<g id="node26" class="node">
<title>N</title>
<ellipse fill="#b2dfee" stroke="#b2dfee" cx="505" cy="-71.44" rx="16.94" ry="13.37"/>
<text text-anchor="middle" x="505" y="-68.94" font-family="times bold" font-size="10.00">N</text>
</g>
<!-- G&#45;&gt;N -->
<g id="edge25" class="edge">
<title>G&#45;&gt;N</title>
<path fill="none" stroke="black" d="M505,-120.69C505,-113.35 505,-103.86 505,-95.25"/>
<polygon fill="black" stroke="black" points="508.5,-95.03 505,-85.03 501.5,-95.03 508.5,-95.03"/>
</g>
<!-- O -->
<g id="node29" class="node">
<title>O</title>
<ellipse fill="#b2dfee" stroke="#b2dfee" cx="571" cy="-71.44" rx="16.94" ry="13.37"/>
<text text-anchor="middle" x="571" y="-68.94" font-family="times bold" font-size="10.00">O</text>
</g>
<!-- G&#45;&gt;O -->
<g id="edge28" class="edge">
<title>G&#45;&gt;O</title>
<path fill="none" stroke="black" d="M515.6,-123.53C525.55,-114.35 540.64,-100.43 552.56,-89.44"/>
<polygon fill="black" stroke="black" points="555.22,-91.75 560.2,-82.39 550.48,-86.6 555.22,-91.75"/>
</g>
<!-- NFG -->
<!-- N&#45;&gt;NFG -->
<g id="edge26" class="edge">
<title>N&#45;&gt;NFG</title>
<path fill="none" stroke="black" d="M502.03,-58.04C500.2,-50.42 497.82,-40.48 495.74,-31.79"/>
<polygon fill="black" stroke="black" points="499.14,-30.95 493.41,-22.05 492.33,-32.59 499.14,-30.95"/>
</g>
<!-- NFD -->
<!-- N&#45;&gt;NFD -->
<g id="edge27" class="edge">
<title>N&#45;&gt;NFD</title>
<path fill="none" stroke="black" d="M510.26,-58.61C513.8,-50.66 518.53,-40.02 522.59,-30.9"/>
<polygon fill="black" stroke="black" points="525.91,-32.05 526.78,-21.49 519.51,-29.21 525.91,-32.05"/>
</g>
<!-- OFG -->
<!-- O&#45;&gt;OFG -->
<g id="edge29" class="edge">
<title>O&#45;&gt;OFG</title>
<path fill="none" stroke="black" d="M571,-57.76C571,-50.38 571,-40.91 571,-32.5"/>
<polygon fill="black" stroke="black" points="574.5,-32.32 571,-22.32 567.5,-32.32 574.5,-32.32"/>
</g>
<!-- OFD -->
<!-- O&#45;&gt;OFD -->
<g id="edge30" class="edge">
<title>O&#45;&gt;OFD</title>
<path fill="none" stroke="black" d="M578.71,-59.17C584.56,-50.62 592.7,-38.73 599.34,-29.03"/>
<polygon fill="black" stroke="black" points="602.37,-30.8 605.13,-20.58 596.59,-26.85 602.37,-30.8"/>
</g>
</g>
</svg>
