<?xml version="1.0" encoding="UTF-8" standalone="no"?>
<!DOCTYPE svg PUBLIC "-//W3C//DTD SVG 1.1//EN"
 "http://www.w3.org/Graphics/SVG/1.1/DTD/svg11.dtd">
<!-- Generated by graphviz version 2.43.0 (0)
 -->
<!-- Title: %3 Pages: 1 -->
<svg width="263pt" height="63pt"
 viewBox="0.00 0.00 263.08 62.53" xmlns="http://www.w3.org/2000/svg" xmlns:xlink="http://www.w3.org/1999/xlink">
<g id="graph0" class="graph" transform="scale(1 1) rotate(0) translate(4 58.53)">
<title>%3</title>
<polygon fill="#ffffff" fill-opacity="0.003922" stroke="transparent" points="-4,4 -4,-58.53 259.08,-58.53 259.08,4 -4,4"/>
<!-- A -->
<g id="node1" class="node">
<title>A</title>
<ellipse fill="#b2dfee" stroke="#b2dfee" cx="18.38" cy="-16.26" rx="18.27" ry="16.03"/>
<text text-anchor="middle" x="18.38" y="-12.56" font-family="Times,serif" font-size="14.00">A</text>
</g>
<!-- A&#45;&#45;A -->
<g id="edge1" class="edge">
<title>A&#45;&#45;A</title>
<path fill="none" stroke="black" d="M6.78,-29.27C2.14,-39.73 6.01,-50.53 18.38,-50.53 30.76,-50.53 34.63,-39.73 29.99,-29.27"/>
</g>
<!-- B -->
<g id="node2" class="node">
<title>B</title>
<ellipse fill="#b2dfee" stroke="#b2dfee" cx="91.15" cy="-38.26" rx="18.27" ry="16.03"/>
<text text-anchor="middle" x="91.15" y="-34.56" font-family="Times,serif" font-size="14.00">B</text>
</g>
<!-- A&#45;&#45;B -->
<g id="edge2" class="edge">
<title>A&#45;&#45;B</title>
<path fill="none" stroke="black" d="M36.16,-21.48C47.44,-24.98 62.25,-29.59 73.5,-33.09"/>
</g>
<!-- C -->
<g id="node3" class="node">
<title>C</title>
<ellipse fill="#b2dfee" stroke="#b2dfee" cx="163.92" cy="-16.26" rx="18.27" ry="16.03"/>
<text text-anchor="middle" x="163.92" y="-12.56" font-family="Times,serif" font-size="14.00">C</text>
</g>
<!-- A&#45;&#45;C -->
<g id="edge3" class="edge">
<title>A&#45;&#45;C</title>
<path fill="none" stroke="black" d="M37.17,-15.01C47.55,-14.35 60.89,-13.6 72.77,-13.26 89.11,-12.8 93.2,-12.8 109.54,-13.26 121.42,-13.6 134.76,-14.35 145.14,-15.01"/>
</g>
<!-- B&#45;&#45;C -->
<g id="edge4" class="edge">
<title>B&#45;&#45;C</title>
<path fill="none" stroke="black" d="M108.93,-33.05C120.21,-29.54 135.02,-24.94 146.27,-21.44"/>
</g>
<!-- D -->
<g id="node4" class="node">
<title>D</title>
<ellipse fill="#b2dfee" stroke="#b2dfee" cx="236.69" cy="-16.26" rx="18.27" ry="16.03"/>
<text text-anchor="middle" x="236.69" y="-12.56" font-family="Times,serif" font-size="14.00">D</text>
</g>
<!-- C&#45;&#45;D -->
<g id="edge5" class="edge">
<title>C&#45;&#45;D</title>
<path fill="none" stroke="black" d="M182.42,-16.26C193.22,-16.26 207.05,-16.26 217.91,-16.26"/>
</g>
</g>
</svg>
