<?xml version="1.0" encoding="UTF-8" standalone="no"?>
<!DOCTYPE svg PUBLIC "-//W3C//DTD SVG 1.1//EN"
 "http://www.w3.org/Graphics/SVG/1.1/DTD/svg11.dtd">
<!-- Generated by graphviz version 2.43.0 (0)
 -->
<!-- Title: G Pages: 1 -->
<svg width="332pt" height="188pt"
 viewBox="0.00 0.00 332.00 187.80" xmlns="http://www.w3.org/2000/svg" xmlns:xlink="http://www.w3.org/1999/xlink">
<g id="graph0" class="graph" transform="scale(1 1) rotate(0) translate(4 183.8)">
<title>G</title>
<polygon fill="#ffffff" fill-opacity="0.003922" stroke="transparent" points="-4,4 -4,-183.8 328,-183.8 328,4 -4,4"/>
<!-- A -->
<g id="node1" class="node">
<title>A</title>
<ellipse fill="#b2dfee" stroke="#b2dfee" cx="234" cy="-161.8" rx="18" ry="18"/>
<text text-anchor="middle" x="234" y="-158.7" font-family="times bold" font-size="12.00">A</text>
</g>
<!-- C -->
<g id="node3" class="node">
<title>C</title>
<ellipse fill="#b2dfee" stroke="#b2dfee" cx="306" cy="-161.8" rx="18" ry="18"/>
<text text-anchor="middle" x="306" y="-158.7" font-family="times bold" font-size="12.00">C</text>
</g>
<!-- A&#45;&gt;C -->
<g id="edge1" class="edge">
<title>A&#45;&gt;C</title>
<path fill="none" stroke="black" d="M252.3,-161.8C260.02,-161.8 269.29,-161.8 277.89,-161.8"/>
<polygon fill="black" stroke="black" points="277.9,-165.3 287.9,-161.8 277.9,-158.3 277.9,-165.3"/>
</g>
<!-- Z -->
<g id="node7" class="node">
<title>Z</title>
<ellipse fill="#b2dfee" stroke="#b2dfee" cx="306" cy="-77.8" rx="18" ry="18"/>
<text text-anchor="middle" x="306" y="-74.7" font-family="times bold" font-size="12.00">Z</text>
</g>
<!-- A&#45;&gt;Z -->
<g id="edge2" class="edge">
<title>A&#45;&gt;Z</title>
<path fill="none" stroke="black" d="M246.25,-148.3C257.27,-135.08 274.24,-114.71 287.11,-99.26"/>
<polygon fill="black" stroke="black" points="290.07,-101.19 293.78,-91.26 284.69,-96.7 290.07,-101.19"/>
</g>
<!-- B -->
<g id="node2" class="node">
<title>B</title>
<ellipse fill="#b2dfee" stroke="#b2dfee" cx="18" cy="-27.8" rx="18" ry="18"/>
<text text-anchor="middle" x="18" y="-24.7" font-family="times bold" font-size="12.00">B</text>
</g>
<!-- E -->
<g id="node5" class="node">
<title>E</title>
<ellipse fill="#b2dfee" stroke="#b2dfee" cx="90" cy="-73.8" rx="18" ry="18"/>
<text text-anchor="middle" x="90" y="-70.7" font-family="times bold" font-size="12.00">E</text>
</g>
<!-- B&#45;&gt;E -->
<g id="edge3" class="edge">
<title>B&#45;&gt;E</title>
<path fill="none" stroke="black" d="M33.5,-37.33C42.89,-43.5 55.31,-51.66 66.02,-58.7"/>
<polygon fill="black" stroke="black" points="64.24,-61.71 74.51,-64.28 68.08,-55.86 64.24,-61.71"/>
</g>
<!-- F -->
<g id="node6" class="node">
<title>F</title>
<ellipse fill="#b2dfee" stroke="#b2dfee" cx="162" cy="-31.8" rx="18" ry="18"/>
<text text-anchor="middle" x="162" y="-28.7" font-family="times bold" font-size="12.00">F</text>
</g>
<!-- B&#45;&gt;F -->
<g id="edge4" class="edge">
<title>B&#45;&gt;F</title>
<path fill="none" stroke="black" d="M36.13,-28.28C60.33,-28.96 104.79,-30.22 133.61,-31.03"/>
<polygon fill="black" stroke="black" points="133.72,-34.53 143.81,-31.32 133.91,-27.54 133.72,-34.53"/>
</g>
<!-- B&#45;&gt;Z -->
<g id="edge5" class="edge">
<title>B&#45;&gt;Z</title>
<path fill="none" stroke="black" d="M35.24,-21.26C64.57,-10.39 128.14,8.93 180,-4.8 219.81,-15.34 259.88,-42.3 283.55,-60.34"/>
<polygon fill="black" stroke="black" points="281.47,-63.15 291.51,-66.53 285.77,-57.63 281.47,-63.15"/>
</g>
<!-- D -->
<g id="node4" class="node">
<title>D</title>
<ellipse fill="#b2dfee" stroke="#b2dfee" cx="162" cy="-123.8" rx="18" ry="18"/>
<text text-anchor="middle" x="162" y="-120.7" font-family="times bold" font-size="12.00">D</text>
</g>
<!-- D&#45;&gt;A -->
<g id="edge6" class="edge">
<title>D&#45;&gt;A</title>
<path fill="none" stroke="black" d="M178.19,-132.05C187.18,-136.93 198.77,-143.22 208.97,-148.76"/>
<polygon fill="black" stroke="black" points="207.38,-151.88 217.84,-153.57 210.72,-145.72 207.38,-151.88"/>
</g>
<!-- D&#45;&gt;Z -->
<g id="edge7" class="edge">
<title>D&#45;&gt;Z</title>
<path fill="none" stroke="black" d="M179.29,-118.52C203.66,-110.63 249.86,-95.66 278.95,-86.24"/>
<polygon fill="black" stroke="black" points="280.03,-89.57 288.46,-83.16 277.87,-82.91 280.03,-89.57"/>
</g>
<!-- E&#45;&gt;D -->
<g id="edge8" class="edge">
<title>E&#45;&gt;D</title>
<path fill="none" stroke="black" d="M105.17,-83.92C114.75,-90.76 127.61,-99.95 138.57,-107.78"/>
<polygon fill="black" stroke="black" points="136.68,-110.73 146.86,-113.7 140.75,-105.04 136.68,-110.73"/>
</g>
<!-- E&#45;&gt;F -->
<g id="edge9" class="edge">
<title>E&#45;&gt;F</title>
<path fill="none" stroke="black" d="M103.19,-61.22C111.98,-54.59 124.16,-46.85 135.08,-40.81"/>
<polygon fill="black" stroke="black" points="137,-43.75 144.23,-36 133.75,-37.55 137,-43.75"/>
</g>
<!-- E&#45;&gt;Z -->
<g id="edge10" class="edge">
<title>E&#45;&gt;Z</title>
<path fill="none" stroke="black" d="M108.15,-74.12C145.17,-74.81 232.82,-76.45 277.61,-77.29"/>
<polygon fill="black" stroke="black" points="277.7,-80.79 287.77,-77.48 277.83,-73.79 277.7,-80.79"/>
</g>
<!-- F&#45;&gt;E -->
<g id="edge11" class="edge">
<title>F&#45;&gt;E</title>
<path fill="none" stroke="black" d="M148.69,-44.47C139.86,-51.12 127.65,-58.86 116.73,-64.9"/>
<polygon fill="black" stroke="black" points="114.82,-61.94 107.59,-69.69 118.07,-68.15 114.82,-61.94"/>
</g>
<!-- F&#45;&gt;Z -->
<g id="edge12" class="edge">
<title>F&#45;&gt;Z</title>
<path fill="none" stroke="black" d="M179.29,-37.08C203.66,-44.97 249.86,-59.94 278.95,-69.36"/>
<polygon fill="black" stroke="black" points="277.87,-72.69 288.46,-72.44 280.03,-66.03 277.87,-72.69"/>
</g>
</g>
</svg>
