<?xml version="1.0" encoding="UTF-8" standalone="no"?>
<!-- Created with Inkscape (http://www.inkscape.org/) -->

<svg
   xmlns:dc="http://purl.org/dc/elements/1.1/"
   xmlns:cc="http://creativecommons.org/ns#"
   xmlns:rdf="http://www.w3.org/1999/02/22-rdf-syntax-ns#"
   xmlns:svg="http://www.w3.org/2000/svg"
   xmlns="http://www.w3.org/2000/svg"
   xmlns:sodipodi="http://sodipodi.sourceforge.net/DTD/sodipodi-0.dtd"
   xmlns:inkscape="http://www.inkscape.org/namespaces/inkscape"
   width="256"
   height="256"
   viewBox="0 0 67.733331 67.733338"
   version="1.1"
   id="svg8"
   inkscape:version="0.92.1 r15371"
   sodipodi:docname="client-serveur-html.svg"
   inkscape:export-filename="/home/jeanclaude/internet.png"
   inkscape:export-xdpi="90"
   inkscape:export-ydpi="90">
  <defs
     id="defs2">
    <marker
       inkscape:isstock="true"
       style="overflow:visible"
       id="marker7109"
       refX="0.0"
       refY="0.0"
       orient="auto"
       inkscape:stockid="Arrow2Mstart">
      <path
         transform="scale(0.6) translate(0,0)"
         d="M 8.7185878,4.0337352 L -2.2072895,0.016013256 L 8.7185884,-4.0017078 C 6.9730900,-1.6296469 6.9831476,1.6157441 8.7185878,4.0337352 z "
         style="fill-rule:evenodd;stroke-width:0.625;stroke-linejoin:round;stroke:#000000;stroke-opacity:1;fill:#000000;fill-opacity:1"
         id="path7107" />
    </marker>
    <marker
       inkscape:stockid="Arrow2Mend"
       orient="auto"
       refY="0.0"
       refX="0.0"
       id="Arrow2Mend"
       style="overflow:visible;"
       inkscape:isstock="true">
      <path
         id="path4748"
         style="fill-rule:evenodd;stroke-width:0.625;stroke-linejoin:round;stroke:#000000;stroke-opacity:1;fill:#000000;fill-opacity:1"
         d="M 8.7185878,4.0337352 L -2.2072895,0.016013256 L 8.7185884,-4.0017078 C 6.9730900,-1.6296469 6.9831476,1.6157441 8.7185878,4.0337352 z "
         transform="scale(0.6) rotate(180) translate(0,0)" />
    </marker>
    <marker
       inkscape:stockid="Arrow1Lstart"
       orient="auto"
       refY="0.0"
       refX="0.0"
       id="Arrow1Lstart"
       style="overflow:visible"
       inkscape:isstock="true">
      <path
         id="path4721"
         d="M 0.0,0.0 L 5.0,-5.0 L -12.5,0.0 L 5.0,5.0 L 0.0,0.0 z "
         style="fill-rule:evenodd;stroke:#000000;stroke-width:1pt;stroke-opacity:1;fill:#800000;fill-opacity:1"
         transform="scale(0.8) translate(12.5,0)" />
    </marker>
    <marker
       inkscape:stockid="Arrow1Lend"
       orient="auto"
       refY="0.0"
       refX="0.0"
       id="marker5005"
       style="overflow:visible;"
       inkscape:isstock="true">
      <path
         id="path5003"
         d="M 0.0,0.0 L 5.0,-5.0 L -12.5,0.0 L 5.0,5.0 L 0.0,0.0 z "
         style="fill-rule:evenodd;stroke:#000000;stroke-width:1pt;stroke-opacity:1;fill:#800000;fill-opacity:1"
         transform="scale(0.8) rotate(180) translate(12.5,0)" />
    </marker>
    <marker
       inkscape:stockid="Arrow1Lend"
       orient="auto"
       refY="0.0"
       refX="0.0"
       id="Arrow1Lend"
       style="overflow:visible;"
       inkscape:isstock="true">
      <path
         id="path4724"
         d="M 0.0,0.0 L 5.0,-5.0 L -12.5,0.0 L 5.0,5.0 L 0.0,0.0 z "
         style="fill-rule:evenodd;stroke:#000000;stroke-width:1pt;stroke-opacity:1;fill:#800000;fill-opacity:1"
         transform="scale(0.8) rotate(180) translate(12.5,0)" />
    </marker>
    <radialGradient
       id="radialGradient5692"
       gradientUnits="userSpaceOnUse"
       cy="307.28"
       cx="546.31"
       gradientTransform="matrix(0.35277779,0,0,0.352806,-158.28953,145.89039)"
       r="29.986"
       inkscape:collect="always">
      <stop
         id="stop5688"
         style="stop-color:#ccdff4"
         offset="0" />
      <stop
         id="stop5690"
         style="stop-color:#6898d2"
         offset="1" />
    </radialGradient>
    <marker
       inkscape:stockid="Arrow2Mstart"
       orient="auto"
       refY="0"
       refX="0"
       id="Arrow2Mstart-2"
       style="overflow:visible"
       inkscape:isstock="true">
      <path
         inkscape:connector-curvature="0"
         id="path4745-5"
         style="fill:#000000;fill-opacity:1;fill-rule:evenodd;stroke:#000000;stroke-width:0.625;stroke-linejoin:round;stroke-opacity:1"
         d="M 8.7185878,4.0337352 -2.2072895,0.01601326 8.7185884,-4.0017078 c -1.7454984,2.3720609 -1.7354408,5.6174519 -6e-7,8.035443 z"
         transform="scale(0.6)" />
    </marker>
    <marker
       inkscape:stockid="Arrow2Mstart"
       orient="auto"
       refY="0"
       refX="0"
       id="Arrow2Mstart-2-6"
       style="overflow:visible"
       inkscape:isstock="true">
      <path
         inkscape:connector-curvature="0"
         id="path4745-5-9"
         style="fill:#000000;fill-opacity:1;fill-rule:evenodd;stroke:#000000;stroke-width:0.625;stroke-linejoin:round;stroke-opacity:1"
         d="M 8.7185878,4.0337352 -2.2072895,0.01601326 8.7185884,-4.0017078 c -1.7454984,2.3720609 -1.7354408,5.6174519 -6e-7,8.035443 z"
         transform="scale(0.6)" />
    </marker>
    <marker
       inkscape:stockid="Arrow2Mstart"
       orient="auto"
       refY="0"
       refX="0"
       id="Arrow2Mstart-2-6-3"
       style="overflow:visible"
       inkscape:isstock="true">
      <path
         inkscape:connector-curvature="0"
         id="path4745-5-9-3"
         style="fill:#000000;fill-opacity:1;fill-rule:evenodd;stroke:#000000;stroke-width:0.625;stroke-linejoin:round;stroke-opacity:1"
         d="M 8.7185878,4.0337352 -2.2072895,0.01601326 8.7185884,-4.0017078 c -1.7454984,2.3720609 -1.7354408,5.6174519 -6e-7,8.035443 z"
         transform="scale(0.6)" />
    </marker>
    <marker
       inkscape:stockid="Arrow2Mstart"
       orient="auto"
       refY="0"
       refX="0"
       id="Arrow2Mstart-2-6-5"
       style="overflow:visible"
       inkscape:isstock="true">
      <path
         inkscape:connector-curvature="0"
         id="path4745-5-9-2"
         style="fill:#000000;fill-opacity:1;fill-rule:evenodd;stroke:#000000;stroke-width:0.625;stroke-linejoin:round;stroke-opacity:1"
         d="M 8.7185878,4.0337352 -2.2072895,0.01601326 8.7185884,-4.0017078 c -1.7454984,2.3720609 -1.7354408,5.6174519 -6e-7,8.035443 z"
         transform="scale(0.6)" />
    </marker>
    <marker
       inkscape:stockid="Arrow2Mstart"
       orient="auto"
       refY="0"
       refX="0"
       id="Arrow2Mstart-2-6-3-9"
       style="overflow:visible"
       inkscape:isstock="true">
      <path
         inkscape:connector-curvature="0"
         id="path4745-5-9-3-4"
         style="fill:#000000;fill-opacity:1;fill-rule:evenodd;stroke:#000000;stroke-width:0.625;stroke-linejoin:round;stroke-opacity:1"
         d="M 8.7185878,4.0337352 -2.2072895,0.01601326 8.7185884,-4.0017078 c -1.7454984,2.3720609 -1.7354408,5.6174519 -6e-7,8.035443 z"
         transform="scale(0.6)" />
    </marker>
    <marker
       inkscape:isstock="true"
       style="overflow:visible"
       id="marker7109-6"
       refX="0"
       refY="0"
       orient="auto"
       inkscape:stockid="Arrow2Mstart">
      <path
         inkscape:connector-curvature="0"
         transform="scale(0.6)"
         d="M 8.7185878,4.0337352 -2.2072895,0.01601326 8.7185884,-4.0017078 c -1.7454984,2.3720609 -1.7354408,5.6174519 -6e-7,8.035443 z"
         style="fill:#000000;fill-opacity:1;fill-rule:evenodd;stroke:#000000;stroke-width:0.625;stroke-linejoin:round;stroke-opacity:1"
         id="path7107-0" />
    </marker>
    <marker
       inkscape:stockid="Arrow2Mstart"
       orient="auto"
       refY="0"
       refX="0"
       id="Arrow2Mstart-2-7"
       style="overflow:visible"
       inkscape:isstock="true">
      <path
         inkscape:connector-curvature="0"
         id="path4745-5-4"
         style="fill:#000000;fill-opacity:1;fill-rule:evenodd;stroke:#000000;stroke-width:0.625;stroke-linejoin:round;stroke-opacity:1"
         d="M 8.7185878,4.0337352 -2.2072895,0.01601326 8.7185884,-4.0017078 c -1.7454984,2.3720609 -1.7354408,5.6174519 -6e-7,8.035443 z"
         transform="scale(0.6)" />
    </marker>
    <marker
       inkscape:isstock="true"
       style="overflow:visible"
       id="marker7109-6-3"
       refX="0"
       refY="0"
       orient="auto"
       inkscape:stockid="Arrow2Mstart">
      <path
         inkscape:connector-curvature="0"
         transform="scale(0.6)"
         d="M 8.7185878,4.0337352 -2.2072895,0.01601326 8.7185884,-4.0017078 c -1.7454984,2.3720609 -1.7354408,5.6174519 -6e-7,8.035443 z"
         style="fill:#000000;fill-opacity:1;fill-rule:evenodd;stroke:#000000;stroke-width:0.625;stroke-linejoin:round;stroke-opacity:1"
         id="path7107-0-6" />
    </marker>
    <marker
       inkscape:stockid="Arrow2Mstart"
       orient="auto"
       refY="0"
       refX="0"
       id="Arrow2Mstart-2-7-7"
       style="overflow:visible"
       inkscape:isstock="true">
      <path
         inkscape:connector-curvature="0"
         id="path4745-5-4-5"
         style="fill:#000000;fill-opacity:1;fill-rule:evenodd;stroke:#000000;stroke-width:0.625;stroke-linejoin:round;stroke-opacity:1"
         d="M 8.7185878,4.0337352 -2.2072895,0.01601326 8.7185884,-4.0017078 c -1.7454984,2.3720609 -1.7354408,5.6174519 -6e-7,8.035443 z"
         transform="scale(0.6)" />
    </marker>
    <marker
       inkscape:isstock="true"
       style="overflow:visible"
       id="marker7109-6-3-5"
       refX="0"
       refY="0"
       orient="auto"
       inkscape:stockid="Arrow2Mstart">
      <path
         inkscape:connector-curvature="0"
         transform="scale(0.6)"
         d="M 8.7185878,4.0337352 -2.2072895,0.01601326 8.7185884,-4.0017078 c -1.7454984,2.3720609 -1.7354408,5.6174519 -6e-7,8.035443 z"
         style="fill:#000000;fill-opacity:1;fill-rule:evenodd;stroke:#000000;stroke-width:0.625;stroke-linejoin:round;stroke-opacity:1"
         id="path7107-0-6-6" />
    </marker>
    <marker
       inkscape:stockid="Arrow2Mstart"
       orient="auto"
       refY="0"
       refX="0"
       id="Arrow2Mstart-2-7-7-2"
       style="overflow:visible"
       inkscape:isstock="true">
      <path
         inkscape:connector-curvature="0"
         id="path4745-5-4-5-9"
         style="fill:#000000;fill-opacity:1;fill-rule:evenodd;stroke:#000000;stroke-width:0.625;stroke-linejoin:round;stroke-opacity:1"
         d="M 8.7185878,4.0337352 -2.2072895,0.01601326 8.7185884,-4.0017078 c -1.7454984,2.3720609 -1.7354408,5.6174519 -6e-7,8.035443 z"
         transform="scale(0.6)" />
    </marker>
    <marker
       inkscape:isstock="true"
       style="overflow:visible"
       id="marker7109-6-3-2"
       refX="0"
       refY="0"
       orient="auto"
       inkscape:stockid="Arrow2Mstart">
      <path
         inkscape:connector-curvature="0"
         transform="scale(0.6)"
         d="M 8.7185878,4.0337352 -2.2072895,0.01601326 8.7185884,-4.0017078 c -1.7454984,2.3720609 -1.7354408,5.6174519 -6e-7,8.035443 z"
         style="fill:#000000;fill-opacity:1;fill-rule:evenodd;stroke:#000000;stroke-width:0.625;stroke-linejoin:round;stroke-opacity:1"
         id="path7107-0-6-7" />
    </marker>
    <marker
       inkscape:stockid="Arrow2Mstart"
       orient="auto"
       refY="0"
       refX="0"
       id="Arrow2Mstart-2-7-7-0"
       style="overflow:visible"
       inkscape:isstock="true">
      <path
         inkscape:connector-curvature="0"
         id="path4745-5-4-5-93"
         style="fill:#000000;fill-opacity:1;fill-rule:evenodd;stroke:#000000;stroke-width:0.625;stroke-linejoin:round;stroke-opacity:1"
         d="M 8.7185878,4.0337352 -2.2072895,0.01601326 8.7185884,-4.0017078 c -1.7454984,2.3720609 -1.7354408,5.6174519 -6e-7,8.035443 z"
         transform="scale(0.6)" />
    </marker>
  </defs>
  <sodipodi:namedview
     id="base"
     pagecolor="#ffffff"
     bordercolor="#666666"
     borderopacity="1.0"
     inkscape:pageopacity="0.0"
     inkscape:pageshadow="2"
     inkscape:zoom="4"
     inkscape:cx="154.51888"
     inkscape:cy="88.040163"
     inkscape:document-units="mm"
     inkscape:current-layer="layer1"
     showgrid="false"
     units="px"
     inkscape:window-width="1920"
     inkscape:window-height="958"
     inkscape:window-x="0"
     inkscape:window-y="30"
     inkscape:window-maximized="1" />
  <metadata
     id="metadata5">
    <rdf:RDF>
      <cc:Work
         rdf:about="">
        <dc:format>image/svg+xml</dc:format>
        <dc:type
           rdf:resource="http://purl.org/dc/dcmitype/StillImage" />
        <dc:title />
      </cc:Work>
    </rdf:RDF>
  </metadata>
  <g
     inkscape:label="Calque 1"
     inkscape:groupmode="layer"
     id="layer1"
     transform="translate(0,-229.26665)">
    <g
       id="g4513"
       transform="matrix(0.28050286,0,0,0.34432287,11.005131,160.19187)">
      <path
         inkscape:connector-curvature="0"
         style="fill:#bdbdbd;fill-rule:evenodd;stroke:#7d7d7d;stroke-width:0.70555556;stroke-miterlimit:10"
         d="M -7.8195325,224.68707 H 22.519359 l -0.705557,18.34444 H -7.1139769 Z"
         id="path634" />
      <path
         inkscape:connector-curvature="0"
         style="fill:#8a9ec2;fill-rule:evenodd;stroke:#7d7d7d;stroke-width:0.70555556;stroke-miterlimit:10"
         d="M -5.8439769,226.80373 H 20.542672 l -0.14056,14.81667 H -5.5628976 Z"
         id="path636" />
      <path
         inkscape:connector-curvature="0"
         style="fill:#bdbdbd;fill-rule:evenodd;stroke:#7d7d7d;stroke-width:0.70555556;stroke-miterlimit:10"
         d="M -7.1139769,243.63265 H 21.813802 l 3.527777,11.28889 h -35.983334 z"
         id="path638" />
      <path
         inkscape:connector-curvature="0"
         style="fill:#9c9c9c;fill-rule:evenodd;stroke:#7d7d7d;stroke-width:0.35277778;stroke-miterlimit:10"
         d="M -6.5495325,245.74931 H 21.460459 l 1.76389,7.76111 H 11.229904 l -0.705556,-2.11666 H -3.5867636 l -0.7055556,2.11666 h -4.2333334 z"
         id="path640" />
      <path
         inkscape:connector-curvature="0"
         style="fill:#9c9c9c;fill-rule:evenodd;stroke:#7d7d7d;stroke-width:0.35277778;stroke-miterlimit:10"
         d="M -2.7395323,252.09931 H 9.819921 l 0.423051,1.41111 H -3.2328569 Z"
         id="path642" />
      <path
         inkscape:connector-curvature="0"
         style="fill:#7d7d7d;fill-rule:evenodd;stroke:#7d7d7d;stroke-width:0.35277778;stroke-miterlimit:10"
         d="m 15.181579,244.76154 c 0,0.4699 -0.846102,0.4699 -0.846102,0 0,-0.4699 0.846102,-0.4699 0.846102,0"
         id="path644" />
      <path
         inkscape:connector-curvature="0"
         style="fill:#7d7d7d;fill-rule:evenodd;stroke:#7d7d7d;stroke-width:0.35277778;stroke-miterlimit:10"
         d="m 16.733802,244.76154 c 0,0.4699 -0.847487,0.4699 -0.847487,0 0,-0.4699 0.847487,-0.4699 0.847487,0"
         id="path646" />
      <path
         inkscape:connector-curvature="0"
         style="fill:#00ff00;fill-rule:evenodd;stroke:#7d7d7d;stroke-width:0.35277778;stroke-linejoin:round;stroke-miterlimit:10"
         d="m 17.721579,244.47649 h 2.39917 v 0.56501 h -2.39917 z"
         id="path648" />
    </g>
    <g
       transform="matrix(0.34867844,0,0,0.34867844,36.018029,159.14397)"
       id="g6025">
      <path
         inkscape:connector-curvature="0"
         style="fill:#e1e1e1;fill-rule:evenodd;stroke:#7d7d7d;stroke-width:1.05833328;stroke-miterlimit:10"
         d="m 40.197364,227.39053 4.233333,-4.23333 H 58.54181 l 4.233333,4.23333 V 261.2572 H 40.197364 Z"
         id="path1028" />
      <path
         inkscape:connector-curvature="0"
         style="fill:url(#radialGradient5692);fill-rule:evenodd;stroke:#262626;stroke-width:0.70555556;stroke-miterlimit:10"
         d="m 45.757142,257.79433 c 0,5.64727 -4.577927,10.22632 -10.224912,10.22632 -5.648677,0 -10.226322,-4.57933 -10.226322,-10.22632 0,-5.64727 4.577927,-10.22632 10.226322,-10.22632 5.647267,0 10.224912,4.57934 10.224912,10.22632"
         id="path1052" />
      <path
         inkscape:connector-curvature="0"
         style="fill:#deeeff;fill-rule:evenodd;stroke:#7d7d7d;stroke-width:0.35277778;stroke-miterlimit:10"
         d="m 30.136142,249.37846 0.493324,-0.339 0.614595,-0.3004 0.877825,-0.30731 0.792367,-0.3004 1.039029,-0.13781 1.692232,-0.22323 2.007786,0.15158 2.822222,1.05833 1.763889,1.05833 2.116667,2.46945 1.058333,2.82222 0.202571,3.73719 -0.551209,2.25998 -0.62563,1.51446 -0.288008,0.26458 -0.199813,-0.26458 -0.0083,-0.55401 0.225995,-0.61603 -0.124023,-0.57743 -0.304546,-0.19431 -0.108867,-0.37479 -0.170871,-0.34312 -0.304546,-0.0692 -0.264584,-0.008 -0.381734,0.20257 -0.52228,0.5691 -0.600823,0.40513 -0.741398,-0.0233 -0.396861,-0.20948 -0.607709,-0.0247 -0.304546,-0.3197 -0.03859,-0.86541 -0.117136,-0.4038 -0.18741,-0.25082 v -0.59253 l 0.01651,-0.53741 0.365196,-0.35828 v -0.50715 l -0.08544,-0.50574 0.07027,-0.35969 0.405158,-0.54568 0.281116,-0.18606 0.311432,-0.38997 0.234268,-0.22599 0.381733,0.16397 0.709676,-0.055 0.288008,-0.1874 0.0551,-0.59944 0.36655,-0.20397 0.19431,-0.34313 -0.0082,-0.37344 -0.264583,-0.33485 -0.217735,0.20256 -0.163985,0.24942 -0.257688,-0.0785 -0.210843,-0.28801 -0.209465,-0.008 -0.234264,0.24257 -0.172255,0.20257 -0.05376,0.20948 0.288008,0.4134 0.100598,0.13645 0.06336,0.12263 -0.03859,0.0466 -0.05652,-0.0289 -0.07579,0.1833 -0.09646,0.0564 -0.09922,-0.0564 0.05927,-0.17223 -0.05235,-0.14471 -0.140561,-0.14195 -0.177763,-0.0466 -0.296277,-0.008 -0.17088,0.0388 -0.378968,0.22182 -0.19017,0.21082 0.0813,0.35001 -0.0041,0.56637 -0.132292,0.24116 -0.381705,0.31143 -0.316936,-0.0677 -0.271475,-0.32112 -0.0496,-0.34177 0.205331,-0.25357 0.151581,-0.21224 -0.07855,-0.17497 -0.224621,-0.46855 -0.274227,-0.33485 -0.194304,0.0785 -0.147453,-0.10195 0.25632,-0.21082 0.02342,-0.28801 0.140561,-0.6311 0.272853,-0.29628 0.195678,-0.12538 -0.125396,-0.288 0.06202,-0.3197 0.0937,-0.19566 -0.374819,-0.3101 -0.443738,-0.23425 0.155725,0.94257 -0.288008,0.23424 -0.296277,0.23425 -0.319645,-0.5465 -0.358309,-0.27974 -0.148822,-0.43682 -0.04548,-0.42858 0.552591,-0.81029 -0.52228,-0.19568 -0.264584,-0.35828 -0.436823,0.13366 -0.443738,-0.0937 -0.56913,-0.31282 h -0.405163 l -0.367933,-0.30316 -0.56086,0.007 -0.482318,0.32797 -1.248495,0.0234 -0.602206,0.47267 -0.253562,0.0372 z"
         id="path1056" />
      <path
         inkscape:connector-curvature="0"
         style="fill:#deeeff;fill-rule:evenodd;stroke:#7d7d7d;stroke-width:0.35277778;stroke-miterlimit:10"
         d="m 34.448497,250.64846 0.05235,0.28386 0.234265,0.25083 0.08958,0.39553 0.06336,0.51125 -0.173629,0.62837 -0.118514,0.22048 -0.28527,0.0979 -0.166743,0.17914 -0.152964,0.18606 -0.184652,0.23565 -0.219109,0.003 -0.203948,-0.13095 -0.19017,-0.20948 -0.08958,-0.20807 0.02893,-0.25082 0.0813,-0.10611 0.08958,-0.1874 -0.05101,-0.23291 -0.217729,-0.48508 -0.318347,-0.27559 -0.310049,0.0593 -0.179149,-0.0289 -0.208082,-0.32794 -0.250803,-0.0508 -0.139178,-0.12813 -0.07855,-0.24532 0.639403,0.0332 0.556711,-0.0854 0.593937,-0.0162 0.409279,0.0466 0.326587,-0.004 z"
         id="path1060" />
      <path
         inkscape:connector-curvature="0"
         style="fill:#deeeff;fill-rule:evenodd;stroke:#7d7d7d;stroke-width:0.35277778;stroke-miterlimit:10"
         d="m 29.190697,249.98524 0.775829,-0.20115 0.307312,0.31284 0.213591,0.24116 -0.155716,0.3197 -0.264583,0.38586 0.147455,0.25766 0.06336,0.27284 -0.183283,0.37761 0.245293,0.21082 0.187418,0.26184 0.02201,0.27834 -0.07027,0.32108 -0.06893,0.10887 -0.585667,0.58843 0.199813,0.5581 0.113002,0.42855 0.471283,-0.29215 0.268718,-0.28801 0.225998,-0.36243 0.311432,0.30316 0.257691,0.21499 0.347275,0.019 0.225998,0.27699 0.03168,0.42856 0.139183,0.24532 0.05927,0.25767 0.214977,0.35004 0.224621,0.32794 -0.237024,0.14746 -0.300398,-0.13921 -0.206708,-0.2384 -0.05786,-0.17639 -0.355543,-0.084 -0.322467,-0.0317 -0.191545,0.1047 0.159851,0.21498 0.245294,-0.008 0.214977,0.10195 0.132291,0.24116 0.01101,0.26458 -0.183275,0.12129 -0.35416,-0.0317 h -0.326589 l -0.270092,0.30869 -0.498856,0.39686 -0.23013,0.54568 -0.52228,0.54982 -0.396861,0.27701 -0.03168,0.91225 -0.136426,0.0466 -0.132292,-0.0744 -0.09784,-0.21907 -0.04269,-0.49056 -0.486438,-0.0494 -0.217729,0.1047 -0.332119,-0.0937 -0.288008,0.1874 -0.144695,0.41614 -0.08544,0.37897 0.202573,0.29627 0.865407,0.0896 -0.05652,0.46713 v 0.48232 l 1.14791,1.08176 0.570513,0.22182 0.202573,-0.15712 0.394123,0.19706 0.615978,-0.0452 0.47817,-0.0261 0.425817,0.084 0.65594,0.72898 0.242534,0.0979 0.779949,-0.0402 0.642169,0.73452 0.472666,0.007 0.274229,0.30869 0.282505,0.0452 0.35416,-0.26875 0.589788,0.0127 0.445093,0.17639 0.151587,0.15155 0.04544,0.44648 0.163985,0.31417 -0.235641,0.39962 -0.04685,0.46581 -0.150205,0.45198 -0.228755,0.32112 -0.49197,0.0402 -0.237024,0.0909 -0.274229,0.4134 -0.420286,0.5374 -0.813054,0.0522 -1.486916,-0.17638 -0.314198,-0.1929 -0.158473,-0.53608 -0.635283,-0.63529 -0.779977,-0.19565 -0.432703,-0.74139 -0.46578,-0.13089 -0.197062,-0.34859 -0.261826,-0.22875 -0.09233,-0.3872 0.118514,-0.66695 0.09784,-0.38038 -0.789601,-0.80891 -1.524113,-1.42076 -0.09095,-0.37344 -0.505742,-0.21632 -0.314199,-0.4134 -0.03859,-0.54982 v -0.6367 l -0.151581,-0.41204 -0.439589,-0.0924 -0.104733,-0.70832 0.158476,-0.94395 0.307312,-0.35969 0.07855,-1.19338 0.446475,-0.73451 0.563626,-0.92329 0.05235,-0.3087 0.839216,-1.11483 0.281122,-0.7469 0.315581,-0.62286 0.104733,-0.2425 z"
         id="path1064" />
      <path
         inkscape:connector-curvature="0"
         style="fill:#deeeff;fill-rule:evenodd;stroke:#7d7d7d;stroke-width:0.35277778;stroke-miterlimit:10"
         d="m 28.761719,260.20169 0.213592,-0.1433 0.376202,0.1488 0.283888,0.38171 0.381705,0.0964 0.09784,0.23975 h 0.141943 l 0.407896,0.10337 0.175012,0.30457 -0.51816,-0.0452 -0.278362,-0.19431 -0.07717,-0.16122 -0.143318,0.0717 -0.562243,-0.25908 -0.434086,-0.28527 z"
         id="path1066" />
      <path
         inkscape:connector-curvature="0"
         style="fill:#deeeff;fill-rule:evenodd;stroke:#7d7d7d;stroke-width:0.35277778;stroke-miterlimit:10"
         d="m 31.984697,261.12455 0.283888,-0.0261 0.259071,0.1874 0.446476,0.0508 0.323822,0.21498 -0.09095,0.22599 -0.38862,0.0979 -0.33624,-0.18881 -0.194302,0.019 -0.238401,-0.0508 -0.08543,-0.27834 z"
         id="path1068" />
      <path
         inkscape:connector-curvature="0"
         style="fill:#deeeff;fill-rule:evenodd;stroke:#7d7d7d;stroke-width:0.35277778;stroke-miterlimit:10"
         d="m 30.632853,250.93351 0.213594,-0.0303 0.143318,0.11296 0.07854,0.31284 0.121271,0.19015 -0.117137,0.13645 -0.230129,0.0744 -0.272853,0.0937 -0.0551,-0.18331 -0.04685,-0.277 0.06202,-0.21773 z"
         id="path1070" />
      <g
         id="g5975">
        <path
           id="path1030"
           d="m 42.314031,228.09609 3.527777,-3.52778 h 11.288889 l 3.527779,3.52778 z"
           style="fill:#bdbdbd;fill-rule:evenodd;stroke:#9c9c9c;stroke-width:0.35277778;stroke-miterlimit:10"
           inkscape:connector-curvature="0" />
        <path
           id="path1032"
           d="m 42.666808,228.80164 h 17.638889 c 0.19431,0 0.352779,0.15709 0.352779,0.35278 v 30.33889 c 0,0.19431 -0.158469,0.35278 -0.352779,0.35278 H 42.666808 c -0.195684,0 -0.352777,-0.15847 -0.352777,-0.35278 v -30.33889 c 0,-0.19569 0.157093,-0.35278 0.352777,-0.35278"
           style="fill:#bdbdbd;fill-rule:evenodd;stroke:#9c9c9c;stroke-width:0.35277778;stroke-linejoin:round;stroke-miterlimit:10"
           inkscape:connector-curvature="0" />
        <path
           id="path1034"
           d="m 44.07792,230.91831 h 14.816666 c 0.19431,0 0.352777,0.15709 0.352777,0.35278 v 3.52777 c 0,0.19431 -0.158467,0.35278 -0.352777,0.35278 H 44.07792 c -0.195685,0 -0.352778,-0.15847 -0.352778,-0.35278 v -3.52777 c 0,-0.19569 0.157093,-0.35278 0.352778,-0.35278"
           style="fill:#9c9c9c;fill-rule:evenodd;stroke:#7d7d7d;stroke-width:1.05833328;stroke-linejoin:round;stroke-miterlimit:10"
           inkscape:connector-curvature="0" />
        <path
           id="path1036"
           d="m 44.07792,237.26831 h 14.816666 c 0.19431,0 0.352777,0.15709 0.352777,0.35278 v 3.52777 c 0,0.19431 -0.158467,0.35278 -0.352777,0.35278 H 44.07792 c -0.195685,0 -0.352778,-0.15847 -0.352778,-0.35278 v -3.52777 c 0,-0.19569 0.157093,-0.35278 0.352778,-0.35278"
           style="fill:#9c9c9c;fill-rule:evenodd;stroke:#7d7d7d;stroke-width:1.05833328;stroke-linejoin:round;stroke-miterlimit:10"
           inkscape:connector-curvature="0" />
        <path
           id="path1038"
           d="m 50.42792,245.02942 h 8.466666 c 0.19431,0 0.352777,0.15848 0.352777,0.35278 v 2.82222 c 0,0.1943 -0.158467,0.35278 -0.352777,0.35278 H 50.42792 c -0.195722,0 -0.352778,-0.15848 -0.352778,-0.35278 v -2.82222 c 0,-0.1943 0.157056,-0.35278 0.352778,-0.35278"
           style="fill:#9c9c9c;fill-rule:evenodd;stroke:#7d7d7d;stroke-width:1.05833328;stroke-linejoin:round;stroke-miterlimit:10"
           inkscape:connector-curvature="0" />
        <path
           id="path1040"
           d="m 47.958475,246.79331 c 0,2.35232 -3.527778,2.35232 -3.527778,0 0,-2.35232 3.527778,-2.35232 3.527778,0"
           style="fill:#c51900;fill-rule:evenodd;stroke:#7d7d7d;stroke-width:0.70555556;stroke-linejoin:round;stroke-miterlimit:10"
           inkscape:connector-curvature="0" />
        <path
           id="path1042"
           d="m 47.25292,251.74913 h 1.411111 v 7.76111 H 47.25292 Z"
           style="fill:#9c9c9c;fill-rule:evenodd;stroke:#7d7d7d;stroke-width:0.70555556;stroke-miterlimit:10"
           inkscape:connector-curvature="0" />
        <path
           id="path1044"
           d="m 50.075142,251.74913 h 1.411111 v 7.76111 h -1.411111 z"
           style="fill:#9c9c9c;fill-rule:evenodd;stroke:#7d7d7d;stroke-width:0.70555556;stroke-miterlimit:10"
           inkscape:connector-curvature="0" />
        <path
           id="path1046"
           d="m 52.897363,251.74913 h 1.411113 v 7.76111 h -1.411113 z"
           style="fill:#9c9c9c;fill-rule:evenodd;stroke:#7d7d7d;stroke-width:0.70555556;stroke-miterlimit:10"
           inkscape:connector-curvature="0" />
        <path
           id="path1048"
           d="m 55.719586,251.74913 h 1.411111 v 7.76111 h -1.411111 z"
           style="fill:#9c9c9c;fill-rule:evenodd;stroke:#7d7d7d;stroke-width:0.70555556;stroke-miterlimit:10"
           inkscape:connector-curvature="0" />
        <path
           id="path1050"
           d="m 58.54181,251.76606 h 1.41111 v 7.76112 h -1.41111 z"
           style="fill:#9c9c9c;fill-rule:evenodd;stroke:#7d7d7d;stroke-width:0.70555556;stroke-miterlimit:10"
           inkscape:connector-curvature="0" />
        <path
           id="path1058"
           d="m 37.104208,252.8244 0.10611,0.0374 0.19431,0.18055 0.231507,0.0374 0.333474,0.0882 0.136426,0.34036 -0.150207,0.14605 -0.147453,0.12954 -0.162611,-0.0965 0.0276,0.12538 -0.241151,0.0744 -0.217734,0.13229 0.01377,-0.42446 0.176389,-0.0374 0.101973,-0.0332 0.111619,0.12129 -0.08268,-0.21358 -0.181901,-0.01 -0.143318,-0.2315 -0.07854,-0.18464 z"
           style="fill:#deeeff;fill-rule:evenodd;stroke:#7d7d7d;stroke-width:0.35277778;stroke-miterlimit:10"
           inkscape:connector-curvature="0" />
        <path
           id="path1062"
           d="m 35.410875,252.27971 0.175011,0.0261 0.322467,-0.004 0.128158,0.1488 0.03034,0.16947 -0.254939,0.0937 -0.256314,0.0416 -0.208083,0.15021 -0.130914,0.055 -0.101976,-0.1833 -0.01377,-0.16947 0.110244,-0.10612 0.09095,-0.12813 z"
           style="fill:#deeeff;fill-rule:evenodd;stroke:#7d7d7d;stroke-width:0.35277778;stroke-miterlimit:10"
           inkscape:connector-curvature="0" />
        <path
           id="path1072"
           d="m 40.459831,254.22986 0.06061,0.23841 0.01101,0.21357 -0.148825,0.0924 -0.12678,-0.0979 -0.0069,-0.1874 0.05235,-0.13088 v -0.12262 z"
           style="fill:#deeeff;fill-rule:evenodd;stroke:#7d7d7d;stroke-width:0.35277778;stroke-miterlimit:10"
           inkscape:connector-curvature="0" />
      </g>
      <path
         inkscape:connector-curvature="0"
         style="fill:none;stroke:#7d7d7d;stroke-width:0.70555556;stroke-miterlimit:10"
         d="m 45.757142,257.79433 c 0,5.64727 -4.577927,10.22632 -10.224912,10.22632 -5.648677,0 -10.226322,-4.57933 -10.226322,-10.22632 0,-5.64727 4.577927,-10.22632 10.226322,-10.22632 5.647267,0 10.224912,4.57934 10.224912,10.22632"
         id="path1074" />
    </g>
    <g
       id="g4717"
       transform="matrix(0.05447536,0,0,0.05447536,-28.987237,249.34626)">
      <g
         id="g3652"
         transform="matrix(1.25,0,0,1.25,-2.6736208,185.78368)">
        <path
           id="path3654"
           d="m 547.06133,27.893333 c 1.49334,-0.02133 2.99734,-0.04267 4.50134,-0.05333 0.0213,0.832 0.0533,2.485333 0.0747,3.317333 -1.536,0 -3.072,-0.01067 -4.59733,-0.01067 0,-0.810667 0.0213,-2.432 0.0213,-3.253334 z"
           inkscape:connector-curvature="0"
           style="opacity:0.85;fill:#101010;stroke-width:1.06666672" />
      </g>
      <path
         style="fill:#131313;stroke-width:1.06666672"
         inkscape:connector-curvature="0"
         d="m 567.24638,221.50368 c 3.42667,0.0267 6.86667,0.04 10.32,0.0533 -0.29333,6.13334 0.90667,12.50667 -0.82667,18.48 -2.24,4.29334 -7.81333,3.45334 -11.82666,3.53334 -0.16,-1.36 -0.32,-2.72 -0.46667,-4.08 2.30667,-0.18667 4.81333,0.26666 6.93333,-0.92 1.37334,-4.25334 0.76,-8.8 0.41334,-13.17334 -1.17334,0.0267 -3.50667,0.0533 -4.68,0.0667 0.04,-0.98667 0.0933,-2.97333 0.13333,-3.96 z"
         id="path3664" />
      <path
         style="fill:#131313;stroke-width:1.06666672"
         inkscape:connector-curvature="0"
         d="m 635.89971,223.18368 c 4.04,-3.12 9.34667,-1.84 13.84,-0.62667 -0.0133,1.18667 -0.0267,3.56 -0.0267,4.74667 -3.48,-1.4 -10.09334,-4.45333 -10.97334,1.30667 3.29334,1 6.77334,1.58666 9.76,3.37333 3.17334,2.58667 2.28,8.46667 -1.37333,10.24 -4.16,2.46667 -9.09333,1.12 -13.48,0.22667 -0.25333,-1.82667 -0.50667,-3.64 -0.73333,-5.46667 3.69333,1.62667 11.17333,5.48 12.28,-0.74667 -3.70667,-1.4 -8.32,-1.6 -11.01334,-4.8 -1.18666,-2.72 -0.98666,-6.50666 1.72,-8.25333 z"
         id="path3666" />
      <path
         style="fill:#131313;stroke-width:1.06666672"
         inkscape:connector-curvature="0"
         d="m 709.61971,222.26368 c 1.56,0 3.13334,0 4.72,0 0.04,1.50667 0.0933,3.01333 0.16,4.52 1.2,0.0133 3.61334,0.04 4.82667,0.0533 0.0267,0.92 0.0667,2.74667 0.0933,3.65334 -1.22666,-0.0133 -3.68,-0.04 -4.90666,-0.0667 0.0667,3.05333 -0.72,6.38667 0.81333,9.2 1.14667,0.12 3.44,0.34667 4.58667,0.46667 -0.12,5.61333 -6.52,3.06666 -9.90667,2.18666 -0.30667,-3.42666 -0.45333,-6.85333 -0.45333,-10.29333 -0.86667,-1.21333 -1.73334,-2.44 -2.58667,-3.65333 0.65333,-0.6 1.96,-1.8 2.61333,-2.4 0.0133,-0.92 0.0267,-2.76 0.04,-3.66667 z"
         id="path3668" />
      <path
         style="fill:#131313;stroke-width:1.06666672"
         inkscape:connector-curvature="0"
         d="m 581.72638,226.95701 c 4.34667,-0.22666 10.42667,-1.84 13.16,2.65334 0.97333,4.45333 0.36,9.08 0.50667,13.61333 -1.94667,-0.17333 -3.89334,-0.36 -5.82667,-0.53333 -2.21333,0.18666 -4.81333,1.82666 -6.85333,0.36 -3.38667,-1.62667 -3.44,-7.62667 0.12,-9.08 2.58666,-1.06667 5.41333,-1.25334 8.12,-1.89334 -2.57334,-2.66666 -6.22667,-1.65333 -9.46667,-1.30666 0.0667,-0.96 0.18667,-2.86667 0.24,-3.81334 m 4.24,9.16 c -0.14667,1.29334 -0.28,2.58667 -0.4,3.89334 1.48,-0.08 2.96,-0.14667 4.45333,-0.22667 0.10667,-1.4 0.22667,-2.8 0.34667,-4.2 -1.48,0.17333 -2.94667,0.36 -4.4,0.53333 z"
         id="path3670" />
      <path
         style="fill:#131313;stroke-width:1.06666672"
         inkscape:connector-curvature="0"
         d="m 597.37971,226.49035 c 1.28,0.25333 3.85334,0.76 5.13334,1.01333 1.34666,3.09333 2.26666,6.34667 3.57333,9.46667 1.09333,-3.33334 2.10667,-6.70667 3.09333,-10.08 1.28,-0.0267 3.85334,-0.0667 5.13334,-0.0933 -1.81334,5.72 -3.84,11.37334 -6.10667,16.94667 -1.76,-0.22667 -3.49333,-0.6 -5.17333,-1.09333 -2.42667,-5.17334 -4.02667,-10.69334 -5.65334,-16.16 z"
         id="path3672" />
      <path
         style="fill:#131313;stroke-width:1.06666672"
         inkscape:connector-curvature="0"
         d="m 615.96638,230.74368 c 0.37333,-1.26667 0.8,-2.53333 1.26667,-3.77333 4.13333,-0.6 9.73333,-1.48 12.57333,2.38666 0.97333,4.61334 0.37333,9.38667 0.46667,14.06667 -1.96,-0.26667 -3.90667,-0.53333 -5.85334,-0.8 -3.49333,1.85333 -9.32,1.18667 -9.24,-3.73333 -0.66666,-5.84 6.62667,-5.92 10.58667,-6.69334 -2.38667,-3.2 -6.52,-1.50666 -9.8,-1.45333 m 4.82667,5.49333 c -0.14667,1.2 -0.28,2.41334 -0.41334,3.61334 1.46667,0.04 2.93334,0.08 4.41334,0.10666 0.13333,-1.48 0.26666,-2.94666 0.4,-4.42666 -1.46667,0.22666 -2.93334,0.46666 -4.4,0.70666 z"
         id="path3674" />
      <path
         style="fill:#131313;stroke-width:1.06666672"
         inkscape:connector-curvature="0"
         d="m 651.63305,235.10368 c -0.41334,-7.25333 8.81333,-11.05333 14.33333,-7.18667 0.13333,1.02667 0.38667,3.09334 0.50667,4.12 -2.53334,-0.8 -5.13334,-2.61333 -7.85334,-1.38666 -2.88,2.74666 -2.28,9.72 2.6,9.30666 1.34667,-0.42666 4.02667,-1.28 5.37334,-1.70666 -0.24,1.14666 -0.70667,3.44 -0.93334,4.57333 -5.77333,2.72 -14.48,-0.49333 -14.02666,-7.72 z"
         id="path3676" />
      <path
         style="fill:#131313;stroke-width:1.06666672"
         inkscape:connector-curvature="0"
         d="m 668.68638,226.43701 c 2,0.53334 4.04,1.06667 6.05333,1.64 1.50667,-0.54666 3.02667,-1.08 4.56,-1.62666 0.0667,1.28 0.22667,3.84 0.30667,5.12 -1.92,0.0933 -3.84,0.18666 -5.73333,0.28 -0.13334,3.82666 -0.17334,7.64 -0.2,11.46666 -1.25334,0.0133 -3.77334,0.0267 -5.02667,0.04 -0.0667,-5.64 -0.08,-11.28 0.04,-16.92 z"
         id="path3678" />
      <path
         style="fill:#131313;stroke-width:1.06666672"
         inkscape:connector-curvature="0"
         d="m 690.36638,226.79701 c 3.68,0.82667 7.38667,0.57334 11.05333,-0.16 5.74667,1.18667 5.88,9.33334 3.69334,13.6 -1.81334,3.68 -6.25334,3.33334 -9.68,3.14667 0.0267,1.94667 0.0533,3.88 0.08,5.82667 -1.28,-0.0133 -3.86667,-0.04 -5.16,-0.0667 0,-7.44 -0.0133,-14.89333 0.0133,-22.34667 m 5.2,3.92 c -0.0533,3.10667 -0.08,6.22667 -0.0533,9.33334 1.65333,-0.45334 3.78666,-0.13334 5.04,-1.56 0.93333,-2.53334 0.2,-5.26667 0.0133,-7.88 -1.66667,0.0267 -3.33333,0.0667 -5,0.10666 z"
         id="path3680" />
      <g
         id="g3688"
         transform="matrix(1.25,0,0,1.25,-2.6736208,185.78368)">
        <path
           id="path3690"
           d="m 547.44533,32.842667 c 0.94934,0 2.848,0 3.78667,0 0.064,4.405333 0.064,8.8 0,13.205333 -0.94933,0 -2.83733,0 -3.78667,0 -0.0747,-4.394667 -0.0747,-8.8 0,-13.205333 z"
           inkscape:connector-curvature="0"
           style="fill:#131313;stroke-width:1.06666672" />
      </g>
      <g
         id="g3768"
         transform="matrix(1.25,0,0,1.25,-2.6736208,185.78368)">
        <path
           id="path3770"
           d="m 468.29867,54.613333 c 10.63466,-0.448 21.29066,0.128 31.936,-0.05333 11.744,-0.373333 23.47733,-0.064 35.232,-0.02133 9.32266,0.02133 18.64533,-0.04267 27.968,0.032 -2.93334,32.352 -5.888,64.704007 -8.608,97.077337 -12.49067,3.552 -24.992,7.05067 -37.48267,10.58133 -1.6,0.66134 -3.24267,0.0427 -4.77867,-0.37333 -11.872,-3.41333 -23.744,-6.79467 -35.63733,-10.08 -3.09333,-32.36267 -6.00533,-64.757337 -8.62933,-97.162671 M 516.064,63.050667 C 515.62667,79.008 516,94.965333 515.872,110.92267 c 0.11733,14.592 -0.21333,29.19466 0.17067,43.78666 10.496,-2.47466 20.85333,-5.51466 31.21066,-8.512 2.60267,-27.70133 5.14134,-55.402663 7.31734,-83.135997 -12.832,-0.128 -25.67467,0.02133 -38.50667,-0.01067 m -13.35467,62.314667 c -6.16533,-1.68533 -12.256,-3.62666 -18.50666,-4.96 -0.18134,3.712 -0.11734,7.424 0.30933,11.11467 9.152,2.22933 18.112,5.16267 27.27467,7.34933 0.064,-21.13066 -0.032,-42.272001 0.0427,-63.402667 -2.98666,-0.07467 -5.97333,-0.117334 -8.96,-0.181334 -0.34133,16.682667 -0.0213,33.386671 -0.16,50.080001 z"
           inkscape:connector-curvature="0"
           style="fill:#d6ba32;stroke-width:1.06666672" />
      </g>
      <g
         id="g3796"
         transform="matrix(1.25,0,0,1.25,-2.6736208,185.78368)">
        <path
           id="path3798"
           d="m 516.064,63.050667 c 12.832,0.032 25.67467,-0.117334 38.50667,0.01067 -2.176,27.733334 -4.71467,55.434663 -7.31734,83.135993 -10.35733,2.99734 -20.71466,6.03734 -31.21066,8.512 -0.384,-14.592 -0.0533,-29.19466 -0.17067,-43.78666 C 516,94.965333 515.62667,79.008 516.064,63.050667 M 519.65867,75.456 c 0.0427,13.738667 0.0533,27.488 0,41.22667 6.272,-1.01334 12.52266,-2.176 18.77333,-3.31734 -0.096,3.2 -0.224,6.4 -0.36267,9.6 -6.09066,1.62134 -12.17066,3.296 -18.29333,4.8 -0.096,3.69067 -0.10667,7.38134 -0.0747,11.08267 7.712,-1.728 15.30667,-3.904 22.96534,-5.83467 0.96,-0.448 2.80533,-0.39466 2.72,-1.89866 0.928,-9.87734 1.504,-19.79734 2.4,-29.696 -6.34667,0.52266 -12.62934,1.58933 -18.976,2.02666 -0.0533,-5.610663 -0.064,-11.22133 0.0213,-16.831997 6.67733,0 13.344,0 20.02133,0.01067 0.42667,-3.744 0.8,-7.498667 1.088,-11.253333 -10.09066,0.04267 -20.192,-0.096 -30.28266,0.08533 z"
           inkscape:connector-curvature="0"
           style="fill:#ffda3e;stroke-width:1.06666672" />
      </g>
      <path
         style="fill:#ebebeb;stroke-width:1.06666672"
         inkscape:connector-curvature="0"
         d="m 625.71305,342.49035 c 0.17333,-20.86667 -0.22667,-41.74667 0.2,-62.6 3.73333,0.08 7.46666,0.13333 11.2,0.22666 -0.0933,26.41334 0.0267,52.84 -0.0533,79.25334 -11.45333,-2.73334 -22.65333,-6.4 -34.09333,-9.18667 -0.53333,-4.61333 -0.61333,-9.25333 -0.38667,-13.89333 7.81334,1.66666 15.42667,4.09333 23.13334,6.2 z"
         id="path3806" />
    </g>
    <path
       style="fill:none;fill-rule:evenodd;stroke:#000000;stroke-width:0.24947481px;stroke-linecap:butt;stroke-linejoin:miter;stroke-opacity:1;marker-end:url(#Arrow2Mstart-2);marker-start:url(#marker7109)"
       d="m 54.705844,256.72784 -0.0913,13.82001 v -0.0869"
       id="path5419-2"
       inkscape:connector-curvature="0"
       inkscape:transform-center-x="-3.2560508"
       inkscape:transform-center-y="0.51673763" />
    <text
       xml:space="preserve"
       style="font-style:normal;font-variant:normal;font-weight:normal;font-stretch:normal;font-size:2.82222223px;line-height:6.61458349px;font-family:Arial;-inkscape-font-specification:Arial;letter-spacing:0px;word-spacing:0px;fill:#000000;fill-opacity:1;stroke:none;stroke-width:0.26458335px;stroke-linecap:butt;stroke-linejoin:miter;stroke-opacity:1"
       x="9.2226162"
       y="235.21976"
       id="text5505"><tspan
         sodipodi:role="line"
         id="tspan5503"
         x="9.2226162"
         y="235.21976"
         style="font-style:normal;font-variant:normal;font-weight:normal;font-stretch:normal;font-size:2.82222223px;font-family:Arial;-inkscape-font-specification:Arial;stroke-width:0.26458335px">Client</tspan></text>
    <text
       xml:space="preserve"
       style="font-style:normal;font-weight:normal;font-size:10.58333302px;line-height:6.61458349px;font-family:sans-serif;letter-spacing:0px;word-spacing:0px;fill:#000000;fill-opacity:1;stroke:none;stroke-width:0.26458335px;stroke-linecap:butt;stroke-linejoin:miter;stroke-opacity:1"
       x="46.302078"
       y="235.29536"
       id="text5959"><tspan
         sodipodi:role="line"
         id="tspan5957"
         x="46.302078"
         y="235.29536"
         style="font-style:normal;font-variant:normal;font-weight:normal;font-stretch:normal;font-size:2.82222223px;font-family:Arial;-inkscape-font-specification:Arial;stroke-width:0.26458335px">Serveur</tspan></text>
    <text
       id="text6029"
       y="238.31915"
       x="26.099257"
       style="font-style:normal;font-weight:normal;font-size:2.82222223px;line-height:6.61458349px;font-family:sans-serif;letter-spacing:0px;word-spacing:0px;fill:#000000;fill-opacity:1;stroke:none;stroke-width:0.26458335px;stroke-linecap:butt;stroke-linejoin:miter;stroke-opacity:1"
       xml:space="preserve"><tspan
         style="font-style:normal;font-variant:normal;font-weight:normal;font-stretch:normal;font-family:Arial;-inkscape-font-specification:Arial;stroke-width:0.26458335px"
         y="238.31915"
         x="26.099257"
         id="tspan6027"
         sodipodi:role="line">requête</tspan></text>
    <g
       id="g7093"
       transform="translate(-1.2284226,-1.984375)">
      <path
         inkscape:connector-curvature="0"
         d="m 8.6827648,279.69649 c -0.2617905,0 -0.4725247,0.27543 -0.4725247,0.61755 v 9.18145 c 0,0.34211 0.2107342,0.61755 0.4725247,0.61755 h 9.4708592 c 0.261671,0 0.472445,-0.27544 0.472445,-0.61755 v -9.18145 c 0,-0.34217 -0.210774,-0.61759 -0.472445,-0.61759 H 8.6827648 Z"
         style="fill:none;stroke:#ffffff;stroke-width:1.67164171;stroke-linecap:round;stroke-linejoin:round"
         sodipodi:nodetypes="ccccccccc"
         id="path1761" />
      <path
         inkscape:connector-curvature="0"
         d="m 8.6827648,279.69649 c -0.2617905,0 -0.4725247,0.27543 -0.4725247,0.61755 v 9.18145 c 0,0.34211 0.2107342,0.61755 0.4725247,0.61755 h 9.4708592 c 0.261671,0 0.472445,-0.27544 0.472445,-0.61755 v -9.18145 c 0,-0.34217 -0.210774,-0.61759 -0.472445,-0.61759 H 8.6827648 Z"
         style="fill:#ffffff;fill-rule:evenodd;stroke-width:0.1995966"
         sodipodi:nodetypes="ccccccccc"
         id="path1128" />
      <path
         inkscape:connector-curvature="0"
         style="fill:#5e8fcb;fill-rule:evenodd;stroke-width:0.62373936;stroke-linecap:round;stroke-linejoin:round"
         d="m 8.6735437,279.65815 c -0.2566809,0 -0.4633036,0.20664 -0.4633036,0.4633 v 0.81418 c 0,0.25668 0.2066227,0.46326 0.4633036,0.46326 h 9.4892213 c 0.256681,0 0.463264,-0.20658 0.463264,-0.46326 v -0.81418 c 0,-0.25666 -0.206583,-0.4633 -0.463264,-0.4633 z"
         id="rect922" />
      <path
         inkscape:connector-curvature="0"
         style="fill:none;stroke:#000000;stroke-width:0.38576034;stroke-linecap:round;stroke-linejoin:round"
         d="m 18.004485,280.28324 -0.540108,0.54022 m -0.01257,-0.55277 0.552682,0.55277"
         id="path923" />
      <path
         inkscape:connector-curvature="0"
         d="m 8.6827648,279.69649 c -0.2617905,0 -0.4725247,0.27543 -0.4725247,0.61755 v 9.18145 c 0,0.34211 0.2107342,0.61755 0.4725247,0.61755 h 9.4708592 c 0.261671,0 0.472445,-0.27544 0.472445,-0.61755 v -9.18145 c 0,-0.34217 -0.210774,-0.61759 -0.472445,-0.61759 H 8.6827648 Z"
         style="fill:none;stroke:#000000;stroke-width:0.64294058;stroke-linecap:round;stroke-linejoin:round"
         sodipodi:nodetypes="ccccccccc"
         id="rect1561" />
      <path
         inkscape:connector-curvature="0"
         style="fill:none;stroke:#000000;stroke-width:0.64294058;stroke-linecap:round;stroke-linejoin:round"
         d="m 8.2102401,280.93563 c 0,0.25668 0.2066227,0.46326 0.4633036,0.46326 h 9.4900203 c 0.256681,0 0.463263,-0.20658 0.463263,-0.46326"
         id="rect1558" />
      <path
         inkscape:connector-curvature="0"
         d="m 9.1751707,287.0352 c 0,-0.11666 0.033534,-0.21644 0.1005867,-0.29935 0.06709,-0.0848 0.158029,-0.12694 0.2730375,-0.12694 0.05267,0 0.1364054,0.0222 0.2514139,0.0671 0.1150092,0.043 0.2139702,0.0774 0.2968832,0.10287 0.08456,0.0241 0.187635,0.036 0.309021,0.036 0.145253,0 0.251414,-0.0319 0.318486,-0.0959 0.06851,-0.0638 0.10287,-0.14279 0.10287,-0.23701 0,-0.0655 -0.01749,-0.11975 -0.05267,-0.16295 -0.03518,-0.0447 -0.08291,-0.0821 -0.143607,-0.11254 -0.0607,-0.0319 -0.148544,-0.0663 -0.263553,-0.10287 -0.114803,-0.0368 -0.212941,-0.0679 -0.294414,-0.0934 -0.1660318,-0.0526 -0.3081985,-0.11172 -0.4262928,-0.17714 -0.1180951,-0.0671 -0.2162331,-0.16295 -0.2946196,-0.28742 -0.078161,-0.12612 -0.117272,-0.28824 -0.117272,-0.48616 0,-0.24751 0.05668,-0.45572 0.1699416,-0.62504 0.1150085,-0.16912 0.2674613,-0.29524 0.4575656,-0.37836 0.1898982,-0.0829 0.3989302,-0.12447 0.6273012,-0.12447 0.31293,0 0.556321,0.0488 0.730377,0.14608 0.174056,0.0973 0.261084,0.22508 0.261084,0.38308 0,0.10699 -0.03353,0.19731 -0.100607,0.27076 -0.06543,0.0718 -0.15019,0.1076 -0.253883,0.1076 -0.0718,0 -0.170764,-0.023 -0.296883,-0.0693 -0.126119,-0.0463 -0.252237,-0.0695 -0.378356,-0.0695 -0.10863,0 -0.196481,0.0272 -0.263553,0.0815 -0.06686,0.0543 -0.100401,0.12365 -0.100401,0.20841 0,0.0493 0.01193,0.0893 0.0358,0.11975 0.02551,0.0286 0.07036,0.0582 0.134143,0.0885 0.06543,0.0305 0.163563,0.0671 0.29462,0.11028 0.132496,0.043 0.225902,0.0741 0.280011,0.0934 0.263554,0.0862 0.471145,0.2043 0.622776,0.35429 0.15163,0.14854 0.227343,0.37527 0.227343,0.68017 0,0.38639 -0.124474,0.67915 -0.373419,0.87872 -0.249151,0.19957 -0.569283,0.29935 -0.960394,0.29935 -0.173851,0 -0.351198,-0.0214 -0.5316321,-0.0646 -0.178788,-0.043 -0.3304185,-0.10925 -0.4548916,-0.19874 -0.1245548,-0.0895 -0.1868114,-0.19484 -0.1868114,-0.31602 m 5.5173291,0.5483 -0.210677,-0.18435 c -0.249151,0.14361 -0.541302,0.21542 -0.876453,0.21542 -0.255529,0 -0.489249,-0.043 -0.701573,-0.12921 -0.212324,-0.0862 -0.394404,-0.21006 -0.546034,-0.37116 -0.15019,-0.1613 -0.265816,-0.35613 -0.347289,-0.5843 -0.08147,-0.23001 -0.12221,-0.48307 -0.12221,-0.75918 0,-0.2761 0.04074,-0.52833 0.12221,-0.75671 0.08312,-0.22981 0.199568,-0.42465 0.349552,-0.5843 0.15019,-0.15966 0.331447,-0.28248 0.543771,-0.36889 0.212324,-0.0862 0.446044,-0.12921 0.701573,-0.12921 0.255324,0 0.48925,0.043 0.701574,0.12921 0.213969,0.0864 0.395226,0.20923 0.543564,0.36889 0.15019,0.15965 0.265816,0.35449 0.347289,0.5843 0.08312,0.22838 0.124473,0.48061 0.124473,0.75671 0,0.45345 -0.104516,0.83407 -0.313548,1.14227 l 0.189075,0.16768 c 0.100607,0.0829 0.168501,0.15328 0.203477,0.21068 0.03518,0.056 0.05267,0.11583 0.05267,0.17961 0,0.0973 -0.03189,0.17879 -0.09567,0.24422 -0.06378,0.0671 -0.141344,0.1006 -0.232281,0.1006 -0.04629,0 -0.0895,-0.007 -0.129411,-0.0191 -0.03827,-0.0128 -0.07983,-0.0352 -0.124472,-0.0671 -0.04464,-0.0319 -0.104516,-0.0806 -0.179611,-0.14608 m -1.08713,-2.91183 c -0.19319,0 -0.355313,0.051 -0.486164,0.15307 -0.130851,0.10225 -0.226725,0.23804 -0.287419,0.40715 -0.0607,0.16768 -0.09094,0.34729 -0.09094,0.53884 0,0.19319 0.03025,0.37445 0.09094,0.54356 0.0607,0.16933 0.156568,0.30491 0.287419,0.40716 0.130851,0.10205 0.292974,0.15328 0.486164,0.15328 0.08929,0 0.169119,-0.012 0.239482,-0.036 l -0.0097,-0.004 c -0.102048,-0.0909 -0.169941,-0.16357 -0.203477,-0.21788 -0.03353,-0.0543 -0.0504,-0.11254 -0.0504,-0.17488 0,-0.099 0.03127,-0.18043 0.09341,-0.24422 0.06398,-0.0654 0.142166,-0.0981 0.234749,-0.0981 0.06871,0 0.131674,0.015 0.189281,0.0455 0.05905,0.0302 0.139698,0.0918 0.241745,0.18434 l 0.02407,0.0192 c 0.06851,-0.17241 0.10287,-0.36478 0.10287,-0.5771 0,-0.19792 -0.03025,-0.38 -0.09094,-0.54603 -0.0607,-0.16604 -0.156568,-0.29936 -0.287419,-0.39996 -0.12941,-0.10205 -0.290504,-0.15308 -0.483694,-0.15308 m 2.011519,2.46168 v -2.72749 c 0,-0.13743 0.03662,-0.24277 0.110071,-0.31622 0.07345,-0.0734 0.169324,-0.11007 0.287418,-0.11007 0.119741,0 0.215616,0.0358 0.28742,0.1078 0.07345,0.0718 0.11007,0.17797 0.11007,0.31849 v 2.38494 h 0.852587 c 0.124473,0 0.221788,0.0327 0.292151,0.0983 0.07016,0.0638 0.105339,0.15471 0.105339,0.27281 0,0.11501 -0.03518,0.20594 -0.105339,0.27302 -0.07036,0.0671 -0.167678,0.10061 -0.292151,0.10061 h -1.250077 c -0.106984,0 -0.20039,-0.0358 -0.280218,-0.10781 -0.07818,-0.0733 -0.117271,-0.17159 -0.117271,-0.29442"
         style="fill:#000000;stroke-width:0.20574002"
         id="text1098" />
    </g>
    <flowRoot
       style="font-size:40px;font-family:Winks;fill:#000000"
       xml:space="preserve"
       id="flowRoot3610"
       transform="matrix(0.03431163,0,0,0.03431163,24.341844,260.07582)"><flowRegion
         id="flowRegion3612"><rect
           height="110.56"
           x="224.72"
           width="210.33"
           y="-120.67"
           id="rect3614" /></flowRegion><flowPara
         id="flowPara3616" /></flowRoot>    <g
       transform="matrix(0.02450536,0,0,0.02450536,54.657496,276.60567)"
       id="g4011">
      <path
         inkscape:connector-curvature="0"
         d="m 138.43,189.44 c 3.5955,1.3483 1.7977,-0.44943 0,0 z"
         style="fill:none;stroke:#000000;stroke-width:1px"
         id="path2818" />
      <path
         inkscape:connector-curvature="0"
         d="m 185.24,320.43 -1.1571,-85.273 c -1.8993,25.495 41.93,17.944 70.799,14.003 24.249,-1.839 46.826,3.0108 47.726,-20.078 l 4.586,86.403 c 19.225,7.3417 66.132,15.762 80.902,-14.261 l -1.428,-106.22 c 14.536,-34.546 38.398,-58.887 14.091,-131.89 l 62.792,-0.91218 c 8.528,4.7888 16.733,8.588 24.092,9.798 4.0945,-3.545 10.062,-7.2211 11.788,-13.162 l 0.56143,-16.304 c 1.2646,-6.7976 -3.2176,-8.7071 -8.9282,-9.5717 l -14.066,0.69406 -12.87,8.2822 -83.538,-0.15423 c -57.86,-37.375 -107.33,-47.111 -179.88,-31.624 -4.9739,-6.3764 -6.8274,-11.306 -20.551,-11.442 -32.764,-1.8712 -50.275,11.826 -70.372,22.883 -47.869,-1.6864 -67.562,3.2468 -80.472,7.8243 -6.1155,2.1683 -10.248,3.0361 -14.343,6.3189 -5.6094,4.4966 -7.9487,7.8771 -12.895,17.429 -12.719,24.565 -29.717,80.841 -21.824,236.04 5.4892,8.3467 10.614,17.623 19.306,17.798 19.826,8.8475 20.74,-4.0008 24.91,-9.5348 -8.4451,-93.926 11.234,-104.39 31.761,-115.69 35.887,-3.5629 25.59,2.8044 37.359,24.486 1.4623,2.694 9.0695,15.798 10.914,18.706 l -0.66702,90.93 c 31.291,15.685 51.631,13.942 81.412,4.5267 z"
         style="fill:#2d91f2;stroke:#000000;stroke-width:2.87069988"
         sodipodi:nodetypes="cccccccccccccccccccsasccccsccc"
         id="path3869" />
      <path
         inkscape:connector-curvature="0"
         d="m 77.945,99.462 -58.038,-0.21282 7.2634,-24.475 h 85.98 c 20.289,7e-5 28.055,8.0164 23.297,24.049 l -9.2214,31.072 c -4.7582,16.033 -17.282,24.049 -37.571,24.049 H 27.724 l -16.358,55.121 h -24.049 l 23.622,-79.596 h 83.214 c 5.3914,3e-5 8.3819,-0.99314 8.9715,-2.9795 l 6.9476,-23.411 c 0.71572,-2.4119 -1.6222,-3.6179 -7.0136,-3.618 h -25.113"
         style="fill:#ffffff;stroke:#000000"
         id="path3954" />
      <path
         inkscape:connector-curvature="0"
         d="m 333.09,99.462 -58.162,-0.21282 -7.1068,-24.475 h 85.98 c 20.289,7e-5 32.761,8.0164 37.417,24.049 l 9.0226,31.072 c 4.6553,16.033 -3.1615,24.049 -23.45,24.049 h -61.931 l 16.006,55.121 h -24.049 l -23.113,-79.596 h 83.214 c 5.3914,3e-5 7.7988,-0.99314 7.2221,-2.9795 l -6.7978,-23.411 c -0.70047,-2.4119 -3.7464,-3.6179 -9.1378,-3.618 h -25.113"
         style="fill:#ffffff;stroke:#000000"
         id="path3958" />
      <path
         inkscape:connector-curvature="0"
         d="m 238.45,133.51 6.1042,67.421 23.69,0.32659 -15.517,-152.57 -23.383,-0.0069 6.0549,56.572 -54.652,-0.45286 5.9234,-56.11 h -26.413 l -15.796,151.31 h 26.413 l 7.8979,-66.526 59.677,0.0343 v 1e-5 z"
         style="fill:#ffffff;stroke:#000000"
         sodipodi:nodetypes="cccccccccccccc"
         id="path3956" />
    </g>
    <g
       id="g3004"
       transform="matrix(0.03574129,0,0,0.03574129,24.016789,254.04294)">
      <path
         inkscape:connector-curvature="0"
         id="path2997"
         d="m 558.95594,903.11358 c -36.09545,-1.31168 -58.43676,-12.01534 -64.12095,-30.72019 l -0.6607,-2.1741 -0.0927,-36.66995 c -0.10603,-41.96912 -0.0688,-42.81933 2.16527,-49.5022 4.07659,-12.19424 13.71676,-20.05681 28.79295,-23.48369 l 3.33363,-0.75775 41.45298,-0.18362 c 29.69953,-0.13156 42.01364,-0.2803 43.43039,-0.52458 8.30058,-1.43121 13.74567,-3.57417 18.85778,-7.42166 6.10698,-4.59625 11.1479,-12.46356 13.40059,-20.9142 1.69191,-6.34695 1.64653,-5.65359 1.82936,-27.94861 l 0.16998,-20.72648 h 14.92886 14.92887 l 2.89881,0.80951 c 15.53168,4.33734 26.80813,19.05288 31.60899,41.24915 1.84654,8.53729 1.86583,8.85317 1.86919,30.63211 0.003,21.19511 -0.006,21.38024 -1.48723,28.33274 -1.45547,6.8335 -3.3606,12.39383 -6.20761,18.11756 -5.74165,11.54316 -14.20789,19.35575 -24.9137,22.99014 -6.11572,2.07616 -0.99651,1.90253 -61.16488,2.07454 l -54.20773,0.15496 v 4.92797 4.92798 l 35.94523,0.14494 35.94524,0.14495 0.14494,17.68273 c 0.0797,9.7255 0.0449,18.51733 -0.0773,19.53739 -0.29574,2.46726 -1.34241,5.39535 -2.84003,7.94502 -1.54224,2.62565 -6.22421,7.32185 -9.40254,9.4311 -9.65388,6.40668 -24.37268,10.31198 -43.77203,11.61399 -6.52712,0.43806 -15.77053,0.56407 -22.75565,0.31025 z m 49.85952,-22.91338 c 6.92848,-1.12324 11.88802,-7.90392 10.74568,-14.69149 -0.94225,-5.59869 -5.26472,-9.92918 -10.83156,-10.85163 -8.49832,-1.40822 -16.22681,6.39555 -14.71452,14.85781 1.10004,6.15548 6.03575,10.48922 12.48136,10.95909 0.23914,0.0174 1.28272,-0.10581 2.31904,-0.27378 z M 454.36064,827.89603 c -8.15346,-1.4825 -16.18278,-6.42417 -21.85664,-13.45173 -10.74701,-13.31108 -16.17228,-35.50291 -15.49121,-63.36608 0.42443,-17.36325 3.02022,-30.25248 8.30085,-41.21726 6.80669,-14.13349 16.97682,-22.51509 30.70615,-25.30613 3.00723,-0.61134 3.15797,-0.61293 56.12315,-0.59178 29.20932,0.0116 53.32208,-0.061 53.58393,-0.16149 0.41553,-0.15946 0.4761,-0.80556 0.4761,-5.07966 0,-2.69332 -0.0326,-4.92829 -0.0724,-4.96658 -0.0399,-0.0383 -16.24782,-0.13614 -36.01771,-0.21742 l -35.94524,-0.14778 -0.0747,-18.68189 c -0.0817,-20.46158 -0.0981,-20.22432 1.65369,-23.98211 6.07288,-13.02703 23.96225,-20.94192 52.62867,-23.28477 2.07264,-0.16938 7.68184,-0.38468 12.46487,-0.47842 31.73703,-0.62198 55.0178,5.18135 67.25523,16.76509 1.35569,1.28328 3.12244,3.19874 3.92612,4.25659 1.82745,2.40537 4.10218,6.99769 4.97318,10.04003 l 0.66392,2.31905 v 38.55417 c 0,35.98802 -0.0349,38.73746 -0.52435,41.30803 -0.63159,3.31709 -2.14867,7.97777 -3.41305,10.48543 -4.3775,8.68192 -12.443,14.93669 -23.13471,17.94087 -6.94252,1.95072 -3.78937,1.82256 -49.74634,2.02196 -45.63918,0.19802 -42.88154,0.0917 -49.27975,1.89996 -12.42747,3.51225 -21.55717,13.1917 -25.26606,26.7875 -1.66731,6.1119 -1.63031,5.54089 -1.81289,27.9735 l -0.16987,20.87144 -13.91428,0.0477 c -10.50388,0.036 -14.43449,-0.0468 -16.03667,-0.33821 z m 75.98045,-173.41812 c 5.27536,-2.47835 8.45224,-8.28773 7.49719,-13.70966 -0.88098,-5.00138 -4.31515,-8.99288 -8.97573,-10.43239 -7.44851,-2.30061 -15.22041,2.44679 -16.59468,10.13673 -1.11768,6.25416 2.49944,12.34273 8.61697,14.50462 1.36714,0.48314 2.24627,0.58107 4.58985,0.51133 2.55329,-0.0759 3.13333,-0.19644 4.8664,-1.01063 z"
         style="fill:#fed142;stroke-width:1.06666672" />
      <path
         inkscape:connector-curvature="0"
         id="path2995"
         d="m 454.36064,827.89603 c -8.15346,-1.4825 -16.18278,-6.42417 -21.85664,-13.45173 -10.74701,-13.31108 -16.17228,-35.50291 -15.49121,-63.36608 0.42443,-17.36325 3.02022,-30.25248 8.30085,-41.21726 6.80669,-14.13349 16.97682,-22.51509 30.70615,-25.30613 3.00723,-0.61134 3.15797,-0.61293 56.12315,-0.59178 29.20932,0.0116 53.32208,-0.061 53.58393,-0.16149 0.41553,-0.15946 0.4761,-0.80556 0.4761,-5.07966 0,-2.69332 -0.0326,-4.92829 -0.0724,-4.96658 -0.0399,-0.0383 -16.24782,-0.13614 -36.01771,-0.21742 l -35.94524,-0.14778 -0.0747,-18.68189 c -0.0817,-20.46158 -0.0981,-20.22432 1.65369,-23.98211 6.07288,-13.02703 23.96225,-20.94192 52.62867,-23.28477 2.07264,-0.16938 7.68184,-0.38468 12.46487,-0.47842 31.73703,-0.62198 55.0178,5.18135 67.25523,16.76509 1.35569,1.28328 3.12244,3.19874 3.92612,4.25659 1.82745,2.40537 4.10218,6.99769 4.97318,10.04003 l 0.66392,2.31905 v 38.55417 c 0,35.98802 -0.0349,38.73746 -0.52435,41.30803 -0.63159,3.31709 -2.14867,7.97777 -3.41305,10.48543 -4.3775,8.68192 -12.443,14.93669 -23.13471,17.94087 -6.94252,1.95072 -3.78937,1.82256 -49.74634,2.02196 -45.63918,0.19802 -42.88154,0.0917 -49.27975,1.89996 -12.42747,3.51225 -21.55717,13.1917 -25.26606,26.7875 -1.66731,6.1119 -1.63031,5.54089 -1.81289,27.9735 l -0.16987,20.87144 -13.91428,0.0477 c -10.50388,0.036 -14.43449,-0.0468 -16.03667,-0.33821 z m 75.98045,-173.41812 c 5.27536,-2.47835 8.45224,-8.28773 7.49719,-13.70966 -0.88098,-5.00138 -4.31515,-8.99288 -8.97573,-10.43239 -7.44851,-2.30061 -15.22041,2.44679 -16.59468,10.13673 -1.11768,6.25416 2.49944,12.34273 8.61697,14.50462 1.36714,0.48314 2.24627,0.58107 4.58985,0.51133 2.55329,-0.0759 3.13333,-0.19644 4.8664,-1.01063 z"
         style="fill:#3571a3;stroke-width:1.06666672" />
    </g>
    <text
       xml:space="preserve"
       style="font-style:normal;font-weight:normal;font-size:2.82222223px;line-height:6.61458302px;font-family:sans-serif;letter-spacing:0px;word-spacing:0px;fill:#000000;fill-opacity:1;stroke:none;stroke-width:0.26458332px;stroke-linecap:butt;stroke-linejoin:miter;stroke-opacity:1"
       x="49.609375"
       y="281.03049"
       id="text6053"><tspan
         sodipodi:role="line"
         id="tspan6051"
         x="49.609375"
         y="281.03049"
         style="stroke-width:0.26458332px">ou</tspan></text>
    <path
       style="fill:none;fill-rule:evenodd;stroke:#000000;stroke-width:0.24947481px;stroke-linecap:butt;stroke-linejoin:miter;stroke-opacity:1;marker-end:url(#Arrow2Mstart-2-6)"
       d="m 35.969903,280.64694 -13.82001,-0.0913 h 0.0869"
       id="path5419-2-1"
       inkscape:connector-curvature="0"
       inkscape:transform-center-x="0.51673746"
       inkscape:transform-center-y="3.2560528" />
    <path
       style="fill:none;fill-rule:evenodd;stroke:#000000;stroke-width:0.24947481px;stroke-linecap:butt;stroke-linejoin:miter;stroke-opacity:1;marker-end:url(#Arrow2Mstart-2-6-3)"
       d="m 22.521904,283.47405 13.82002,0.0913 h -0.0869"
       id="path5419-2-1-1"
       inkscape:connector-curvature="0"
       inkscape:transform-center-x="-0.51673716"
       inkscape:transform-center-y="-3.2560576" />
    <path
       style="fill:none;fill-rule:evenodd;stroke:#000000;stroke-width:0.24947481px;stroke-linecap:butt;stroke-linejoin:miter;stroke-opacity:1;marker-end:url(#Arrow2Mstart-2-6-5)"
       d="m 38.181065,243.01915 -13.82001,-0.0913 h 0.0869"
       id="path5419-2-1-6"
       inkscape:connector-curvature="0"
       inkscape:transform-center-x="0.51673746"
       inkscape:transform-center-y="3.2560528" />
    <path
       style="fill:none;fill-rule:evenodd;stroke:#000000;stroke-width:0.24947481px;stroke-linecap:butt;stroke-linejoin:miter;stroke-opacity:1;marker-end:url(#Arrow2Mstart-2-6-3-9)"
       d="m 24.789763,240.28997 13.82002,0.0913 h -0.0869"
       id="path5419-2-1-1-4"
       inkscape:connector-curvature="0"
       inkscape:transform-center-x="-0.51673716"
       inkscape:transform-center-y="-3.2560576" />
    <text
       xml:space="preserve"
       style="font-style:normal;font-weight:normal;font-size:2.82222223px;line-height:6.61458302px;font-family:sans-serif;letter-spacing:0px;word-spacing:0px;fill:#000000;fill-opacity:1;stroke:none;stroke-width:0.26458332px;stroke-linecap:butt;stroke-linejoin:miter;stroke-opacity:1"
       x="24.568449"
       y="247.01263"
       id="text10707"><tspan
         sodipodi:role="line"
         id="tspan10705"
         x="24.568449"
         y="247.01263"
         style="font-style:normal;font-variant:normal;font-weight:normal;font-stretch:normal;font-family:Arial;-inkscape-font-specification:Arial;stroke-width:0.26458332px">page HTML</tspan></text>
    <flowRoot
       xml:space="preserve"
       id="flowRoot6207"
       style="font-style:normal;font-weight:normal;font-size:10.66666698px;line-height:25px;font-family:sans-serif;letter-spacing:0px;word-spacing:0px;fill:#000000;fill-opacity:1;stroke:none;stroke-width:1px;stroke-linecap:butt;stroke-linejoin:miter;stroke-opacity:1"
       transform="matrix(0.26458333,0,0,0.26458333,0,229.26665)"><flowRegion
         id="flowRegion6209"><rect
           id="rect6211"
           width="42.32143"
           height="15"
           x="50.535713"
           y="112.42857" /></flowRegion><flowPara
         id="flowPara6213">Bb</flowPara></flowRoot>    <text
       xml:space="preserve"
       style="font-style:normal;font-weight:normal;font-size:2.82222223px;line-height:6.61458302px;font-family:sans-serif;letter-spacing:0px;word-spacing:0px;fill:#000000;fill-opacity:1;stroke:none;stroke-width:0.26458332px;stroke-linecap:butt;stroke-linejoin:miter;stroke-opacity:1"
       x="16.638552"
       y="263.36292"
       id="text6217"><tspan
         sodipodi:role="line"
         id="tspan6215"
         x="16.638552"
         y="263.36292"
         style="stroke-width:0.26458332px">Brython</tspan></text>
    <path
       style="fill:none;fill-rule:evenodd;stroke:#000000;stroke-width:0.19656123px;stroke-linecap:butt;stroke-linejoin:miter;stroke-opacity:1;marker-start:url(#marker7109-6-3);marker-end:url(#Arrow2Mstart-2-7-7)"
       d="m 13.661105,249.72536 -0.09287,8.43417 v -0.0531"
       id="path5419-2-3-3"
       inkscape:connector-curvature="0"
       inkscape:transform-center-x="-3.3120674"
       inkscape:transform-center-y="0.31535416" />
    <path
       style="fill:none;fill-rule:evenodd;stroke:#000000;stroke-width:0.12740976px;stroke-linecap:butt;stroke-linejoin:miter;stroke-opacity:1;marker-start:url(#marker7109-6-3-2);marker-end:url(#Arrow2Mstart-2-7-7-0)"
       d="m 15.589847,262.29702 -3.771223,-0.0873 h 0.02375"
       id="path5419-2-3-3-6"
       inkscape:connector-curvature="0"
       inkscape:transform-center-x="0.14100817"
       inkscape:transform-center-y="3.1121964" />
    <text
       xml:space="preserve"
       style="font-style:normal;font-weight:normal;font-size:2.82222223px;line-height:6.61458349px;font-family:sans-serif;letter-spacing:0px;word-spacing:0px;fill:#000000;fill-opacity:1;stroke:none;stroke-width:0.26458332px;stroke-linecap:butt;stroke-linejoin:miter;stroke-opacity:1"
       x="11.400549"
       y="261.01166"
       id="text6053-3"><tspan
         sodipodi:role="line"
         id="tspan6051-6"
         x="11.400549"
         y="261.01166"
         style="stroke-width:0.26458332px">ou</tspan></text>
  </g>
</svg>
