<?xml version="1.0" encoding="UTF-8" standalone="no"?>
<svg
   xmlns:dc="http://purl.org/dc/elements/1.1/"
   xmlns:cc="http://creativecommons.org/ns#"
   xmlns:rdf="http://www.w3.org/1999/02/22-rdf-syntax-ns#"
   xmlns:svg="http://www.w3.org/2000/svg"
   xmlns="http://www.w3.org/2000/svg"
   xmlns:sodipodi="http://sodipodi.sourceforge.net/DTD/sodipodi-0.dtd"
   xmlns:inkscape="http://www.inkscape.org/namespaces/inkscape"
   version="1.0"
   width="801.86377pt"
   height="1155.5326pt"
   viewBox="0 0 801.86377 1155.5326"
   preserveAspectRatio="xMidYMid meet"
   id="svg8"
   sodipodi:docname="arrow-down-blue.svg"
   inkscape:version="1.0 (4035a4fb49, 2020-05-01)">
  <defs
     id="defs12" />
  <sodipodi:namedview
     fit-margin-bottom="0"
     fit-margin-right="0"
     fit-margin-left="0"
     fit-margin-top="0"
     inkscape:document-rotation="0"
     pagecolor="#ffffff"
     bordercolor="#666666"
     borderopacity="1"
     objecttolerance="10"
     gridtolerance="10"
     guidetolerance="10"
     inkscape:pageopacity="0"
     inkscape:pageshadow="2"
     inkscape:window-width="1548"
     inkscape:window-height="961"
     id="namedview10"
     showgrid="false"
     inkscape:zoom="0.67374302"
     inkscape:cx="126.62079"
     inkscape:cy="824.31257"
     inkscape:window-x="0"
     inkscape:window-y="37"
     inkscape:window-maximized="0"
     inkscape:current-layer="svg8" />
  <metadata
     id="metadata2">
Created by potrace 1.15, written by Peter Selinger 2001-2017
<rdf:RDF>
  <cc:Work
     rdf:about="">
    <dc:format>image/svg+xml</dc:format>
    <dc:type
       rdf:resource="http://purl.org/dc/dcmitype/StillImage" />
    <dc:title></dc:title>
  </cc:Work>
</rdf:RDF>
</metadata>
  <g
     transform="matrix(0,0.1,0.1,0,-87.036227,-54.282079)"
     fill="#2196f3"
     stroke="none"
     id="g6">
    <path
       d="m 8003,8772 c -95,-64 -172,-121 -172,-125 -1,-12 130,-296 253,-550 58,-120 106,-221 106,-225 -1,-4 -8,6 -17,22 l -16,30 -24,-48 c -72,-141 -34,-284 194,-741 69,-137 128,-261 132,-274 5,-16 19,-29 42,-37 72,-26 8,-11 -264,61 -960,255 -1708,377 -2747,447 -247,17 -1240,17 -1505,0 -1034,-65 -1907,-200 -2953,-455 -123,-30 -226,-57 -229,-60 -6,-6 -11,-68 -118,-1412 -41,-517 -91,-1135 -110,-1374 -19,-239 -34,-436 -32,-437 1,-1 40,4 87,12 81,13 147,18 108,7 -13,-3 -18,-23 -23,-97 -10,-126 7,-244 45,-318 25,-48 94,-108 150,-129 119,-45 234,-37 555,36 236,55 337,72 738,130 652,93 1109,147 1652,195 777,68 1582,94 2183,70 883,-35 1720,-157 1963,-285 23,-13 28,-12 49,8 20,18 22,19 9,2 -73,-94 -185,-221 -294,-334 -201,-207 -343,-333 -1093,-970 -139,-118 -251,-220 -248,-227 9,-25 218,-344 225,-344 4,0 124,54 267,121 142,66 269,125 282,130 38,15 24,2 -27,-25 -58,-30 -253,-214 -317,-299 -61,-81 -94,-160 -94,-221 1,-46 33,-110 71,-139 116,-87 276,-57 694,130 61,28 169,76 240,108 72,33 285,138 475,234 443,226 680,343 805,398 193,85 867,372 1103,469 45,19 120,50 167,69 153,63 315,129 405,165 28,11 73,29 100,40 28,11 73,29 100,40 28,11 71,29 98,39 96,40 311,121 452,171 308,109 372,140 452,221 79,78 108,143 115,256 5,71 1,105 -16,173 -12,47 -26,97 -32,111 -5,14 -11,35 -12,47 -1,22 -4,22 -57,4 -8,-3 -13,-3 -10,0 3,3 46,22 95,43 50,20 91,38 93,39 5,6 -119,457 -163,595 -240,740 -661,1453 -1287,2181 -165,191 -277,311 -532,568 -339,342 -473,472 -981,947 -264,247 -588,556 -720,687 l -241,237 z M 9150,7359 c 522,-489 941,-917 1225,-1254 161,-190 426,-535 412,-535 -3,0 -33,38 -67,85 -133,184 -432,545 -452,545 -5,0 -7,4 -4,8 3,5 -24,34 -59,66 -36,32 -62,63 -58,69 3,5 2,7 -3,4 -17,-10 -859,835 -859,862 0,6 -321,314 -444,427 -30,27 -52,41 -48,32 12,-33 -3,-18 -24,25 l -21,42 38,-36 c 22,-19 185,-172 364,-340 z M 5530,6901 c 1004,-72 1858,-218 2712,-465 259,-75 315,-94 279,-95 -13,-1 -21,-4 -18,-7 4,-4 -3,-16 -15,-26 -132,-114 -313,-118 -737,-17 -118,28 -417,91 -526,109 -221,39 -317,54 -500,80 -1480,213 -2957,177 -4545,-111 -347,-63 -809,-159 -890,-185 -47,-14 -87,-25 -90,-23 -3,2 -8,-9 -12,-26 -8,-33 -1,181 9,282 l 6,62 111,26 c 944,223 1848,354 2796,404 217,12 1223,6 1420,-8 z m 4034,-521 c 44,-22 113,-63 151,-92 77,-58 383,-359 516,-508 46,-52 91,-102 99,-110 8,-8 44,-49 80,-90 36,-41 70,-81 77,-88 7,-7 29,-34 50,-60 21,-26 43,-51 49,-57 6,-5 42,-50 80,-100 38,-49 71,-92 74,-95 7,-6 98,-128 120,-160 8,-13 24,-35 36,-49 11,-14 38,-53 60,-86 21,-33 44,-66 51,-73 6,-6 15,-21 18,-32 3,-11 10,-20 14,-20 4,0 13,-12 20,-26 6,-15 21,-39 32,-53 21,-26 90,-140 156,-256 18,-33 83,-158 143,-279 60,-120 111,-220 113,-223 3,-2 22,3 43,12 22,9 35,12 29,6 -5,-5 -262,-109 -570,-232 -679,-269 -1124,-451 -1770,-724 -506,-214 -538,-227 -494,-201 20,11 32,36 54,103 60,184 34,329 -78,430 l -36,32 -20,-27 c -11,-15 4,21 33,81 65,132 113,253 165,417 22,69 42,132 46,141 5,13 -16,24 -107,59 -820,310 -1458,438 -2548,512 -248,17 -1329,17 -1635,0 -1080,-59 -1938,-157 -3334,-378 -123,-19 -225,-33 -227,-31 -3,2 8,7 23,10 27,5 28,7 29,74 0,37 8,154 17,258 9,105 24,280 32,390 25,325 26,336 41,430 17,99 30,159 44,190 47,108 75,163 102,198 178,234 369,308 1088,426 649,106 1054,152 1720,192 254,16 1099,16 1355,0 804,-48 1406,-131 2175,-302 327,-72 439,-104 758,-218 181,-64 280,-85 386,-79 97,5 158,30 213,85 60,60 109,175 126,293 42,294 95,368 256,355 47,-3 84,-15 145,-45 z M 1177,6048 c -3,-7 -5,-2 -5,12 0,14 2,19 5,13 2,-7 2,-19 0,-25 z m 9673,-563 c 17,-25 29,-45 26,-45 -3,0 -19,20 -36,45 -17,25 -29,45 -26,45 3,0 19,-20 36,-45 z m 55,-81 c 9,-15 12,-23 6,-20 -11,7 -35,46 -28,46 3,0 12,-12 22,-26 z m 35,-54 c 6,-11 8,-20 6,-20 -3,0 -10,9 -16,20 -6,11 -8,20 -6,20 3,0 10,-9 16,-20 z m -9823,-67 c -3,-10 -5,-4 -5,12 0,17 2,24 5,18 2,-7 2,-21 0,-30 z m -10,-155 c -3,-7 -5,-2 -5,12 0,14 2,19 5,13 2,-7 2,-19 0,-25 z m -10,-105 c -3,-10 -5,-2 -5,17 0,19 2,27 5,18 2,-10 2,-26 0,-35 z m -10,-140 c -3,-10 -5,-4 -5,12 0,17 2,24 5,18 2,-7 2,-21 0,-30 z m -10,-110 c -3,-10 -5,-4 -5,12 0,17 2,24 5,18 2,-7 2,-21 0,-30 z m -10,-145 c -3,-7 -5,-2 -5,12 0,14 2,19 5,13 2,-7 2,-19 0,-25 z m -10,-115 c -3,-10 -5,-2 -5,17 0,19 2,27 5,18 2,-10 2,-26 0,-35 z m -10,-140 c -3,-10 -5,-4 -5,12 0,17 2,24 5,18 2,-7 2,-21 0,-30 z m -10,-110 c -3,-10 -5,-2 -5,17 0,19 2,27 5,18 2,-10 2,-26 0,-35 z m -10,-145 c -3,-7 -5,-2 -5,12 0,14 2,19 5,13 2,-7 2,-19 0,-25 z m 5258,-17 c 766,-54 1332,-148 1868,-311 89,-26 175,-53 190,-59 l 28,-11 -51,-98 c -47,-90 -98,-168 -85,-131 5,14 -13,21 -107,44 -607,145 -1091,215 -1793,261 -304,20 -1236,23 -1565,5 -639,-34 -1221,-82 -1710,-142 -492,-59 -735,-91 -1005,-134 -372,-58 -513,-58 -661,1 -65,26 -200,137 -189,155 4,5 -15,7 -42,4 -116,-12 337,69 698,125 999,153 1912,250 2724,290 121,6 249,12 285,14 143,7 1275,-3 1415,-13 z m 5345,-621 c -8,-5 -19,-10 -25,-10 -5,0 -3,5 5,10 8,5 20,10 25,10 6,0 3,-5 -5,-10 z m -58,-23 c -12,-7 -20,-16 -16,-19 10,-11 -32,-115 -69,-171 -41,-61 -122,-140 -190,-184 -88,-57 -227,-119 -682,-302 -430,-172 -697,-280 -740,-300 -55,-25 -433,-184 -525,-221 -287,-115 -447,-153 -583,-136 -61,8 -128,45 -148,83 -7,13 -19,21 -26,18 -7,-3 -21,-8 -30,-11 -98,-31 465,219 1027,456 654,276 1311,542 1780,721 197,75 251,93 202,66 z M 8300,2820 c -17,-22 -34,-55 -36,-73 -10,-63 -60,-188 -81,-199 -10,-6 11,0 35,9 9,3 15,3 11,0 -5,-6 -348,-167 -355,-167 -2,0 51,54 119,119 67,66 169,171 227,235 58,64 107,116 108,116 2,0 -11,-18 -28,-40 z m -30,-250 c -8,-5 -19,-10 -25,-10 -5,0 -3,5 5,10 8,5 20,10 25,10 6,0 3,-5 -5,-10 z"
       id="path4" />
  </g>
</svg>
