<?xml version="1.0" encoding="UTF-8" standalone="no"?>
<svg
   xmlns:dc="http://purl.org/dc/elements/1.1/"
   xmlns:cc="http://creativecommons.org/ns#"
   xmlns:rdf="http://www.w3.org/1999/02/22-rdf-syntax-ns#"
   xmlns:svg="http://www.w3.org/2000/svg"
   xmlns="http://www.w3.org/2000/svg"
   xmlns:sodipodi="http://sodipodi.sourceforge.net/DTD/sodipodi-0.dtd"
   xmlns:inkscape="http://www.inkscape.org/namespaces/inkscape"
   sodipodi:docname="files1.svg"
   inkscape:version="1.0 (4035a4fb49, 2020-05-01)"
   id="svg22"
   version="1.1"
   viewBox="0 0 93.807541 25.878967"
   height="25.878967mm"
   width="93.807541mm">
  <defs
     id="defs16">
    <marker
       inkscape:isstock="true"
       style="overflow:visible"
       id="Arrow2Lstart"
       refX="0"
       refY="0"
       orient="auto"
       inkscape:stockid="Arrow2Lstart">
      <path
         transform="matrix(1.1,0,0,1.1,1.1,0)"
         d="M 8.7185878,4.0337352 -2.2072895,0.01601326 8.7185884,-4.0017078 c -1.7454984,2.3720609 -1.7354408,5.6174519 -6e-7,8.035443 z"
         style="fill:#000000;fill-opacity:1;fill-rule:evenodd;stroke:#000000;stroke-width:0.625;stroke-linejoin:round;stroke-opacity:1"
         id="path952" />
    </marker>
    <marker
       inkscape:stockid="Arrow2Lstart"
       orient="auto"
       refY="0"
       refX="0"
       id="Arrow2Lstart-6"
       style="overflow:visible"
       inkscape:isstock="true">
      <path
         id="path952-2"
         style="fill:#000000;fill-opacity:1;fill-rule:evenodd;stroke:#000000;stroke-width:0.625;stroke-linejoin:round;stroke-opacity:1"
         d="M 8.7185878,4.0337352 -2.2072895,0.01601326 8.7185884,-4.0017078 c -1.7454984,2.3720609 -1.7354408,5.6174519 -6e-7,8.035443 z"
         transform="matrix(1.1,0,0,1.1,1.1,0)" />
    </marker>
    <marker
       inkscape:stockid="Arrow2Lstart"
       orient="auto"
       refY="0"
       refX="0"
       id="Arrow2Lstart-1"
       style="overflow:visible"
       inkscape:isstock="true">
      <path
         id="path952-27"
         style="fill:#000000;fill-opacity:1;fill-rule:evenodd;stroke:#000000;stroke-width:0.625;stroke-linejoin:round;stroke-opacity:1"
         d="M 8.7185878,4.0337352 -2.2072895,0.01601326 8.7185884,-4.0017078 c -1.7454984,2.3720609 -1.7354408,5.6174519 -6e-7,8.035443 z"
         transform="matrix(1.1,0,0,1.1,1.1,0)" />
    </marker>
  </defs>
  <sodipodi:namedview
     fit-margin-bottom="0"
     fit-margin-right="0"
     fit-margin-left="0"
     fit-margin-top="0"
     inkscape:snap-bbox="true"
     showguides="false"
     inkscape:window-maximized="0"
     inkscape:window-y="37"
     inkscape:window-x="259"
     inkscape:window-height="961"
     inkscape:window-width="1651"
     showgrid="true"
     inkscape:document-rotation="0"
     inkscape:current-layer="layer1"
     inkscape:document-units="mm"
     inkscape:cy="40.595006"
     inkscape:cx="192.38728"
     inkscape:zoom="2"
     inkscape:pageshadow="2"
     inkscape:pageopacity="0.0"
     borderopacity="1.0"
     bordercolor="#666666"
     pagecolor="#ffffff"
     id="base">
    <inkscape:grid
       originy="-96.02831"
       originx="-17.324754"
       id="grid109"
       type="xygrid" />
  </sodipodi:namedview>
  <metadata
     id="metadata19">
    <rdf:RDF>
      <cc:Work
         rdf:about="">
        <dc:format>image/svg+xml</dc:format>
        <dc:type
           rdf:resource="http://purl.org/dc/dcmitype/StillImage" />
        <dc:title></dc:title>
      </cc:Work>
    </rdf:RDF>
  </metadata>
  <g
     transform="translate(-17.324754,-96.028313)"
     id="layer1"
     inkscape:groupmode="layer"
     inkscape:label="Calque 1">
    <g
       id="g1528">
      <path
         id="path14"
         d="m 52.420341,118.29569 c -0.274776,-0.10752 -0.36444,-0.18159 -0.500998,-0.41391 l -0.136363,-0.23198 -0.02452,-5.90785 -0.02452,-5.90785 -0.12967,0.39221 c -0.276103,0.83516 -0.413009,2.26357 -0.357395,3.72892 0.0292,0.76898 0.02302,0.90576 -0.04692,1.041 -0.144754,0.27995 -0.553888,0.39092 -0.859129,0.23308 -0.256289,-0.13252 -0.299938,-0.31818 -0.331872,-1.41163 -0.09142,-3.13017 0.5194,-5.15925 1.732399,-5.75486 l 0.286756,-0.14081 h 1.838543 1.838545 c 2.000739,1.1597 2.041254,4.48068 2.024191,5.8098 -0.02503,1.21556 -0.05522,1.35185 -0.331127,1.49451 -0.286735,0.14829 -0.677592,0.0601 -0.836332,-0.18873 -0.05215,-0.0817 -0.0682,-0.43146 -0.0734,-1.59996 -0.0078,-1.77123 -0.11819,-2.68869 -0.409639,-3.40743 -0.07419,-0.18292 -0.08117,0.20073 -0.104041,5.71175 -0.02365,5.69957 -0.02783,5.91453 -0.118603,6.0974 -0.190211,0.38321 -0.696736,0.60106 -1.109761,0.47733 -0.243819,-0.0731 -0.467024,-0.26273 -0.587814,-0.4995 -0.09262,-0.18154 -0.09591,-0.31169 -0.09591,-3.79348 v -3.6055 h -0.196108 -0.196111 v 3.60036 c 0,2.4246 -0.01703,3.64542 -0.05215,3.73836 -0.168692,0.44647 -0.757373,0.71122 -1.198062,0.53877 z m 0.980557,-14.90528 c -0.549233,-0.18228 -0.971031,-0.56445 -1.14952,-1.0415 -0.136088,-0.36373 -0.136088,-0.90257 0,-1.2663 0.140531,-0.3756 0.470577,-0.72546 0.869776,-0.92199 0.291931,-0.14371 0.371179,-0.160808 0.744479,-0.16062 0.356288,1.9e-4 0.462745,0.021 0.72342,0.14118 0.333486,0.1538 0.675533,0.47953 0.838054,0.79809 0.23678,0.46413 0.230547,1.09877 -0.01557,1.58444 -0.144364,0.2849 -0.545093,0.66079 -0.845798,0.79339 -0.290817,0.12824 -0.886394,0.16572 -1.16485,0.0733 z"
         style="fill:#000000;stroke-width:0.0490279"
         sodipodi:nodetypes="cscccssssssccccssssssssscccssscssscssssccs" />
      <path
         sodipodi:nodetypes="cscccssssssccccssssssssscccssscssscssssccs"
         style="fill:#000000;stroke-width:0.0490263"
         d="m 62.420199,118.29569 c -0.274759,-0.10752 -0.364418,-0.18159 -0.500967,-0.41391 l -0.136355,-0.23198 -0.02452,-5.90785 -0.02452,-5.90785 -0.129662,0.39221 c -0.276086,0.83516 -0.412984,2.26357 -0.357373,3.72892 0.0292,0.76898 0.02302,0.90576 -0.04692,1.041 -0.144745,0.27995 -0.553854,0.39092 -0.859077,0.23308 -0.256273,-0.13252 -0.299919,-0.31818 -0.331852,-1.41163 -0.09141,-3.13017 0.519369,-5.15925 1.732294,-5.75486 l 0.286738,-0.14081 h 1.838431 1.838432 c 2.000617,1.1597 2.04113,4.48068 2.024068,5.8098 -0.02503,1.21556 -0.05522,1.35185 -0.331107,1.49451 -0.286718,0.14829 -0.677551,0.0601 -0.836281,-0.18873 -0.05215,-0.0817 -0.0682,-0.43146 -0.0734,-1.59996 -0.0078,-1.77123 -0.118184,-2.68869 -0.409614,-3.40743 -0.07419,-0.18292 -0.08117,0.20073 -0.104035,5.71175 -0.02365,5.69957 -0.02783,5.91453 -0.118596,6.0974 -0.190199,0.38321 -0.696693,0.60106 -1.109694,0.47733 -0.243803,-0.0731 -0.466996,-0.26273 -0.587778,-0.4995 -0.09261,-0.18154 -0.0959,-0.31169 -0.0959,-3.79348 v -3.6055 h -0.196095 -0.196099 v 3.60036 c 0,2.4246 -0.01703,3.64542 -0.05215,3.73836 -0.168682,0.44647 -0.757327,0.71122 -1.19799,0.53877 z m 0.980497,-14.90528 c -0.549199,-0.18228 -0.970971,-0.56445 -1.14945,-1.0415 -0.136079,-0.36373 -0.136079,-0.90257 0,-1.2663 0.140523,-0.3756 0.470549,-0.72546 0.869723,-0.92199 0.291913,-0.14371 0.371157,-0.160808 0.744434,-0.16062 0.356266,1.9e-4 0.462717,0.021 0.723376,0.14118 0.333465,0.1538 0.675491,0.47953 0.838002,0.79809 0.236766,0.46413 0.230533,1.09877 -0.01557,1.58444 -0.144355,0.2849 -0.545059,0.66079 -0.845746,0.79339 -0.290799,0.12824 -0.88634,0.16572 -1.164779,0.0733 z"
         id="path14-3" />
      <path
         sodipodi:nodetypes="cscccssssssccccssssssssscccssscssscssssccs"
         style="fill:#000000;stroke-width:0.0490278"
         d="m 72.420341,118.29569 c -0.274776,-0.10752 -0.36444,-0.18159 -0.500998,-0.41391 l -0.136363,-0.23198 -0.02452,-5.90785 -0.02452,-5.90785 -0.12967,0.39221 c -0.276103,0.83516 -0.413009,2.26357 -0.357395,3.72892 0.0292,0.76898 0.02302,0.90576 -0.04692,1.041 -0.144754,0.27995 -0.553888,0.39092 -0.859129,0.23308 -0.256289,-0.13252 -0.299938,-0.31818 -0.331872,-1.41163 -0.09142,-3.13017 0.5194,-5.15925 1.732399,-5.75486 l 0.286756,-0.14081 h 1.838543 1.838545 c 2.000739,1.1597 2.041254,4.48068 2.024191,5.8098 -0.02503,1.21556 -0.05522,1.35185 -0.331127,1.49451 -0.286735,0.14829 -0.677592,0.0601 -0.836332,-0.18873 -0.05215,-0.0817 -0.0682,-0.43146 -0.0734,-1.59996 -0.0078,-1.77123 -0.118191,-2.68869 -0.409639,-3.40743 -0.07419,-0.18292 -0.08117,0.20073 -0.104041,5.71175 -0.02365,5.69957 -0.02783,5.91453 -0.118603,6.0974 -0.190211,0.38321 -0.696736,0.60106 -1.109762,0.47733 -0.243818,-0.0731 -0.467024,-0.26273 -0.587814,-0.4995 -0.09262,-0.18154 -0.09591,-0.31169 -0.09591,-3.79348 v -3.6055 h -0.196107 -0.196111 v 3.60036 c 0,2.4246 -0.01703,3.64542 -0.05215,3.73836 -0.168692,0.44647 -0.757373,0.71122 -1.198063,0.53877 z m 0.980557,-14.90528 c -0.549233,-0.18228 -0.971031,-0.56445 -1.14952,-1.0415 -0.136088,-0.36373 -0.136088,-0.90257 0,-1.2663 0.140531,-0.3756 0.470577,-0.72546 0.869776,-0.92199 0.291931,-0.14371 0.371179,-0.160808 0.744479,-0.16062 0.356288,1.9e-4 0.462745,0.021 0.72342,0.14118 0.333486,0.1538 0.675533,0.47953 0.838054,0.79809 0.23678,0.46413 0.230547,1.09877 -0.01557,1.58444 -0.144364,0.2849 -0.545093,0.66079 -0.845798,0.79339 -0.290817,0.12824 -0.886394,0.16572 -1.16485,0.0733 z"
         id="path14-7" />
      <path
         sodipodi:nodetypes="cscccssssssccccssssssssscccssscssscssssccs"
         style="fill:#000000;stroke-width:0.0490278"
         d="m 82.420341,118.29569 c -0.274776,-0.10752 -0.36444,-0.18159 -0.500998,-0.41391 l -0.136363,-0.23198 -0.02452,-5.90785 -0.02452,-5.90785 -0.12967,0.39221 c -0.276103,0.83516 -0.413009,2.26357 -0.357395,3.72892 0.0292,0.76898 0.02302,0.90576 -0.04692,1.041 -0.144754,0.27995 -0.553888,0.39092 -0.859129,0.23308 -0.256289,-0.13252 -0.299938,-0.31818 -0.331872,-1.41163 -0.09142,-3.13017 0.5194,-5.15925 1.732399,-5.75486 l 0.286756,-0.14081 h 1.838543 1.838545 c 2.000739,1.1597 2.041254,4.48068 2.024191,5.8098 -0.02503,1.21556 -0.05522,1.35185 -0.331127,1.49451 -0.286735,0.14829 -0.677592,0.0601 -0.836332,-0.18873 -0.05215,-0.0817 -0.0682,-0.43146 -0.0734,-1.59996 -0.0078,-1.77123 -0.118191,-2.68869 -0.409639,-3.40743 -0.07419,-0.18292 -0.08117,0.20073 -0.104041,5.71175 -0.02365,5.69957 -0.02783,5.91453 -0.118603,6.0974 -0.190211,0.38321 -0.696736,0.60106 -1.109762,0.47733 -0.243818,-0.0731 -0.467024,-0.26273 -0.587814,-0.4995 -0.09262,-0.18154 -0.09591,-0.31169 -0.09591,-3.79348 v -3.6055 h -0.196107 -0.196111 v 3.60036 c 0,2.4246 -0.01703,3.64542 -0.05215,3.73836 -0.168692,0.44647 -0.757373,0.71122 -1.198063,0.53877 z m 0.980557,-14.90528 c -0.549233,-0.18228 -0.971031,-0.56445 -1.14952,-1.0415 -0.136088,-0.36373 -0.136088,-0.90257 0,-1.2663 0.140531,-0.3756 0.470577,-0.72546 0.869776,-0.92199 0.291931,-0.14371 0.371179,-0.160808 0.744479,-0.16062 0.356288,1.9e-4 0.462745,0.021 0.72342,0.14118 0.333486,0.1538 0.675533,0.47953 0.838054,0.79809 0.23678,0.46413 0.230547,1.09877 -0.01557,1.58444 -0.144364,0.2849 -0.545093,0.66079 -0.845798,0.79339 -0.290817,0.12824 -0.886394,0.16572 -1.16485,0.0733 z"
         id="path14-5" />
      <path
         sodipodi:nodetypes="cscccssssssccccssssssssscccssscssscssssccs"
         style="fill:#000000;stroke-width:0.0490278"
         d="m 92.42028,118.29569 c -0.27478,-0.10752 -0.36444,-0.18159 -0.501,-0.41391 l -0.13636,-0.23198 -0.0245,-5.90785 -0.0245,-5.90785 -0.12967,0.39221 c -0.2761,0.83516 -0.41301,2.26357 -0.3574,3.72892 0.0292,0.76898 0.023,0.90576 -0.0469,1.041 -0.144749,0.27995 -0.553883,0.39092 -0.859124,0.23308 -0.256289,-0.13252 -0.299938,-0.31818 -0.331872,-1.41163 -0.09142,-3.13017 0.5194,-5.15925 1.732396,-5.75486 l 0.28676,-0.14081 h 1.83854 1.838547 c 2.00074,1.1597 2.04125,4.48068 2.02419,5.8098 -0.025,1.21556 -0.0552,1.35185 -0.33113,1.49451 -0.28673,0.14829 -0.67759,0.0601 -0.83633,-0.18873 -0.0522,-0.0817 -0.0682,-0.43146 -0.0734,-1.59996 -0.008,-1.77123 -0.11819,-2.68869 -0.40964,-3.40743 -0.0742,-0.18292 -0.0812,0.20073 -0.10404,5.71175 -0.0237,5.69957 -0.0278,5.91453 -0.1186,6.0974 -0.19022,0.38321 -0.69674,0.60106 -1.109767,0.47733 -0.24381,-0.0731 -0.46702,-0.26273 -0.58781,-0.4995 -0.0926,-0.18154 -0.0959,-0.31169 -0.0959,-3.79348 v -3.6055 h -0.19611 -0.19611 v 3.60036 c 0,2.4246 -0.017,3.64542 -0.0522,3.73836 -0.16869,0.44647 -0.75737,0.71122 -1.19806,0.53877 z m 0.98056,-14.90528 c -0.54924,-0.18228 -0.97103,-0.56445 -1.14952,-1.0415 -0.13609,-0.36373 -0.13609,-0.90257 0,-1.2663 0.14053,-0.3756 0.47057,-0.72546 0.86977,-0.92199 0.29193,-0.14371 0.37118,-0.160808 0.74448,-0.16062 0.35629,1.9e-4 0.46275,0.021 0.72342,0.14118 0.333487,0.1538 0.675537,0.47953 0.838057,0.79809 0.23678,0.46413 0.23054,1.09877 -0.0156,1.58444 -0.14437,0.2849 -0.545097,0.66079 -0.845797,0.79339 -0.29082,0.12824 -0.8864,0.16572 -1.16485,0.0733 z"
         id="path14-35" />
      <g
         id="g243"
         transform="matrix(0.05992291,0,0,0.05992291,17.324754,96.028313)"
         style="stroke-width:4.41543">
        <path
           id="path235"
           d="M 8.758,384.398 H 35.031 V 24.891 c 0,-7.836 6.45,-14.29 14.286,-14.29 H 174.686 L 209.255,0.461 C 210.171,0 211.097,0 211.562,0 c 1.844,0 3.686,0.461 5.53,1.842 2.3,1.844 3.687,4.151 3.687,6.915 V 10.6 h 92.178 c 6.457,0 11.52,5.071 11.52,11.522 v 362.275 h 28.125 c 5.063,0 8.75,4.149 8.75,8.757 0,5.072 -4.15,8.758 -8.75,8.758 H 220.315 v 20.738 c 0,2.771 -1.381,5.072 -3.224,6.92 -1.386,1.379 -3.687,2.301 -5.53,2.301 -0.465,0 -0.928,0 -1.391,0 L 76.05,408.826 c -3.688,-0.465 -5.993,-3.227 -6.915,-6.45 H 8.758 C 3.689,402.376 0,398.227 0,393.613 c 0,-5.066 3.688,-9.215 8.758,-9.215 z M 53.007,28.577 V 384.398 H 69.136 V 48.856 c 0,-4.147 2.765,-7.375 6.453,-8.757 L 114.767,28.577 Z M 203.261,20.74 86.651,55.31 v 337.387 l 116.61,20.274 v -19.357 z m 78.814,17.976 c 6.457,0 11.521,5.068 11.521,11.522 v 334.159 h 13.365 V 28.577 h -86.184 v 10.14 h 61.298 z m -5.994,17.515 h -54.84 v 328.167 h 54.84 z"
           fill="#81959f"
           style="stroke-width:4.90603" />
        <path
           id="path237"
           d="m 176.528,232.76 v 0 c -11.982,0 -16.593,-10.602 -16.593,-16.134 -6.451,0 -13.826,0 -13.826,0 -2.304,0 -4.611,-0.921 -6.454,-2.766 -1.843,-1.842 -2.765,-3.688 -2.765,-6.453 v -1.382 c 0,-2.303 0.921,-4.611 2.765,-6.453 1.842,-1.843 4.15,-2.765 6.454,-2.765 0,0 14.748,0 23.505,0 h 6.454 c 4.608,0 9.215,1.844 12.443,4.606 3.229,2.769 5.537,7.375 5.537,12.446 v 0.462 c -0.001,10.602 -7.837,18.439 -17.52,18.439 z m -17.515,-14.752 z"
           fill="#81959f"
           style="stroke-width:4.90603" />
        <path
           id="path239"
           d="M 139.655,200.035 Z"
           fill="#81959f"
           style="stroke-width:4.90603" />
        <path
           id="path241"
           d="M 188.51,201.878 Z"
           fill="#81959f"
           style="stroke-width:4.90603" />
      </g>
      <path
         style="fill:#000000;stroke:#000000;stroke-width:0.4;stroke-linecap:butt;stroke-linejoin:miter;stroke-miterlimit:4;stroke-dasharray:none;stroke-opacity:1;marker-start:url(#Arrow2Lstart)"
         d="m 37.041667,111.125 11.912272,0.0759"
         id="path107"
         sodipodi:nodetypes="cc" />
      <path
         sodipodi:nodetypes="cc"
         id="path107-0"
         d="m 99.21875,111.125 11.91227,0.0759"
         style="fill:#000000;stroke:#000000;stroke-width:0.4;stroke-linecap:butt;stroke-linejoin:miter;stroke-miterlimit:4;stroke-dasharray:none;stroke-opacity:1;marker-start:url(#Arrow2Lstart-1)" />
    </g>
  </g>
</svg>
