<?xml version="1.0" encoding="UTF-8" standalone="no"?>
<!DOCTYPE svg PUBLIC "-//W3C//DTD SVG 1.1//EN"
 "http://www.w3.org/Graphics/SVG/1.1/DTD/svg11.dtd">
<!-- Generated by graphviz version 2.43.0 (0)
 -->
<!-- Title: %3 Pages: 1 -->
<svg width="409pt" height="221pt"
 viewBox="0.00 0.00 408.62 221.27" xmlns="http://www.w3.org/2000/svg" xmlns:xlink="http://www.w3.org/1999/xlink">
<g id="graph0" class="graph" transform="scale(1 1) rotate(0) translate(4 217.27)">
<title>%3</title>
<polygon fill="#ffffff" fill-opacity="0.003922" stroke="transparent" points="-4,4 -4,-217.27 404.62,-217.27 404.62,4 -4,4"/>
<!-- A -->
<g id="node1" class="node">
<title>A</title>
<ellipse fill="#b2dfee" stroke="#b2dfee" cx="382.23" cy="-49" rx="18.27" ry="16.03"/>
<text text-anchor="middle" x="382.23" y="-45.3" font-family="Times,serif" font-size="14.00">A</text>
</g>
<!-- B -->
<g id="node2" class="node">
<title>B</title>
<ellipse fill="#b2dfee" stroke="#b2dfee" cx="309.46" cy="-115" rx="18.27" ry="16.03"/>
<text text-anchor="middle" x="309.46" y="-111.3" font-family="Times,serif" font-size="14.00">B</text>
</g>
<!-- B&#45;&#45;A -->
<g id="edge1" class="edge">
<title>B&#45;&#45;A</title>
<path fill="none" stroke="black" d="M322.79,-103.51C335.78,-91.39 356.11,-72.43 369.05,-60.37"/>
</g>
<!-- C -->
<g id="node3" class="node">
<title>C</title>
<ellipse fill="#b2dfee" stroke="#b2dfee" cx="236.69" cy="-197" rx="18.27" ry="16.03"/>
<text text-anchor="middle" x="236.69" y="-193.3" font-family="Times,serif" font-size="14.00">C</text>
</g>
<!-- C&#45;&#45;B -->
<g id="edge2" class="edge">
<title>C&#45;&#45;B</title>
<path fill="none" stroke="black" d="M248.75,-184.19C262.05,-168.79 284.22,-143.09 297.48,-127.73"/>
</g>
<!-- D -->
<g id="node4" class="node">
<title>D</title>
<ellipse fill="#b2dfee" stroke="#b2dfee" cx="163.92" cy="-159" rx="18.27" ry="16.03"/>
<text text-anchor="middle" x="163.92" y="-155.3" font-family="Times,serif" font-size="14.00">D</text>
</g>
<!-- D&#45;&#45;A -->
<g id="edge3" class="edge">
<title>D&#45;&#45;A</title>
<path fill="none" stroke="black" d="M169.97,-143.44C179.48,-115.14 200.71,-57.15 218.31,-46 264.43,-16.78 333.61,-33.33 364.87,-43.24"/>
</g>
<!-- D&#45;&#45;B -->
<g id="edge4" class="edge">
<title>D&#45;&#45;B</title>
<path fill="none" stroke="black" d="M181.67,-153.87C209.33,-145.39 264.23,-128.56 291.82,-120.1"/>
</g>
<!-- D&#45;&#45;C -->
<g id="edge5" class="edge">
<title>D&#45;&#45;C</title>
<path fill="none" stroke="black" d="M179.93,-167.06C191.94,-173.51 208.7,-182.51 220.71,-188.96"/>
</g>
<!-- E -->
<g id="node5" class="node">
<title>E</title>
<ellipse fill="#b2dfee" stroke="#b2dfee" cx="236.69" cy="-71" rx="17.86" ry="16.03"/>
<text text-anchor="middle" x="236.69" y="-67.3" font-family="Times,serif" font-size="14.00">E</text>
</g>
<!-- E&#45;&#45;A -->
<g id="edge6" class="edge">
<title>E&#45;&#45;A</title>
<path fill="none" stroke="black" d="M254.16,-68.48C281.55,-64.28 336.22,-55.9 364.07,-51.63"/>
</g>
<!-- E&#45;&#45;B -->
<g id="edge7" class="edge">
<title>E&#45;&#45;B</title>
<path fill="none" stroke="black" d="M251.68,-79.7C263.92,-87.31 281.64,-98.33 294.02,-106.03"/>
</g>
<!-- F -->
<g id="node6" class="node">
<title>F</title>
<ellipse fill="#b2dfee" stroke="#b2dfee" cx="163.92" cy="-71" rx="16.94" ry="16.03"/>
<text text-anchor="middle" x="163.92" y="-67.3" font-family="Times,serif" font-size="14.00">F</text>
</g>
<!-- F&#45;&#45;A -->
<g id="edge8" class="edge">
<title>F&#45;&#45;A</title>
<path fill="none" stroke="black" d="M172.85,-57.15C181.82,-43.03 197.88,-21.97 218.31,-13 262.89,6.55 281.29,1.23 327.85,-13 343.46,-17.77 358.62,-28.81 368.78,-37.42"/>
</g>
<!-- G -->
<g id="node7" class="node">
<title>G</title>
<ellipse fill="#b2dfee" stroke="#b2dfee" cx="91.15" cy="-115" rx="18.27" ry="16.03"/>
<text text-anchor="middle" x="91.15" y="-111.3" font-family="Times,serif" font-size="14.00">G</text>
</g>
<!-- G&#45;&#45;B -->
<g id="edge9" class="edge">
<title>G&#45;&#45;B</title>
<path fill="none" stroke="black" d="M109.86,-115C150.52,-115 250.21,-115 290.82,-115"/>
</g>
<!-- G&#45;&#45;D -->
<g id="edge10" class="edge">
<title>G&#45;&#45;D</title>
<path fill="none" stroke="black" d="M106.82,-124.12C118.96,-131.67 136.14,-142.35 148.28,-149.9"/>
</g>
<!-- G&#45;&#45;F -->
<g id="edge11" class="edge">
<title>G&#45;&#45;F</title>
<path fill="none" stroke="black" d="M106.82,-105.89C119.29,-98.13 137.06,-87.09 149.24,-79.51"/>
</g>
<!-- H -->
<g id="node8" class="node">
<title>H</title>
<ellipse fill="#b2dfee" stroke="#b2dfee" cx="18.38" cy="-115" rx="18.27" ry="16.03"/>
<text text-anchor="middle" x="18.38" y="-111.3" font-family="Times,serif" font-size="14.00">H</text>
</g>
<!-- H&#45;&#45;C -->
<g id="edge12" class="edge">
<title>H&#45;&#45;C</title>
<path fill="none" stroke="black" d="M33.37,-124.86C55.86,-140.19 101.96,-169.47 145.54,-184 169.84,-192.11 199.49,-195.16 217.98,-196.31"/>
</g>
<!-- H&#45;&#45;F -->
<g id="edge14" class="edge">
<title>H&#45;&#45;F</title>
<path fill="none" stroke="black" d="M34.42,-106.82C44.91,-101.4 59.38,-94.48 72.77,-90 98.1,-81.53 128.75,-76.03 147,-73.22"/>
</g>
<!-- H&#45;&#45;G -->
<g id="edge13" class="edge">
<title>H&#45;&#45;G</title>
<path fill="none" stroke="black" d="M36.88,-115C47.68,-115 61.51,-115 72.37,-115"/>
</g>
</g>
</svg>
