<?xml version="1.0" encoding="UTF-8" standalone="no"?>
<!DOCTYPE svg PUBLIC "-//W3C//DTD SVG 1.1//EN"
 "http://www.w3.org/Graphics/SVG/1.1/DTD/svg11.dtd">
<!-- Generated by graphviz version 2.43.0 (0)
 -->
<!-- Title: G Pages: 1 -->
<svg width="439pt" height="122pt"
 viewBox="0.00 0.00 439.00 122.00" xmlns="http://www.w3.org/2000/svg" xmlns:xlink="http://www.w3.org/1999/xlink">
<g id="graph0" class="graph" transform="scale(1 1) rotate(0) translate(4 118)">
<title>G</title>
<polygon fill="#ffffff" fill-opacity="0.003922" stroke="transparent" points="-4,4 -4,-118 435,-118 435,4 -4,4"/>
<!-- A -->
<g id="node1" class="node">
<title>A</title>
<ellipse fill="#b2dfee" stroke="#b2dfee" cx="18" cy="-47" rx="18" ry="18"/>
<text text-anchor="middle" x="18" y="-43.9" font-family="times bold" font-size="12.00">A</text>
</g>
<!-- C -->
<g id="node3" class="node">
<title>C</title>
<ellipse fill="#b2dfee" stroke="#b2dfee" cx="97" cy="-96" rx="18" ry="18"/>
<text text-anchor="middle" x="97" y="-92.9" font-family="times bold" font-size="12.00">C</text>
</g>
<!-- A&#45;&gt;C -->
<g id="edge1" class="edge">
<title>A&#45;&gt;C</title>
<path fill="none" stroke="black" d="M30.09,-60.85C36.44,-68.01 44.94,-76.4 54,-82 58.7,-84.91 64.08,-87.28 69.37,-89.2"/>
<polygon fill="black" stroke="black" points="68.68,-92.65 79.27,-92.34 70.79,-85.98 68.68,-92.65"/>
<text text-anchor="middle" x="57.5" y="-88.8" font-family="Times,serif" font-size="14.00">2</text>
</g>
<!-- D -->
<g id="node4" class="node">
<title>D</title>
<ellipse fill="#b2dfee" stroke="#b2dfee" cx="97" cy="-35" rx="18" ry="18"/>
<text text-anchor="middle" x="97" y="-31.9" font-family="times bold" font-size="12.00">D</text>
</g>
<!-- A&#45;&gt;D -->
<g id="edge4" class="edge">
<title>A&#45;&gt;D</title>
<path fill="none" stroke="black" d="M33.72,-37.46C39.75,-34.08 46.96,-30.7 54,-29 58.93,-27.81 64.25,-27.69 69.39,-28.16"/>
<polygon fill="black" stroke="black" points="69.08,-31.65 79.51,-29.78 70.19,-24.74 69.08,-31.65"/>
<text text-anchor="middle" x="57.5" y="-32.8" font-family="Times,serif" font-size="14.00">4</text>
</g>
<!-- B -->
<g id="node2" class="node">
<title>B</title>
<ellipse fill="#b2dfee" stroke="#b2dfee" cx="255" cy="-22" rx="18" ry="18"/>
<text text-anchor="middle" x="255" y="-18.9" font-family="times bold" font-size="12.00">B</text>
</g>
<!-- B&#45;&gt;A -->
<g id="edge3" class="edge">
<title>B&#45;&gt;A</title>
<path fill="none" stroke="black" d="M237.65,-16.78C206.18,-7.57 135.3,9.04 79,-8 64.93,-12.26 51.04,-20.92 40.18,-29"/>
<polygon fill="black" stroke="black" points="37.89,-26.34 32.17,-35.25 42.2,-31.86 37.89,-26.34"/>
<text text-anchor="middle" x="136.5" y="-3.8" font-family="Times,serif" font-size="14.00">3</text>
</g>
<!-- F -->
<g id="node6" class="node">
<title>F</title>
<ellipse fill="#b2dfee" stroke="#b2dfee" cx="334" cy="-57" rx="18" ry="18"/>
<text text-anchor="middle" x="334" y="-53.9" font-family="times bold" font-size="12.00">F</text>
</g>
<!-- B&#45;&gt;F -->
<g id="edge5" class="edge">
<title>B&#45;&gt;F</title>
<path fill="none" stroke="black" d="M271.58,-29.08C282.12,-33.87 296.27,-40.3 308.33,-45.78"/>
<polygon fill="black" stroke="black" points="306.89,-48.98 317.44,-49.93 309.79,-42.6 306.89,-48.98"/>
<text text-anchor="middle" x="294.5" y="-43.8" font-family="Times,serif" font-size="14.00">3</text>
</g>
<!-- G -->
<g id="node7" class="node">
<title>G</title>
<ellipse fill="#b2dfee" stroke="#b2dfee" cx="176" cy="-47" rx="18" ry="18"/>
<text text-anchor="middle" x="176" y="-43.9" font-family="times bold" font-size="12.00">G</text>
</g>
<!-- B&#45;&gt;G -->
<g id="edge7" class="edge">
<title>B&#45;&gt;G</title>
<path fill="none" stroke="black" d="M236.87,-20.22C229.11,-19.97 219.91,-20.44 212,-23 207.25,-24.53 202.57,-26.93 198.25,-29.63"/>
<polygon fill="black" stroke="black" points="196.17,-26.82 189.98,-35.42 200.18,-32.55 196.17,-26.82"/>
<text text-anchor="middle" x="215.5" y="-26.8" font-family="Times,serif" font-size="14.00">6</text>
</g>
<!-- C&#45;&gt;A -->
<g id="edge2" class="edge">
<title>C&#45;&gt;A</title>
<path fill="none" stroke="black" d="M84.37,-82.79C77.99,-76.16 69.63,-68.41 61,-63 56.12,-59.94 50.57,-57.32 45.14,-55.13"/>
<polygon fill="black" stroke="black" points="46.25,-51.81 35.66,-51.67 43.85,-58.39 46.25,-51.81"/>
<text text-anchor="middle" x="57.5" y="-66.8" font-family="Times,serif" font-size="14.00">2</text>
</g>
<!-- D&#45;&gt;G -->
<g id="edge9" class="edge">
<title>D&#45;&gt;G</title>
<path fill="none" stroke="black" d="M113.74,-41.63C119.67,-43.8 126.54,-45.92 133,-47 137.66,-47.78 142.65,-48.16 147.5,-48.3"/>
<polygon fill="black" stroke="black" points="147.74,-51.8 157.73,-48.27 147.72,-44.8 147.74,-51.8"/>
<text text-anchor="middle" x="136.5" y="-50.8" font-family="Times,serif" font-size="14.00">5</text>
</g>
<!-- E -->
<g id="node5" class="node">
<title>E</title>
<ellipse fill="#b2dfee" stroke="#b2dfee" cx="413" cy="-39" rx="18" ry="18"/>
<text text-anchor="middle" x="413" y="-35.9" font-family="times bold" font-size="12.00">E</text>
</g>
<!-- E&#45;&gt;B -->
<g id="edge6" class="edge">
<title>E&#45;&gt;B</title>
<path fill="none" stroke="black" d="M396.71,-30.99C384.87,-25.27 367.86,-18.06 352,-15 328.88,-10.55 302.13,-13.12 282.74,-16.33"/>
<polygon fill="black" stroke="black" points="282.02,-12.9 272.8,-18.14 283.27,-19.79 282.02,-12.9"/>
<text text-anchor="middle" x="334" y="-18.8" font-family="Times,serif" font-size="14.00">4</text>
</g>
<!-- E&#45;&gt;F -->
<g id="edge11" class="edge">
<title>E&#45;&gt;F</title>
<path fill="none" stroke="black" d="M395.03,-37.77C387.29,-37.63 378.08,-38.04 370,-40 366.3,-40.9 362.54,-42.22 358.92,-43.74"/>
<polygon fill="black" stroke="black" points="357.33,-40.62 349.8,-48.07 360.33,-46.94 357.33,-40.62"/>
<text text-anchor="middle" x="373.5" y="-43.8" font-family="Times,serif" font-size="14.00">7</text>
</g>
<!-- F&#45;&gt;E -->
<g id="edge12" class="edge">
<title>F&#45;&gt;E</title>
<path fill="none" stroke="black" d="M352.38,-57.64C360.02,-57.55 369.05,-56.93 377,-55 380.48,-54.15 384.04,-52.96 387.49,-51.6"/>
<polygon fill="black" stroke="black" points="389.05,-54.74 396.78,-47.49 386.22,-48.34 389.05,-54.74"/>
<text text-anchor="middle" x="373.5" y="-59.8" font-family="Times,serif" font-size="14.00">7</text>
</g>
<!-- G&#45;&gt;B -->
<g id="edge8" class="edge">
<title>G&#45;&gt;B</title>
<path fill="none" stroke="black" d="M193.98,-44.23C201.72,-42.75 210.93,-40.67 219,-38 222.4,-36.87 225.91,-35.52 229.34,-34.08"/>
<polygon fill="black" stroke="black" points="230.92,-37.2 238.61,-29.91 228.06,-30.82 230.92,-37.2"/>
<text text-anchor="middle" x="215.5" y="-43.8" font-family="Times,serif" font-size="14.00">6</text>
</g>
<!-- G&#45;&gt;D -->
<g id="edge10" class="edge">
<title>G&#45;&gt;D</title>
<path fill="none" stroke="black" d="M160.69,-37.13C154.6,-33.51 147.24,-29.84 140,-28 134.85,-26.69 129.28,-26.67 123.93,-27.32"/>
<polygon fill="black" stroke="black" points="123.24,-23.89 114.09,-29.22 124.57,-30.76 123.24,-23.89"/>
<text text-anchor="middle" x="136.5" y="-31.8" font-family="Times,serif" font-size="14.00">5</text>
</g>
</g>
</svg>
